<svg xmlns="http://www.w3.org/2000/svg" width="229" height="45" viewBox="0 0 229 45">
    <g fill="none" fill-rule="evenodd">
        <g fill="#231F20" fill-rule="nonzero">
            <path d="M18.75 9.085A17.19 17.19 0 0 1 34.377 19.15c.699.176 1.343.346 1.926.508C33.63 12.562 26.77 7.5 18.75 7.5a18.716 18.716 0 0 0-14.254 6.584c.599.042 1.267.105 1.987.172a17.115 17.115 0 0 1 12.268-5.17zm18.239 12.806a54.84 54.84 0 0 1-1.664-.113c.393 1.458.592 2.962.591 4.471 0 9.464-7.7 17.165-17.166 17.165a17.123 17.123 0 0 1-9.066-2.586l-.49-.304-.445.368a10.279 10.279 0 0 1-2.251 1.44 4.987 4.987 0 0 0 .58-3.272l-.043-.26-.188-.184a17.145 17.145 0 0 1-2.156-22.202 71.07 71.07 0 0 1-1.603-.458A18.727 18.727 0 0 0 5.547 39.56a3.437 3.437 0 0 1-3.419 3.75v1.584c2.601 0 5.13-.854 7.2-2.429A18.711 18.711 0 0 0 18.748 45C29.089 45 37.5 36.59 37.5 26.252a18.727 18.727 0 0 0-.511-4.36z"/>
            <path d="M37.166 17.283c-.479-2.357-3.124-14.35-7.383-15.088-4.72-.82-6.607 1.123-6.607 1.123S22.08.858 17.356.038C13.103-.702 6.448 9.678 5.179 11.73c-2.365-.175-3.784-.133-3.84.17 0 0-.246 1.28-.265 1.388-.138.768 8.512 2.911 19.32 4.788C31.2 19.952 40.31 20.85 40.447 20.083l.265-1.347c.056-.303-1.264-.82-3.547-1.453z"/>
            <circle cx="17.571" cy="22.929" r="1.5"/>
            <circle cx="31.5" cy="22.929" r="1.5"/>
        </g>
        <path fill="#000" d="M59.58 11.268c3.832 0 5.479 1.777 5.479 5.397v.838c0 2.413-.74 3.955-2.387 4.726 1.983.771 2.756 2.548 2.756 5.028v1.91c0 3.62-1.916 5.565-5.613 5.565H54V11.268h5.58zm-.236 12.905h-1.647v7.207h2.118c1.244 0 1.916-.57 1.916-2.313v-2.045c0-2.178-.706-2.849-2.387-2.849zm.135-9.553h-1.782v6.201h1.446c1.378 0 2.218-.603 2.218-2.48v-1.307c0-1.676-.571-2.414-1.882-2.414zm14.764 2.045v12.67c0 1.676.74 2.313 1.916 2.313s1.916-.637 1.916-2.313v-12.67c0-1.676-.74-2.313-1.916-2.313-1.177 0-1.916.637-1.916 2.313zM70.545 29.1V16.899c0-3.754 1.984-5.899 5.614-5.899s5.613 2.145 5.613 5.9v12.2c0 3.755-1.983 5.9-5.613 5.9-3.63 0-5.614-2.145-5.614-5.9zm15.74-14.48h3.865v20.11h3.697v-20.11h3.865v-3.353H86.284v3.352zm15.166 0h3.866v20.11h3.697v-20.11h3.866v-3.353H101.45v3.352zm19.94 0h6.387v-3.353h-10.084v23.464h10.084V31.38h-6.386v-6.872h5.075v-3.352h-5.075V14.62zm19.773 20.11h3.798V11.269h-3.294v14.045l-3.798-14.045h-4.639v23.464h3.328V17.737l4.605 16.995zm9.655 0V11.269h5.848c3.698 0 5.513 2.045 5.513 5.799v11.866c0 3.754-1.815 5.799-5.513 5.799h-5.848zm5.781-20.11h-2.084V31.38h2.084c1.177 0 1.882-.603 1.882-2.28V16.9c0-1.677-.705-2.28-1.882-2.28zm14.831 0h6.387v-3.353h-10.084v23.464h10.084V31.38h-6.387v-6.872h5.076v-3.352h-5.076V14.62zM194.8 34.73h-3.765c-.201-.603-.336-.971-.336-2.882v-3.687c0-2.179-.74-2.983-2.42-2.983h-1.277v9.553h-3.698V11.268h5.58c3.832 0 5.479 1.777 5.479 5.397v1.843c0 2.414-.773 3.99-2.42 4.76 1.849.771 2.454 2.548 2.454 4.995v3.62c0 1.14.033 1.977.403 2.849zm-6.017-20.11h-1.781v7.206h1.445c1.378 0 2.219-.604 2.219-2.48v-2.313c0-1.676-.572-2.414-1.883-2.414z"/>
    </g>
</svg>
