<?xml version="1.0" encoding="UTF-8" standalone="no"?>
<svg width="40px" height="39px" viewBox="0 0 40 39" version="1.1" xmlns="http://www.w3.org/2000/svg" xmlns:xlink="http://www.w3.org/1999/xlink">
    <!-- Generator: Sketch 47.1 (45422) - http://www.bohemiancoding.com/sketch -->
    <title>icon/github</title>
    <desc>Created with Sketch.</desc>
    <defs></defs>
    <g id="Pages-(EN)" stroke="none" stroke-width="1" fill="none" fill-rule="evenodd">
        <g id="BOTTENDER_INDEX（EN）_1017" transform="translate(-1155.000000, -2857.000000)" fill="#FFFFFF">
            <g id="Group" transform="translate(171.000000, 2857.000000)">
                <g id="icon/github" transform="translate(984.000000, 0.000000)">
                    <g id="materials-02">
                        <path d="M39.9960941,20.9095791 C39.9242255,21.522569 39.861731,22.1371089 39.7789259,22.7493239 C39.4188122,25.4180121 38.4804667,27.977701 37.0283887,30.252445 C35.4011893,32.8245229 33.3271546,34.9734751 30.7336348,36.6070817 C29.380138,37.4561253 27.927705,38.1389525 26.4082373,38.6405654 C25.5661246,38.9210994 24.9833638,38.4855743 24.9786767,37.6075495 C24.9700837,35.8770734 24.9786767,34.1465973 24.9739896,32.4153463 C24.9693025,31.3606316 24.863062,30.3229659 24.2818635,29.3992187 C24.1123473,29.1295342 23.8975226,28.887748 23.6967592,28.624263 C24.4779399,28.4793463 25.2591206,28.3762772 26.0192094,28.1848632 C28.0596533,27.6710675 29.8837102,26.7759937 31.1265686,25.0075448 C32.0397689,23.709494 32.4545758,22.2177043 32.641278,20.6639181 C32.7842341,19.4557622 32.8248554,18.2437315 32.5686282,17.0410002 C32.3233193,15.8464492 31.7717697,14.7347916 30.9672078,13.8133098 C30.7664444,13.580823 30.7266041,13.3971585 30.8258141,13.0995756 C31.3624852,11.4915425 31.1382864,9.91605755 30.5352149,8.3723458 C30.5008429,8.28400085 30.3508562,8.20185555 30.2438345,8.18558148 C29.5345224,8.0801875 28.8658318,8.27935112 28.2440119,8.57305933 C27.2355077,9.0457823 26.2605942,9.58747634 25.2622453,10.0818981 C25.0935103,10.1655933 24.8607184,10.2221651 24.6865151,10.1787675 C21.6085195,9.3953041 18.3809684,9.3953041 15.3029728,10.1787675 C15.0930873,10.2143525 14.8773389,10.1721535 14.6967766,10.0601993 C13.427358,9.25734521 12.0852896,8.62188154 10.6268252,8.23982838 C10.6018274,8.23362873 10.5768297,8.22355431 10.5487072,8.21890457 C9.63160104,8.03291521 9.46364719,8.13675927 9.20195167,9.01710894 C8.77933292,10.4383777 8.70355839,11.8557717 9.20585757,13.2793653 C9.2375157,13.4185572 9.20517167,13.5645072 9.11758415,13.6776925 C7.46929292,15.5375862 7.07870258,17.7392353 7.28493428,20.1152495 C7.40992319,21.5558921 7.74661206,22.9384131 8.3957732,24.2380138 C9.29334981,26.0343611 10.8127462,27.1324733 12.6532079,27.7780114 C13.8085741,28.1833133 15.0342466,28.3933262 16.246639,28.695559 C16.2560132,28.6374373 16.2630438,28.6831597 16.246639,28.7040835 C15.6216945,29.3496216 15.2732879,30.1245773 15.1264259,31.0002772 C15.1076776,31.1110959 15.0311219,31.2691868 14.9420673,31.3025099 C13.5531281,31.8209553 12.156377,32.0937397 10.7830614,31.2622122 C10.1581168,30.8840339 9.70346966,30.3376901 9.33553356,29.7169506 C8.75902222,28.7436062 7.94581313,28.0376216 6.85372254,27.716015 C6.4631322,27.6005466 6.01239095,27.6299949 5.59289692,27.6540185 C5.30698479,27.6702926 5.21324311,27.8865052 5.40463238,28.1189919 C5.58117921,28.3383044 5.76163195,28.5839654 5.9983297,28.7211325 C7.04901771,29.3217232 7.63880912,30.2803434 8.11923524,31.3249837 C8.40592855,31.9449482 8.65121929,32.5827367 9.18320333,33.0608844 C10.0300032,33.8226659 11.058037,34.1101744 12.1516899,34.1582217 C13.0820761,34.1985194 14.0163682,34.1667462 14.9928441,34.1667462 C15.0049054,34.2264769 15.0114424,34.2871755 15.0123736,34.3480858 C15.0264348,35.394276 15.0404961,36.4404662 15.0483079,37.4858814 C15.0553385,38.5095979 14.4358622,38.9327237 13.457824,38.595618 C8.38014959,36.847318 4.65626129,33.5359323 2.17054436,28.8567498 C0.295710727,25.3330262 -0.292518326,21.5481426 0.130100422,17.5974184 C0.576935772,13.4622548 2.22678937,9.84321172 4.97888891,6.73563937 C7.85597735,3.488575 11.438472,1.33109834 15.7185609,0.466247777 C21.9375403,-0.787630542 27.617505,0.471672467 32.5920636,4.43634582 C36.359698,7.44084905 38.6930847,11.3543753 39.6351886,16.066106 C39.7742388,16.7635661 39.8265779,17.4711006 39.9218819,18.1739855 C39.9406303,18.3119276 39.9710963,18.4475448 40,18.584712 L40,20.9095791 L39.9960941,20.9095791 Z" id="Shape" fill-rule="nonzero"></path>
                    </g>
                </g>
            </g>
        </g>
    </g>
</svg>