<?xml version="1.0" encoding="UTF-8" standalone="no"?>
<svg width="20px" height="20px" viewBox="0 0 20 20" version="1.1" xmlns="http://www.w3.org/2000/svg" xmlns:xlink="http://www.w3.org/1999/xlink">
    <!-- Generator: Sketch 47.1 (45422) - http://www.bohemiancoding.com/sketch -->
    <title>Artboard</title>
    <desc>Created with Sketch.</desc>
    <defs></defs>
    <g id="Page-1" stroke="none" stroke-width="1" fill="none" fill-rule="evenodd">
        <g id="Artboard" fill="#4A4A4A">
            <path d="M17.2232143,7.45535714 L10.5982143,14.0714286 C10.4851185,14.1845244 10.3511912,14.2410714 10.1964286,14.2410714 C10.0416659,14.2410714 9.90773866,14.1845244 9.79464286,14.0714286 L3.16964286,7.45535714 C3.05654705,7.34226134 3,7.20684603 3,7.04910714 C3,6.89136826 3.05654705,6.75595295 3.16964286,6.64285714 L4.65178571,5.16964286 C4.76488152,5.05654705 4.89880875,5 5.05357143,5 C5.20833411,5 5.34226134,5.05654705 5.45535714,5.16964286 L10.1964286,9.91071429 L14.9375,5.16964286 C15.0505958,5.05654705 15.184523,5 15.3392857,5 C15.4940484,5 15.6279756,5.05654705 15.7410714,5.16964286 L17.2232143,6.64285714 C17.3363101,6.75595295 17.3928571,6.89136826 17.3928571,7.04910714 C17.3928571,7.20684603 17.3363101,7.34226134 17.2232143,7.45535714 Z" id="ï¸"></path>
        </g>
    </g>
</svg>