<svg id="bg" xmlns="http://www.w3.org/2000/svg" xmlns:xlink="http://www.w3.org/1999/xlink" viewBox="0 0 320 508"><defs><style>.cls-1,.cls-2{fill:#fff;}.cls-1{opacity:0.16;}.cls-3{opacity:0.1;}.cls-4,.cls-5{fill:none;}.cls-4{stroke:#fff;stroke-miterlimit:10;stroke-width:0.5px;}.cls-6{opacity:0.72;}.cls-7{opacity:0.9;}.cls-8{fill:#3ec7f4;opacity:0.32;}.cls-9{opacity:0.6;}</style><symbol id="New_Symbol" data-name="New Symbol" viewBox="0 0 133.73 46.42"><polygon class="cls-1" points="133.72 0 7.47 0 7.47 7.44 0.04 7.44 0.04 46.42 126.29 46.42 126.29 38.98 133.72 38.98 133.72 0"/><polygon class="cls-2" points="7.47 7.44 0.04 7.44 7.47 0 7.47 7.44"/><polygon class="cls-2" points="126.29 38.98 133.73 38.98 126.29 46.42 126.29 38.98"/><rect class="cls-2" x="129.73" width="4" height="4"/><polygon class="cls-2" points="2.02 46.42 2.02 44.42 0 44.42 0 46.42 2.02 46.42"/><polygon class="cls-2" points="14.92 46.42 15.5 45.42 14.92 44.42 2.02 44.42 2.02 46.42 14.92 46.42"/></symbol></defs><title>materials__1027</title><rect width="320" height="508"/><g class="cls-3"><line class="cls-4" x1="306.15" y1="498.38" x2="306.15" y2="0.35"/><line class="cls-4" x1="294.91" y1="498.38" x2="294.91" y2="0.35"/><line class="cls-4" x1="317.4" y1="498.38" x2="317.4" y2="0.35"/><line class="cls-4" x1="283.66" y1="498.38" x2="283.66" y2="0.35"/><line class="cls-4" x1="272.41" y1="498.38" x2="272.41" y2="0.35"/><line class="cls-4" x1="261.16" y1="498.38" x2="261.16" y2="0.35"/><line class="cls-4" x1="249.91" y1="498.38" x2="249.91" y2="0.35"/><line class="cls-4" x1="238.67" y1="498.38" x2="238.67" y2="0.35"/><line class="cls-4" x1="227.42" y1="498.38" x2="227.42" y2="0.35"/><line class="cls-4" x1="216.17" y1="498.38" x2="216.17" y2="0.35"/><line class="cls-4" x1="204.92" y1="498.38" x2="204.92" y2="0.35"/><line class="cls-4" x1="193.68" y1="498.38" x2="193.68" y2="0.35"/><line class="cls-4" x1="182.43" y1="498.38" x2="182.43" y2="0.35"/><line class="cls-4" x1="171.18" y1="498.38" x2="171.18" y2="0.35"/><line class="cls-4" x1="159.93" y1="498.38" x2="159.93" y2="0.35"/><line class="cls-4" x1="148.68" y1="498.38" x2="148.68" y2="0.35"/><line class="cls-4" x1="137.44" y1="498.38" x2="137.44" y2="0.35"/><line class="cls-4" x1="126.19" y1="498.38" x2="126.19" y2="0.35"/><line class="cls-4" x1="114.94" y1="498.38" x2="114.94" y2="0.35"/><line class="cls-4" x1="103.69" y1="498.38" x2="103.69" y2="0.35"/><line class="cls-4" x1="92.45" y1="498.38" x2="92.45" y2="0.35"/><line class="cls-4" x1="81.2" y1="498.38" x2="81.2" y2="0.35"/><line class="cls-4" x1="69.95" y1="498.38" x2="69.95" y2="0.35"/><line class="cls-4" x1="58.7" y1="498.38" x2="58.7" y2="0.35"/><line class="cls-4" x1="47.46" y1="498.38" x2="47.46" y2="0.35"/><line class="cls-4" x1="36.21" y1="498.38" x2="36.21" y2="0.35"/><line class="cls-4" x1="24.96" y1="498.38" x2="24.96" y2="0.35"/><line class="cls-4" x1="13.71" y1="498.38" x2="13.71" y2="0.35"/><line class="cls-4" x1="2.6" y1="498.38" x2="2.6" y2="0.35"/><line class="cls-4" x1="316.58" y1="6.72" x2="2.87" y2="6.72"/><line class="cls-4" x1="316.58" y1="17.97" x2="2.87" y2="17.97"/><line class="cls-4" x1="316.58" y1="29.22" x2="2.87" y2="29.22"/><line class="cls-4" x1="316.58" y1="40.47" x2="2.87" y2="40.47"/><line class="cls-4" x1="316.58" y1="51.71" x2="2.87" y2="51.71"/><line class="cls-4" x1="316.58" y1="62.96" x2="2.87" y2="62.96"/><line class="cls-4" x1="316.58" y1="74.21" x2="2.87" y2="74.21"/><line class="cls-4" x1="316.58" y1="85.46" x2="2.87" y2="85.46"/><line class="cls-4" x1="316.58" y1="96.7" x2="2.87" y2="96.7"/><line class="cls-4" x1="316.58" y1="107.95" x2="2.87" y2="107.95"/><line class="cls-4" x1="316.58" y1="119.2" x2="2.87" y2="119.2"/><line class="cls-4" x1="316.58" y1="130.45" x2="2.87" y2="130.45"/><line class="cls-4" x1="316.58" y1="141.7" x2="2.87" y2="141.7"/><line class="cls-4" x1="316.58" y1="152.94" x2="2.87" y2="152.94"/><line class="cls-4" x1="316.58" y1="164.19" x2="2.87" y2="164.19"/><line class="cls-4" x1="316.58" y1="175.44" x2="2.87" y2="175.44"/><line class="cls-4" x1="316.58" y1="186.69" x2="2.87" y2="186.69"/><line class="cls-4" x1="316.58" y1="197.93" x2="2.87" y2="197.93"/><line class="cls-4" x1="316.58" y1="209.18" x2="2.87" y2="209.18"/><line class="cls-4" x1="316.58" y1="220.43" x2="2.87" y2="220.43"/><line class="cls-4" x1="316.58" y1="231.68" x2="2.87" y2="231.68"/><line class="cls-4" x1="316.58" y1="242.92" x2="2.87" y2="242.92"/><line class="cls-4" x1="316.58" y1="254.17" x2="2.87" y2="254.17"/><line class="cls-4" x1="316.58" y1="265.42" x2="2.87" y2="265.42"/><line class="cls-4" x1="316.58" y1="276.67" x2="2.87" y2="276.67"/><line class="cls-4" x1="316.58" y1="287.92" x2="2.87" y2="287.92"/><line class="cls-4" x1="316.58" y1="299.16" x2="2.87" y2="299.16"/><line class="cls-4" x1="316.58" y1="310.41" x2="2.87" y2="310.41"/><line class="cls-4" x1="316.58" y1="321.66" x2="2.87" y2="321.66"/><line class="cls-4" x1="316.58" y1="332.91" x2="2.87" y2="332.91"/><line class="cls-4" x1="316.58" y1="344.15" x2="2.87" y2="344.15"/><line class="cls-4" x1="316.58" y1="355.4" x2="2.87" y2="355.4"/><line class="cls-4" x1="316.58" y1="366.65" x2="2.87" y2="366.65"/><line class="cls-4" x1="316.58" y1="377.9" x2="2.87" y2="377.9"/><line class="cls-4" x1="316.58" y1="389.15" x2="2.87" y2="389.15"/><line class="cls-4" x1="316.58" y1="400.39" x2="2.87" y2="400.39"/><line class="cls-4" x1="316.58" y1="411.64" x2="2.87" y2="411.64"/><line class="cls-4" x1="316.58" y1="422.89" x2="2.87" y2="422.89"/><line class="cls-4" x1="316.58" y1="434.14" x2="2.87" y2="434.14"/><line class="cls-4" x1="316.58" y1="445.38" x2="2.87" y2="445.38"/><line class="cls-4" x1="316.58" y1="456.63" x2="2.87" y2="456.63"/><line class="cls-4" x1="316.58" y1="467.88" x2="2.87" y2="467.88"/><line class="cls-4" x1="316.58" y1="479.13" x2="2.87" y2="479.13"/><line class="cls-4" x1="316.58" y1="490.37" x2="2.87" y2="490.37"/></g><rect class="cls-5" x="205" y="441.26" width="90" height="45"/><g class="cls-6"><use id="New_Symbol-3" data-name="New Symbol" width="133.73" height="46.42" transform="translate(208.42 449.33) scale(0.62)" xlink:href="#New_Symbol"/></g><g class="cls-7"><path class="cls-2" d="M221.19,459.47a0.23,0.23,0,1,1,.45,0,0.89,0.89,0,0,0,.87.91,0.68,0.68,0,0,0,.74-0.62,0.58,0.58,0,0,0-.2-0.47l-1.24-1a1.16,1.16,0,0,1,.7-2,1.36,1.36,0,0,1,1,.46,0.93,0.93,0,0,1,.22.42,0.24,0.24,0,0,1-.22.24,0.27,0.27,0,0,1-.21-0.14,0.86,0.86,0,0,0-.78-0.51,0.67,0.67,0,0,0-.65.69,0.64,0.64,0,0,0,.24.51l1.24,1a1.05,1.05,0,0,1,.36.85,1.13,1.13,0,0,1-1.19,1.07A1.36,1.36,0,0,1,221.19,459.47Z"/><path class="cls-2" d="M225.29,459.49v-3a0.23,0.23,0,0,1,.22-0.24,0.23,0.23,0,0,1,.22.24v3a0.86,0.86,0,1,0,1.72,0v-3a0.23,0.23,0,0,1,.22-0.24,0.23,0.23,0,0,1,.22.24v3A1.31,1.31,0,1,1,225.29,459.49Z"/><path class="cls-2" d="M229.51,460.62V456.5a0.24,0.24,0,0,1,.22-0.24h1a1.41,1.41,0,0,1,0,2.82H230v1.54a0.23,0.23,0,0,1-.23.24A0.23,0.23,0,0,1,229.51,460.62Zm1.22-2a0.94,0.94,0,0,0,0-1.88H230v1.88h0.76Z"/><path class="cls-2" d="M233.66,460.62V456.5a0.24,0.24,0,0,1,.22-0.24h1a1.41,1.41,0,0,1,0,2.82h-0.76v1.54a0.23,0.23,0,0,1-.23.24A0.23,0.23,0,0,1,233.66,460.62Zm1.22-2a0.94,0.94,0,0,0,0-1.88h-0.76v1.88h0.76Z"/><path class="cls-2" d="M237.72,459.52v-1.9a1.31,1.31,0,1,1,2.61,0v1.9A1.31,1.31,0,1,1,237.72,459.52Zm2.16,0v-1.9a0.85,0.85,0,1,0-1.7,0v1.9A0.85,0.85,0,1,0,239.87,459.52Z"/><path class="cls-2" d="M241.91,460.62V456.5a0.24,0.24,0,0,1,.22-0.24h1a1.39,1.39,0,0,1,1.36,1.41,1.42,1.42,0,0,1-.91,1.33l1,1.49a0.22,0.22,0,0,1,0,.13,0.23,0.23,0,0,1-.22.24,0.21,0.21,0,0,1-.19-0.1l-1.16-1.67h-0.72v1.54a0.23,0.23,0,0,1-.23.24A0.23,0.23,0,0,1,241.91,460.62Zm1.22-2a0.94,0.94,0,0,0,0-1.88h-0.77v1.88h0.77Z"/><path class="cls-2" d="M247.07,460.62v-3.88H245.8a0.24,0.24,0,0,1,0-.47h3a0.24,0.24,0,0,1,0,.47h-1.27v3.88A0.23,0.23,0,1,1,247.07,460.62Z"/><path class="cls-2" d="M254.32,459.47a0.23,0.23,0,1,1,.45,0,0.89,0.89,0,0,0,.87.91,0.68,0.68,0,0,0,.74-0.62,0.58,0.58,0,0,0-.2-0.47l-1.24-1a1.16,1.16,0,0,1,.7-2,1.36,1.36,0,0,1,1,.46,0.93,0.93,0,0,1,.22.42,0.24,0.24,0,0,1-.22.24,0.27,0.27,0,0,1-.21-0.14,0.86,0.86,0,0,0-.78-0.51,0.67,0.67,0,0,0-.65.69,0.64,0.64,0,0,0,.24.51l1.24,1a1.05,1.05,0,0,1,.36.85,1.13,1.13,0,0,1-1.19,1.07A1.36,1.36,0,0,1,254.32,459.47Z"/><path class="cls-2" d="M258.47,460.62V456.5a0.23,0.23,0,0,1,.22-0.24H261a0.23,0.23,0,0,1,.22.24,0.22,0.22,0,0,1-.22.23h-2.05v1.59h1.59a0.23,0.23,0,0,1,0,.47h-1.59v1.6H261a0.23,0.23,0,0,1,0,.47h-2.27A0.22,0.22,0,0,1,258.47,460.62Z"/><path class="cls-2" d="M262.62,460.62V456.5a0.24,0.24,0,0,1,.22-0.24h1a1.39,1.39,0,0,1,1.36,1.41,1.42,1.42,0,0,1-.91,1.33l1,1.49a0.22,0.22,0,0,1,0,.13,0.23,0.23,0,0,1-.22.24,0.21,0.21,0,0,1-.19-0.1l-1.16-1.67h-0.72v1.54a0.23,0.23,0,0,1-.23.24A0.23,0.23,0,0,1,262.62,460.62Zm1.22-2a0.94,0.94,0,0,0,0-1.88h-0.77v1.88h0.77Z"/><path class="cls-2" d="M267.8,460.7l-1.21-4.08a0.41,0.41,0,0,1,0-.12,0.22,0.22,0,0,1,.22-0.24,0.23,0.23,0,0,1,.22.17l1,3.39,1-3.39a0.23,0.23,0,0,1,.22-0.17,0.21,0.21,0,0,1,.23.22,0.6,0.6,0,0,1,0,.14l-1.21,4.08A0.22,0.22,0,0,1,267.8,460.7Z"/><path class="cls-2" d="M270.89,460.62V456.5a0.23,0.23,0,0,1,.22-0.24h2.27a0.23,0.23,0,0,1,.22.24,0.22,0.22,0,0,1-.22.23h-2.05v1.59h1.59a0.23,0.23,0,0,1,0,.47h-1.59v1.6h2.05a0.23,0.23,0,0,1,0,.47h-2.27A0.22,0.22,0,0,1,270.89,460.62Z"/><path class="cls-2" d="M275,460.62V456.5a0.24,0.24,0,0,1,.22-0.24h1a1.39,1.39,0,0,1,1.36,1.41,1.42,1.42,0,0,1-.91,1.33l1,1.49a0.22,0.22,0,0,1,0,.13,0.23,0.23,0,0,1-.22.24,0.21,0.21,0,0,1-.19-0.1l-1.16-1.67H275.5v1.54a0.23,0.23,0,0,1-.23.24A0.23,0.23,0,0,1,275,460.62Zm1.22-2a0.94,0.94,0,0,0,0-1.88H275.5v1.88h0.77Z"/><path class="cls-2" d="M224.72,472.45v-6.6a0.37,0.37,0,0,1,.35-0.38h3.64a0.37,0.37,0,0,1,.35.39,0.36,0.36,0,0,1-.35.37h-3.28v2.55H228a0.37,0.37,0,0,1,0,.75h-2.55v2.56h3.28a0.37,0.37,0,0,1,0,.75h-3.64A0.36,0.36,0,0,1,224.72,472.45Z"/><path class="cls-2" d="M232.12,472.46a0.31,0.31,0,0,1,0-.18l1.58-3.13L232.17,466a0.5,0.5,0,0,1,0-.2,0.36,0.36,0,0,1,.36-0.36,0.34,0.34,0,0,1,.32.21l1.35,2.67,1.35-2.67a0.34,0.34,0,0,1,.32-0.21,0.34,0.34,0,0,1,.36.36,0.47,0.47,0,0,1,0,.2l-1.58,3.13,1.58,3.13a0.49,0.49,0,0,1,0,.19,0.36,0.36,0,0,1-.69.16l-1.35-2.68-1.35,2.68a0.37,0.37,0,0,1-.32.2A0.37,0.37,0,0,1,232.12,472.46Z"/><path class="cls-2" d="M239.62,472.45v-6.6a0.38,0.38,0,0,1,.36-0.38h1.59a2.26,2.26,0,0,1,0,4.52h-1.22v2.46a0.37,0.37,0,0,1-.37.38A0.37,0.37,0,0,1,239.62,472.45Zm2-3.21a1.5,1.5,0,0,0,0-3h-1.22v3h1.22Z"/><path class="cls-2" d="M247,472.45v-6.6a0.38,0.38,0,0,1,.36-0.38H249a2.23,2.23,0,0,1,2.18,2.26,2.27,2.27,0,0,1-1.45,2.13l1.64,2.38a0.35,0.35,0,0,1,.07.21,0.37,0.37,0,0,1-.36.38,0.33,0.33,0,0,1-.3-0.16L248.88,470h-1.15v2.46a0.37,0.37,0,0,1-.37.38A0.37,0.37,0,0,1,247,472.45Zm2-3.21a1.5,1.5,0,0,0,0-3h-1.23v3H249Z"/><path class="cls-2" d="M254.41,472.45v-6.6a0.37,0.37,0,0,1,.35-0.38h3.64a0.37,0.37,0,0,1,.35.39,0.36,0.36,0,0,1-.35.37h-3.28v2.55h2.55a0.37,0.37,0,0,1,0,.75h-2.55v2.56h3.28a0.37,0.37,0,0,1,0,.75h-3.64A0.36,0.36,0,0,1,254.41,472.45Z"/><path class="cls-2" d="M261.82,470.62a0.36,0.36,0,1,1,.73,0,1.42,1.42,0,0,0,1.39,1.45,1.09,1.09,0,0,0,1.18-1,0.93,0.93,0,0,0-.32-0.75l-2-1.6a1.86,1.86,0,0,1,1.11-3.26,2.19,2.19,0,0,1,1.59.74,1.48,1.48,0,0,1,.35.68,0.39,0.39,0,0,1-.36.39,0.43,0.43,0,0,1-.33-0.23,1.38,1.38,0,0,0-1.25-.82,1.08,1.08,0,0,0-1,1.11,1,1,0,0,0,.39.82l2,1.6a1.68,1.68,0,0,1,.58,1.35,1.81,1.81,0,0,1-1.9,1.72A2.17,2.17,0,0,1,261.82,470.62Z"/><path class="cls-2" d="M269.24,470.62a0.36,0.36,0,1,1,.73,0,1.42,1.42,0,0,0,1.39,1.45,1.09,1.09,0,0,0,1.18-1,0.93,0.93,0,0,0-.32-0.75l-2-1.6a1.86,1.86,0,0,1,1.11-3.26,2.19,2.19,0,0,1,1.59.74,1.48,1.48,0,0,1,.35.68,0.39,0.39,0,0,1-.36.39,0.43,0.43,0,0,1-.33-0.23,1.38,1.38,0,0,0-1.25-.82,1.08,1.08,0,0,0-1,1.11,1,1,0,0,0,.39.82l2,1.6a1.68,1.68,0,0,1,.58,1.35,1.81,1.81,0,0,1-1.9,1.72A2.17,2.17,0,0,1,269.24,470.62Z"/></g><rect class="cls-5" x="114.49" y="401.26" width="90" height="45"/><g class="cls-6"><use id="New_Symbol-6" data-name="New Symbol" width="133.73" height="46.42" transform="translate(117.91 409.33) scale(0.62)" xlink:href="#New_Symbol"/></g><g class="cls-7"><path class="cls-2" d="M130.68,419.47a0.23,0.23,0,1,1,.45,0,0.89,0.89,0,0,0,.87.91,0.68,0.68,0,0,0,.74-0.62,0.58,0.58,0,0,0-.2-0.47l-1.24-1a1.16,1.16,0,0,1,.7-2,1.36,1.36,0,0,1,1,.46,0.93,0.93,0,0,1,.22.42,0.24,0.24,0,0,1-.22.24,0.27,0.27,0,0,1-.21-0.14,0.86,0.86,0,0,0-.78-0.51,0.67,0.67,0,0,0-.65.69,0.64,0.64,0,0,0,.24.51l1.24,1a1.05,1.05,0,0,1,.36.85,1.13,1.13,0,0,1-1.19,1.07A1.36,1.36,0,0,1,130.68,419.47Z"/><path class="cls-2" d="M134.78,419.49v-3a0.23,0.23,0,0,1,.22-0.24,0.23,0.23,0,0,1,.22.24v3a0.86,0.86,0,1,0,1.72,0v-3a0.23,0.23,0,0,1,.22-0.24,0.23,0.23,0,0,1,.22.24v3A1.31,1.31,0,1,1,134.78,419.49Z"/><path class="cls-2" d="M139,420.62V416.5a0.24,0.24,0,0,1,.22-0.24h1a1.41,1.41,0,0,1,0,2.82h-0.76v1.54a0.23,0.23,0,0,1-.23.24A0.23,0.23,0,0,1,139,420.62Zm1.22-2a0.94,0.94,0,0,0,0-1.88h-0.76v1.88h0.76Z"/><path class="cls-2" d="M143.15,420.62V416.5a0.24,0.24,0,0,1,.22-0.24h1a1.41,1.41,0,0,1,0,2.82H143.6v1.54a0.23,0.23,0,0,1-.23.24A0.23,0.23,0,0,1,143.15,420.62Zm1.22-2a0.94,0.94,0,0,0,0-1.88H143.6v1.88h0.76Z"/><path class="cls-2" d="M147.21,419.52v-1.9a1.31,1.31,0,1,1,2.61,0v1.9A1.31,1.31,0,1,1,147.21,419.52Zm2.16,0v-1.9a0.85,0.85,0,1,0-1.7,0v1.9A0.85,0.85,0,1,0,149.36,419.52Z"/><path class="cls-2" d="M151.4,420.62V416.5a0.24,0.24,0,0,1,.22-0.24h1a1.39,1.39,0,0,1,1.36,1.41,1.42,1.42,0,0,1-.91,1.33l1,1.49a0.22,0.22,0,0,1,0,.13,0.23,0.23,0,0,1-.22.24,0.21,0.21,0,0,1-.19-0.1l-1.16-1.67h-0.72v1.54a0.23,0.23,0,0,1-.23.24A0.23,0.23,0,0,1,151.4,420.62Zm1.22-2a0.94,0.94,0,0,0,0-1.88h-0.77v1.88h0.77Z"/><path class="cls-2" d="M156.57,420.62v-3.88h-1.27a0.24,0.24,0,0,1,0-.47h3a0.24,0.24,0,0,1,0,.47H157v3.88A0.23,0.23,0,1,1,156.57,420.62Z"/><path class="cls-2" d="M163.81,419.47a0.23,0.23,0,1,1,.45,0,0.89,0.89,0,0,0,.87.91,0.68,0.68,0,0,0,.74-0.62,0.58,0.58,0,0,0-.2-0.47l-1.24-1a1.16,1.16,0,0,1,.7-2,1.36,1.36,0,0,1,1,.46,0.93,0.93,0,0,1,.22.42,0.24,0.24,0,0,1-.22.24,0.27,0.27,0,0,1-.21-0.14,0.86,0.86,0,0,0-.78-0.51,0.67,0.67,0,0,0-.65.69,0.64,0.64,0,0,0,.24.51l1.24,1a1.05,1.05,0,0,1,.36.85,1.13,1.13,0,0,1-1.19,1.07A1.36,1.36,0,0,1,163.81,419.47Z"/><path class="cls-2" d="M168,420.62V416.5a0.23,0.23,0,0,1,.22-0.24h2.27a0.23,0.23,0,0,1,.22.24,0.22,0.22,0,0,1-.22.23H168.4v1.59H170a0.23,0.23,0,0,1,0,.47H168.4v1.6h2.05a0.23,0.23,0,0,1,0,.47h-2.27A0.22,0.22,0,0,1,168,420.62Z"/><path class="cls-2" d="M172.11,420.62V416.5a0.24,0.24,0,0,1,.22-0.24h1a1.39,1.39,0,0,1,1.36,1.41,1.42,1.42,0,0,1-.91,1.33l1,1.49a0.22,0.22,0,0,1,0,.13,0.23,0.23,0,0,1-.22.24,0.21,0.21,0,0,1-.19-0.1l-1.16-1.67h-0.72v1.54a0.23,0.23,0,0,1-.23.24A0.23,0.23,0,0,1,172.11,420.62Zm1.22-2a0.94,0.94,0,0,0,0-1.88h-0.77v1.88h0.77Z"/><path class="cls-2" d="M177.29,420.7l-1.21-4.08a0.41,0.41,0,0,1,0-.12,0.22,0.22,0,0,1,.22-0.24,0.23,0.23,0,0,1,.22.17l1,3.39,1-3.39a0.23,0.23,0,0,1,.22-0.17,0.21,0.21,0,0,1,.23.22,0.6,0.6,0,0,1,0,.14l-1.21,4.08A0.22,0.22,0,0,1,177.29,420.7Z"/><path class="cls-2" d="M180.38,420.62V416.5a0.23,0.23,0,0,1,.22-0.24h2.27a0.23,0.23,0,0,1,.22.24,0.22,0.22,0,0,1-.22.23h-2.05v1.59h1.59a0.23,0.23,0,0,1,0,.47h-1.59v1.6h2.05a0.23,0.23,0,0,1,0,.47H180.6A0.22,0.22,0,0,1,180.38,420.62Z"/><path class="cls-2" d="M184.54,420.62V416.5a0.24,0.24,0,0,1,.22-0.24h1a1.39,1.39,0,0,1,1.36,1.41,1.42,1.42,0,0,1-.91,1.33l1,1.49a0.22,0.22,0,0,1,0,.13,0.23,0.23,0,0,1-.22.24,0.21,0.21,0,0,1-.19-0.1l-1.16-1.67H185v1.54a0.23,0.23,0,0,1-.23.24A0.23,0.23,0,0,1,184.54,420.62Zm1.22-2a0.94,0.94,0,0,0,0-1.88H185v1.88h0.77Z"/><path class="cls-2" d="M149.14,432.45v-6.61a0.36,0.36,0,0,1,.36-0.37,0.37,0.37,0,0,1,.37.37v3.6l2.35-3.8a0.35,0.35,0,0,1,.31-0.17,0.37,0.37,0,0,1,.36.38,0.35,0.35,0,0,1-.06.19l-1.5,2.44,2.23,3.78a0.54,0.54,0,0,1,0,.21,0.36,0.36,0,0,1-.36.36,0.33,0.33,0,0,1-.31-0.18l-2.05-3.46-1,1.65v1.61A0.36,0.36,0,1,1,149.14,432.45Z"/><path class="cls-2" d="M156.41,430.69v-3a2.09,2.09,0,1,1,4.18,0v3A2.09,2.09,0,1,1,156.41,430.69Zm3.45,0v-3a1.36,1.36,0,1,0-2.73,0v3A1.36,1.36,0,1,0,159.86,430.69Z"/><path class="cls-2" d="M163.11,432.45l2.47-6.75a0.34,0.34,0,0,1,.34-0.23,0.34,0.34,0,0,1,.34.23l2.47,6.75a0.36,0.36,0,0,1-.71.14l-0.62-1.66h-3l-0.62,1.66a0.36,0.36,0,0,1-.34.24A0.36,0.36,0,0,1,163.11,432.45Zm4-2.27-1.2-3.26-1.2,3.26h2.41Z"/></g><rect class="cls-5" x="25" y="441.26" width="90" height="45"/><g class="cls-6"><use id="New_Symbol-9" data-name="New Symbol" width="133.73" height="46.42" transform="translate(28.42 449.33) scale(0.62)" xlink:href="#New_Symbol"/></g><g class="cls-7"><path class="cls-2" d="M41.19,459.47a0.23,0.23,0,1,1,.45,0,0.89,0.89,0,0,0,.87.91,0.68,0.68,0,0,0,.74-0.62,0.58,0.58,0,0,0-.2-0.47l-1.24-1a1.16,1.16,0,0,1,.7-2,1.36,1.36,0,0,1,1,.46,0.92,0.92,0,0,1,.22.42,0.24,0.24,0,0,1-.22.24,0.27,0.27,0,0,1-.21-0.14,0.86,0.86,0,0,0-.78-0.51,0.67,0.67,0,0,0-.65.69,0.64,0.64,0,0,0,.24.51l1.24,1a1.05,1.05,0,0,1,.36.85,1.13,1.13,0,0,1-1.19,1.08A1.36,1.36,0,0,1,41.19,459.47Z"/><path class="cls-2" d="M45.3,459.49v-3a0.23,0.23,0,0,1,.22-0.24,0.23,0.23,0,0,1,.22.24v3a0.86,0.86,0,1,0,1.72,0v-3a0.23,0.23,0,0,1,.22-0.24,0.23,0.23,0,0,1,.22.24v3A1.31,1.31,0,1,1,45.3,459.49Z"/><path class="cls-2" d="M49.52,460.62V456.5a0.24,0.24,0,0,1,.22-0.24h1a1.41,1.41,0,0,1,0,2.82H50v1.54a0.23,0.23,0,0,1-.23.24A0.23,0.23,0,0,1,49.52,460.62Zm1.22-2a0.94,0.94,0,0,0,0-1.88H50v1.88h0.76Z"/><path class="cls-2" d="M53.66,460.62V456.5a0.24,0.24,0,0,1,.22-0.24h1a1.41,1.41,0,0,1,0,2.82H54.11v1.54a0.23,0.23,0,0,1-.23.24A0.23,0.23,0,0,1,53.66,460.62Zm1.22-2a0.94,0.94,0,0,0,0-1.88H54.11v1.88h0.76Z"/><path class="cls-2" d="M57.72,459.52v-1.9a1.31,1.31,0,1,1,2.61,0v1.9A1.31,1.31,0,1,1,57.72,459.52Zm2.16,0v-1.9a0.85,0.85,0,1,0-1.7,0v1.9A0.85,0.85,0,1,0,59.88,459.52Z"/><path class="cls-2" d="M61.92,460.62V456.5a0.24,0.24,0,0,1,.22-0.24h1a1.39,1.39,0,0,1,1.36,1.41A1.42,1.42,0,0,1,63.6,459l1,1.49a0.22,0.22,0,0,1,0,.13,0.23,0.23,0,0,1-.22.24,0.21,0.21,0,0,1-.19-0.1l-1.16-1.67H62.37v1.54a0.23,0.23,0,0,1-.23.24A0.23,0.23,0,0,1,61.92,460.62Zm1.22-2a0.94,0.94,0,0,0,0-1.88H62.37v1.88h0.77Z"/><path class="cls-2" d="M67.08,460.62v-3.88H65.8a0.24,0.24,0,0,1,0-.47h3a0.24,0.24,0,0,1,0,.47H67.54v3.88A0.23,0.23,0,1,1,67.08,460.62Z"/><path class="cls-2" d="M74.32,459.47a0.23,0.23,0,1,1,.45,0,0.89,0.89,0,0,0,.87.91,0.68,0.68,0,0,0,.74-0.62,0.58,0.58,0,0,0-.2-0.47l-1.24-1a1.16,1.16,0,0,1,.7-2,1.36,1.36,0,0,1,1,.46,0.92,0.92,0,0,1,.22.42,0.24,0.24,0,0,1-.22.24,0.27,0.27,0,0,1-.21-0.14,0.86,0.86,0,0,0-.78-0.51,0.67,0.67,0,0,0-.65.69,0.64,0.64,0,0,0,.24.51l1.24,1a1.05,1.05,0,0,1,.36.85,1.13,1.13,0,0,1-1.19,1.08A1.36,1.36,0,0,1,74.32,459.47Z"/><path class="cls-2" d="M78.47,460.62V456.5a0.23,0.23,0,0,1,.22-0.24H81a0.23,0.23,0,0,1,.22.24,0.22,0.22,0,0,1-.22.23H78.91v1.59H80.5a0.23,0.23,0,0,1,0,.47H78.91v1.6H81a0.23,0.23,0,0,1,0,.47H78.69A0.23,0.23,0,0,1,78.47,460.62Z"/><path class="cls-2" d="M82.63,460.62V456.5a0.24,0.24,0,0,1,.22-0.24h1a1.39,1.39,0,0,1,1.36,1.41A1.42,1.42,0,0,1,84.3,459l1,1.49a0.22,0.22,0,0,1,0,.13,0.23,0.23,0,0,1-.22.24,0.21,0.21,0,0,1-.19-0.1l-1.16-1.67H83.08v1.54a0.23,0.23,0,0,1-.23.24A0.23,0.23,0,0,1,82.63,460.62Zm1.22-2a0.94,0.94,0,0,0,0-1.88H83.08v1.88h0.77Z"/><path class="cls-2" d="M87.8,460.7l-1.21-4.08a0.41,0.41,0,0,1,0-.12,0.22,0.22,0,0,1,.22-0.24,0.23,0.23,0,0,1,.22.17l1,3.39,1-3.39a0.23,0.23,0,0,1,.22-0.17,0.21,0.21,0,0,1,.23.22,0.6,0.6,0,0,1,0,.14l-1.21,4.08A0.22,0.22,0,0,1,87.8,460.7Z"/><path class="cls-2" d="M90.9,460.62V456.5a0.23,0.23,0,0,1,.22-0.24h2.27a0.23,0.23,0,0,1,.22.24,0.22,0.22,0,0,1-.22.23H91.34v1.59h1.59a0.23,0.23,0,0,1,0,.47H91.34v1.6h2.05a0.23,0.23,0,0,1,0,.47H91.11A0.22,0.22,0,0,1,90.9,460.62Z"/><path class="cls-2" d="M95,460.62V456.5a0.24,0.24,0,0,1,.22-0.24h1a1.39,1.39,0,0,1,1.36,1.41,1.42,1.42,0,0,1-.91,1.33l1,1.49a0.22,0.22,0,0,1,0,.13,0.23,0.23,0,0,1-.22.24,0.21,0.21,0,0,1-.19-0.1l-1.16-1.67H95.5v1.54a0.23,0.23,0,0,1-.23.24A0.23,0.23,0,0,1,95,460.62Zm1.22-2a0.94,0.94,0,0,0,0-1.88H95.5v1.88h0.77Z"/><path class="cls-2" d="M51.76,472.45v-6.61a0.37,0.37,0,0,1,.36-0.37,0.35,0.35,0,0,1,.33.21l1.71,3.62,1.71-3.62a0.35,0.35,0,0,1,.33-0.21,0.37,0.37,0,0,1,.36.37v6.61a0.36,0.36,0,0,1-.36.38,0.37,0.37,0,0,1-.37-0.38v-5l-1.34,2.85a0.36,0.36,0,0,1-.66,0l-1.34-2.85v5A0.36,0.36,0,1,1,51.76,472.45Z"/><path class="cls-2" d="M59.66,472.45a0.36,0.36,0,0,1,.36-0.37h1.2v-5.86H60a0.37,0.37,0,0,1-.36-0.38,0.36,0.36,0,0,1,.36-0.37h3.13a0.37,0.37,0,0,1,0,.75h-1.2v5.86h1.2a0.37,0.37,0,0,1,0,.75H60A0.37,0.37,0,0,1,59.66,472.45Z"/><path class="cls-2" d="M67,470.66v-3a2.08,2.08,0,1,1,4.16,0,0.36,0.36,0,0,1-.36.38,0.37,0.37,0,0,1-.36-0.38,1.36,1.36,0,1,0-2.73,0v3a1.36,1.36,0,1,0,2.73,0,0.36,0.36,0,1,1,.72,0A2.08,2.08,0,1,1,67,470.66Z"/><path class="cls-2" d="M74.43,472.45v-6.6a0.38,0.38,0,0,1,.36-0.38h1.6a2.23,2.23,0,0,1,2.18,2.26,2.27,2.27,0,0,1-1.45,2.13l1.64,2.38a0.35,0.35,0,0,1,.07.21,0.37,0.37,0,0,1-.36.38,0.33,0.33,0,0,1-.3-0.16L76.31,470H75.16v2.46a0.37,0.37,0,0,1-.37.38A0.37,0.37,0,0,1,74.43,472.45Zm2-3.21a1.5,1.5,0,0,0,0-3H75.16v3h1.23Z"/><path class="cls-2" d="M81.76,470.69v-3a2.09,2.09,0,1,1,4.18,0v3A2.09,2.09,0,1,1,81.76,470.69Zm3.45,0v-3a1.36,1.36,0,1,0-2.73,0v3A1.36,1.36,0,1,0,85.22,470.69Z"/></g><rect class="cls-5" x="114.49" y="441.26" width="90" height="45"/><g class="cls-6"><use id="New_Symbol-12" data-name="New Symbol" width="133.73" height="46.42" transform="translate(117.91 449.33) scale(0.62)" xlink:href="#New_Symbol"/></g><g class="cls-7"><path class="cls-2" d="M130.68,459.47a0.23,0.23,0,1,1,.45,0,0.89,0.89,0,0,0,.87.91,0.68,0.68,0,0,0,.74-0.62,0.58,0.58,0,0,0-.2-0.47l-1.24-1a1.16,1.16,0,0,1,.7-2,1.36,1.36,0,0,1,1,.46,0.92,0.92,0,0,1,.22.42,0.24,0.24,0,0,1-.22.24,0.27,0.27,0,0,1-.21-0.14,0.86,0.86,0,0,0-.78-0.51,0.67,0.67,0,0,0-.65.69,0.64,0.64,0,0,0,.24.51l1.24,1a1.05,1.05,0,0,1,.36.85,1.13,1.13,0,0,1-1.19,1.08A1.36,1.36,0,0,1,130.68,459.47Z"/><path class="cls-2" d="M134.78,459.49v-3a0.23,0.23,0,0,1,.22-0.24,0.23,0.23,0,0,1,.22.24v3a0.86,0.86,0,1,0,1.72,0v-3a0.23,0.23,0,0,1,.22-0.24,0.23,0.23,0,0,1,.22.24v3A1.31,1.31,0,1,1,134.78,459.49Z"/><path class="cls-2" d="M139,460.62V456.5a0.24,0.24,0,0,1,.22-0.24h1a1.41,1.41,0,0,1,0,2.82h-0.76v1.54a0.23,0.23,0,0,1-.23.24A0.23,0.23,0,0,1,139,460.62Zm1.22-2a0.94,0.94,0,0,0,0-1.88h-0.76v1.88h0.76Z"/><path class="cls-2" d="M143.15,460.62V456.5a0.24,0.24,0,0,1,.22-0.24h1a1.41,1.41,0,0,1,0,2.82H143.6v1.54a0.23,0.23,0,0,1-.23.24A0.23,0.23,0,0,1,143.15,460.62Zm1.22-2a0.94,0.94,0,0,0,0-1.88H143.6v1.88h0.76Z"/><path class="cls-2" d="M147.21,459.52v-1.9a1.31,1.31,0,1,1,2.61,0v1.9A1.31,1.31,0,1,1,147.21,459.52Zm2.16,0v-1.9a0.85,0.85,0,1,0-1.7,0v1.9A0.85,0.85,0,1,0,149.36,459.52Z"/><path class="cls-2" d="M151.4,460.62V456.5a0.24,0.24,0,0,1,.22-0.24h1a1.39,1.39,0,0,1,1.36,1.41,1.42,1.42,0,0,1-.91,1.33l1,1.49a0.22,0.22,0,0,1,0,.13,0.23,0.23,0,0,1-.22.24,0.21,0.21,0,0,1-.19-0.1l-1.16-1.67h-0.72v1.54a0.23,0.23,0,0,1-.23.24A0.23,0.23,0,0,1,151.4,460.62Zm1.22-2a0.94,0.94,0,0,0,0-1.88h-0.77v1.88h0.77Z"/><path class="cls-2" d="M156.57,460.62v-3.88h-1.27a0.24,0.24,0,0,1,0-.47h3a0.24,0.24,0,0,1,0,.47H157v3.88A0.23,0.23,0,1,1,156.57,460.62Z"/><path class="cls-2" d="M163.81,459.47a0.23,0.23,0,1,1,.45,0,0.89,0.89,0,0,0,.87.91,0.68,0.68,0,0,0,.74-0.62,0.58,0.58,0,0,0-.2-0.47l-1.24-1a1.16,1.16,0,0,1,.7-2,1.36,1.36,0,0,1,1,.46,0.92,0.92,0,0,1,.22.42,0.24,0.24,0,0,1-.22.24,0.27,0.27,0,0,1-.21-0.14,0.86,0.86,0,0,0-.78-0.51,0.67,0.67,0,0,0-.65.69,0.64,0.64,0,0,0,.24.51l1.24,1a1.05,1.05,0,0,1,.36.85,1.13,1.13,0,0,1-1.19,1.08A1.36,1.36,0,0,1,163.81,459.47Z"/><path class="cls-2" d="M168,460.62V456.5a0.23,0.23,0,0,1,.22-0.24h2.27a0.23,0.23,0,0,1,.22.24,0.22,0.22,0,0,1-.22.23H168.4v1.59H170a0.23,0.23,0,0,1,0,.47H168.4v1.6h2.05a0.23,0.23,0,0,1,0,.47h-2.27A0.23,0.23,0,0,1,168,460.62Z"/><path class="cls-2" d="M172.11,460.62V456.5a0.24,0.24,0,0,1,.22-0.24h1a1.39,1.39,0,0,1,1.36,1.41,1.42,1.42,0,0,1-.91,1.33l1,1.49a0.22,0.22,0,0,1,0,.13,0.23,0.23,0,0,1-.22.24,0.21,0.21,0,0,1-.19-0.1l-1.16-1.67h-0.72v1.54a0.23,0.23,0,0,1-.23.24A0.23,0.23,0,0,1,172.11,460.62Zm1.22-2a0.94,0.94,0,0,0,0-1.88h-0.77v1.88h0.77Z"/><path class="cls-2" d="M177.29,460.7l-1.21-4.08a0.41,0.41,0,0,1,0-.12,0.22,0.22,0,0,1,.22-0.24,0.23,0.23,0,0,1,.22.17l1,3.39,1-3.39a0.23,0.23,0,0,1,.22-0.17,0.21,0.21,0,0,1,.23.22,0.6,0.6,0,0,1,0,.14l-1.21,4.08A0.22,0.22,0,0,1,177.29,460.7Z"/><path class="cls-2" d="M180.38,460.62V456.5a0.23,0.23,0,0,1,.22-0.24h2.27a0.23,0.23,0,0,1,.22.24,0.22,0.22,0,0,1-.22.23h-2.05v1.59h1.59a0.23,0.23,0,0,1,0,.47h-1.59v1.6h2.05a0.23,0.23,0,0,1,0,.47H180.6A0.22,0.22,0,0,1,180.38,460.62Z"/><path class="cls-2" d="M184.54,460.62V456.5a0.24,0.24,0,0,1,.22-0.24h1a1.39,1.39,0,0,1,1.36,1.41,1.42,1.42,0,0,1-.91,1.33l1,1.49a0.22,0.22,0,0,1,0,.13,0.23,0.23,0,0,1-.22.24,0.21,0.21,0,0,1-.19-0.1l-1.16-1.67H185v1.54a0.23,0.23,0,0,1-.23.24A0.23,0.23,0,0,1,184.54,460.62Zm1.22-2a0.94,0.94,0,0,0,0-1.88H185v1.88h0.77Z"/><path class="cls-2" d="M134.23,472.45v-6.6a0.38,0.38,0,0,1,.36-0.38h1.6a2.23,2.23,0,0,1,2.18,2.26,2.27,2.27,0,0,1-1.45,2.13l1.64,2.38a0.35,0.35,0,0,1,.07.21,0.37,0.37,0,0,1-.36.38,0.33,0.33,0,0,1-.3-0.16L136.11,470H135v2.46a0.37,0.37,0,0,1-.37.38A0.37,0.37,0,0,1,134.23,472.45Zm2-3.21a1.5,1.5,0,0,0,0-3H135v3h1.23Z"/><path class="cls-2" d="M141.63,472.45v-6.6a0.37,0.37,0,0,1,.35-0.38h3.64a0.37,0.37,0,0,1,.35.39,0.36,0.36,0,0,1-.35.37h-3.28v2.55h2.55a0.37,0.37,0,0,1,0,.75h-2.55v2.56h3.28a0.37,0.37,0,0,1,0,.75H142A0.36,0.36,0,0,1,141.63,472.45Z"/><path class="cls-2" d="M149,470.62a0.36,0.36,0,1,1,.73,0,1.42,1.42,0,0,0,1.39,1.45,1.09,1.09,0,0,0,1.18-1,0.93,0.93,0,0,0-.32-0.75l-2-1.6a1.86,1.86,0,0,1,1.11-3.26,2.19,2.19,0,0,1,1.59.74,1.48,1.48,0,0,1,.35.68,0.39,0.39,0,0,1-.36.39,0.43,0.43,0,0,1-.33-0.23,1.38,1.38,0,0,0-1.25-.82,1.08,1.08,0,0,0-1,1.11,1,1,0,0,0,.39.82l2,1.6a1.68,1.68,0,0,1,.58,1.35,1.81,1.81,0,0,1-1.9,1.72A2.17,2.17,0,0,1,149,470.62Z"/><path class="cls-2" d="M158.13,472.45v-6.22h-2a0.38,0.38,0,0,1,0-.76h4.82a0.38,0.38,0,0,1,0,.76h-2v6.22A0.37,0.37,0,1,1,158.13,472.45Z"/><path class="cls-2" d="M164,472.45a0.36,0.36,0,0,1,.36-0.37h1.2v-5.86h-1.2a0.37,0.37,0,0,1-.36-0.38,0.36,0.36,0,0,1,.36-0.37h3.13a0.37,0.37,0,0,1,0,.75h-1.2v5.86h1.2a0.37,0.37,0,0,1,0,.75h-3.13A0.37,0.37,0,0,1,164,472.45Z"/><path class="cls-2" d="M171.62,472.45v-6.6a0.37,0.37,0,0,1,.35-0.38h3.44a0.38,0.38,0,0,1,.36.38,0.37,0.37,0,0,1-.36.38h-3.09v2.55h2.35a0.37,0.37,0,0,1,0,.75h-2.35v2.93a0.37,0.37,0,0,1-.36.38A0.36,0.36,0,0,1,171.62,472.45Z"/><path class="cls-2" d="M180.4,472.45v-3.21L178.78,466a0.49,0.49,0,0,1,0-.18,0.38,0.38,0,0,1,.36-0.38,0.33,0.33,0,0,1,.32.21l1.35,2.67,1.35-2.67a0.33,0.33,0,0,1,.32-0.21,0.38,0.38,0,0,1,.36.38,0.49,0.49,0,0,1,0,.18l-1.62,3.21v3.21A0.36,0.36,0,1,1,180.4,472.45Z"/></g><rect class="cls-5" x="25" y="401.26" width="90" height="45"/><g class="cls-6"><g id="_Group_" data-name="&lt;Group&gt;"><polygon class="cls-8" points="111.58 409.33 33.07 409.33 33.07 409.33 33.07 413.95 28.45 413.95 28.45 438.19 106.96 438.19 106.96 433.57 111.58 433.57 111.58 409.33 111.58 409.33"/><path class="cls-2" d="M33.07,414H28.45l4.62-4.62h0V414Z"/><polygon class="cls-2" points="106.96 433.57 111.58 433.57 106.96 438.19 106.96 433.57"/><polygon class="cls-2" points="111.58 409.33 109.09 409.33 109.09 409.33 109.09 411.81 111.58 411.81 111.58 409.33 111.58 409.33"/><polygon class="cls-2" points="29.68 438.19 29.68 436.95 28.42 436.95 28.42 436.95 28.42 438.19 28.42 438.19 29.68 438.19"/><polygon class="cls-2" points="37.7 438.19 38.06 437.57 37.7 436.95 29.68 436.95 29.68 438.19 37.7 438.19"/></g></g><g class="cls-7"><path class="cls-2" d="M37.05,419.47a0.23,0.23,0,1,1,.45,0,0.89,0.89,0,0,0,.87.91,0.68,0.68,0,0,0,.74-0.62,0.58,0.58,0,0,0-.2-0.47l-1.24-1a1.16,1.16,0,0,1,.7-2,1.36,1.36,0,0,1,1,.46,0.92,0.92,0,0,1,.22.42,0.24,0.24,0,0,1-.22.24,0.27,0.27,0,0,1-.21-0.14,0.86,0.86,0,0,0-.78-0.51,0.67,0.67,0,0,0-.65.69,0.64,0.64,0,0,0,.24.51l1.24,1a1.05,1.05,0,0,1,.36.85,1.13,1.13,0,0,1-1.19,1.08A1.36,1.36,0,0,1,37.05,419.47Z"/><path class="cls-2" d="M41.15,419.49v-3a0.23,0.23,0,0,1,.22-0.24,0.23,0.23,0,0,1,.22.24v3a0.86,0.86,0,1,0,1.72,0v-3a0.23,0.23,0,0,1,.22-0.24,0.23,0.23,0,0,1,.22.24v3A1.31,1.31,0,1,1,41.15,419.49Z"/><path class="cls-2" d="M45.38,420.62V416.5a0.24,0.24,0,0,1,.22-0.24h1a1.41,1.41,0,0,1,0,2.82H45.83v1.54a0.23,0.23,0,0,1-.23.24A0.23,0.23,0,0,1,45.38,420.62Zm1.22-2a0.94,0.94,0,0,0,0-1.88H45.83v1.88h0.76Z"/><path class="cls-2" d="M49.52,420.62V416.5a0.24,0.24,0,0,1,.22-0.24h1a1.41,1.41,0,0,1,0,2.82H50v1.54a0.23,0.23,0,0,1-.23.24A0.23,0.23,0,0,1,49.52,420.62Zm1.22-2a0.94,0.94,0,0,0,0-1.88H50v1.88h0.76Z"/><path class="cls-2" d="M53.58,419.52v-1.9a1.31,1.31,0,1,1,2.61,0v1.9A1.31,1.31,0,1,1,53.58,419.52Zm2.16,0v-1.9a0.85,0.85,0,1,0-1.7,0v1.9A0.85,0.85,0,1,0,55.73,419.52Z"/><path class="cls-2" d="M57.78,420.62V416.5a0.24,0.24,0,0,1,.22-0.24h1a1.39,1.39,0,0,1,1.36,1.41,1.42,1.42,0,0,1-.91,1.33l1,1.49a0.22,0.22,0,0,1,0,.13,0.23,0.23,0,0,1-.22.24,0.21,0.21,0,0,1-.19-0.1L59,419.08H58.23v1.54a0.23,0.23,0,0,1-.23.24A0.23,0.23,0,0,1,57.78,420.62Zm1.22-2a0.94,0.94,0,0,0,0-1.88H58.23v1.88H59Z"/><path class="cls-2" d="M62.94,420.62v-3.88H61.66a0.24,0.24,0,0,1,0-.47h3a0.24,0.24,0,0,1,0,.47H63.4v3.88A0.23,0.23,0,1,1,62.94,420.62Z"/><path class="cls-2" d="M70.23,420.62V416.5a0.24,0.24,0,0,1,.22-0.24h1a1.41,1.41,0,0,1,0,2.82H70.68v1.54a0.23,0.23,0,0,1-.23.24A0.23,0.23,0,0,1,70.23,420.62Zm1.22-2a0.94,0.94,0,0,0,0-1.88H70.68v1.88h0.76Z"/><path class="cls-2" d="M74.49,420.78a0.23,0.23,0,0,1-.07-0.17v-4.13a0.23,0.23,0,0,1,.07-0.16,0.22,0.22,0,0,1,.16-0.07,0.23,0.23,0,0,1,.16.07,0.23,0.23,0,0,1,.07.16v3.9h2a0.23,0.23,0,0,1,.22.23,0.23,0.23,0,0,1-.07.17,0.22,0.22,0,0,1-.16.07H74.65A0.22,0.22,0,0,1,74.49,420.78Z"/><path class="cls-2" d="M78,420.62l1.54-4.21a0.21,0.21,0,0,1,.21-0.14,0.21,0.21,0,0,1,.21.14l1.54,4.21a0.23,0.23,0,0,1-.44.09l-0.39-1H78.81l-0.39,1a0.22,0.22,0,0,1-.21.15A0.23,0.23,0,0,1,78,420.62Zm2.51-1.42-0.75-2-0.75,2h1.5Z"/><path class="cls-2" d="M83.64,420.62v-3.88H82.37a0.24,0.24,0,0,1,0-.47h3a0.24,0.24,0,0,1,0,.47H84.1v3.88A0.23,0.23,0,1,1,83.64,420.62Z"/><path class="cls-2" d="M86.94,420.62V416.5a0.23,0.23,0,0,1,.22-0.24h2.15a0.24,0.24,0,0,1,.22.24,0.23,0.23,0,0,1-.22.24H87.38v1.59h1.47a0.23,0.23,0,0,1,0,.47H87.38v1.83a0.23,0.23,0,0,1-.22.24A0.22,0.22,0,0,1,86.94,420.62Z"/><path class="cls-2" d="M90.85,419.52v-1.9a1.31,1.31,0,1,1,2.61,0v1.9A1.31,1.31,0,1,1,90.85,419.52Zm2.16,0v-1.9a0.85,0.85,0,1,0-1.7,0v1.9A0.85,0.85,0,1,0,93,419.52Z"/><path class="cls-2" d="M95,420.62V416.5a0.24,0.24,0,0,1,.22-0.24h1a1.39,1.39,0,0,1,1.36,1.41,1.42,1.42,0,0,1-.91,1.33l1,1.49a0.22,0.22,0,0,1,0,.13,0.23,0.23,0,0,1-.22.24,0.21,0.21,0,0,1-.19-0.1l-1.16-1.67H95.5v1.54a0.23,0.23,0,0,1-.23.24A0.23,0.23,0,0,1,95,420.62Zm1.22-2a0.94,0.94,0,0,0,0-1.88H95.5v1.88h0.77Z"/><path class="cls-2" d="M98.94,420.62v-4.13a0.23,0.23,0,0,1,.22-0.23,0.22,0.22,0,0,1,.21.13l1.07,2.26,1.07-2.26a0.21,0.21,0,0,1,.2-0.13,0.23,0.23,0,0,1,.22.23v4.13a0.23,0.23,0,0,1-.22.24,0.23,0.23,0,0,1-.23-0.24v-3.11l-0.84,1.78a0.23,0.23,0,0,1-.41,0l-0.84-1.78v3.11A0.23,0.23,0,1,1,98.94,420.62Z"/><path class="cls-2" d="M52.13,430.62a0.36,0.36,0,1,1,.73,0,1.42,1.42,0,0,0,1.39,1.45,1.09,1.09,0,0,0,1.18-1,0.93,0.93,0,0,0-.32-0.75l-2-1.6a1.86,1.86,0,0,1,1.11-3.26,2.19,2.19,0,0,1,1.59.74,1.48,1.48,0,0,1,.35.68,0.39,0.39,0,0,1-.36.39,0.43,0.43,0,0,1-.33-0.23,1.38,1.38,0,0,0-1.25-.82,1.08,1.08,0,0,0-1,1.11,1,1,0,0,0,.39.82l2,1.6a1.68,1.68,0,0,1,.58,1.35,1.81,1.81,0,0,1-1.9,1.72A2.17,2.17,0,0,1,52.13,430.62Z"/><path class="cls-2" d="M59.82,432.72a0.37,0.37,0,0,1-.11-0.27v-6.61a0.37,0.37,0,0,1,.11-0.26,0.35,0.35,0,0,1,.51,0,0.36,0.36,0,0,1,.11.26v6.24H63.7a0.37,0.37,0,0,1,.36.37,0.37,0.37,0,0,1-.11.27,0.35,0.35,0,0,1-.25.11H60.07A0.35,0.35,0,0,1,59.82,432.72Z"/><path class="cls-2" d="M66.2,432.45l2.47-6.75a0.34,0.34,0,0,1,.34-0.23,0.34,0.34,0,0,1,.34.23l2.47,6.75a0.36,0.36,0,0,1-.71.14l-0.62-1.66h-3l-0.62,1.66a0.36,0.36,0,0,1-.34.24A0.36,0.36,0,0,1,66.2,432.45Zm4-2.27L69,426.91l-1.2,3.26h2.41Z"/><path class="cls-2" d="M74.45,430.66v-3a2.08,2.08,0,1,1,4.16,0,0.36,0.36,0,0,1-.36.38,0.37,0.37,0,0,1-.36-0.38,1.36,1.36,0,1,0-2.73,0v3a1.36,1.36,0,1,0,2.73,0,0.36,0.36,0,1,1,.72,0A2.08,2.08,0,1,1,74.45,430.66Z"/><path class="cls-2" d="M81.92,432.45v-6.61a0.37,0.37,0,0,1,.36-0.37,0.37,0.37,0,0,1,.37.37v3.6l2.35-3.8a0.35,0.35,0,0,1,.31-0.17,0.37,0.37,0,0,1,.36.38,0.35,0.35,0,0,1-.06.19l-1.5,2.44,2.23,3.78a0.54,0.54,0,0,1,0,.21,0.36,0.36,0,0,1-.36.36,0.33,0.33,0,0,1-.31-0.18l-2.05-3.46-1,1.65v1.61A0.36,0.36,0,1,1,81.92,432.45Z"/></g><rect class="cls-5" x="205" y="401.26" width="90" height="45"/><g class="cls-6"><g id="_Group_2" data-name="&lt;Group&gt;"><polygon class="cls-8" points="291.58 409.33 213.07 409.33 213.07 409.33 213.07 413.95 208.44 413.95 208.44 438.19 286.95 438.19 286.95 433.57 291.58 433.57 291.58 409.33 291.58 409.33"/><path class="cls-2" d="M213.07,414h-4.62l4.62-4.62h0V414Z"/><polygon class="cls-2" points="286.95 433.57 291.58 433.57 286.95 438.19 286.95 433.57"/><polygon class="cls-2" points="291.58 409.33 289.09 409.33 289.09 409.33 289.09 411.81 291.58 411.81 291.58 409.33 291.58 409.33"/><polygon class="cls-2" points="209.68 438.19 209.68 436.95 208.42 436.95 208.42 436.95 208.42 438.19 208.42 438.19 209.68 438.19"/><polygon class="cls-2" points="217.7 438.19 218.06 437.57 217.7 436.95 209.68 436.95 209.68 438.19 217.7 438.19"/></g></g><g class="cls-7"><path class="cls-2" d="M217,419.47a0.23,0.23,0,1,1,.45,0,0.89,0.89,0,0,0,.87.91,0.68,0.68,0,0,0,.74-0.62,0.58,0.58,0,0,0-.2-0.47l-1.24-1a1.16,1.16,0,0,1,.7-2,1.36,1.36,0,0,1,1,.46,0.92,0.92,0,0,1,.22.42,0.24,0.24,0,0,1-.22.24,0.27,0.27,0,0,1-.21-0.14,0.86,0.86,0,0,0-.78-0.51,0.67,0.67,0,0,0-.65.69,0.64,0.64,0,0,0,.24.51l1.24,1a1.05,1.05,0,0,1,.36.85,1.13,1.13,0,0,1-1.19,1.08A1.36,1.36,0,0,1,217,419.47Z"/><path class="cls-2" d="M221.15,419.49v-3a0.23,0.23,0,0,1,.22-0.24,0.23,0.23,0,0,1,.22.24v3a0.86,0.86,0,1,0,1.72,0v-3a0.23,0.23,0,0,1,.22-0.24,0.23,0.23,0,0,1,.22.24v3A1.31,1.31,0,1,1,221.15,419.49Z"/><path class="cls-2" d="M225.37,420.62V416.5a0.24,0.24,0,0,1,.22-0.24h1a1.41,1.41,0,0,1,0,2.82h-0.76v1.54a0.23,0.23,0,0,1-.23.24A0.23,0.23,0,0,1,225.37,420.62Zm1.22-2a0.94,0.94,0,0,0,0-1.88h-0.76v1.88h0.76Z"/><path class="cls-2" d="M229.51,420.62V416.5a0.24,0.24,0,0,1,.22-0.24h1a1.41,1.41,0,0,1,0,2.82H230v1.54a0.23,0.23,0,0,1-.23.24A0.23,0.23,0,0,1,229.51,420.62Zm1.22-2a0.94,0.94,0,0,0,0-1.88H230v1.88h0.76Z"/><path class="cls-2" d="M233.57,419.52v-1.9a1.31,1.31,0,1,1,2.61,0v1.9A1.31,1.31,0,1,1,233.57,419.52Zm2.16,0v-1.9a0.85,0.85,0,1,0-1.7,0v1.9A0.85,0.85,0,1,0,235.73,419.52Z"/><path class="cls-2" d="M237.77,420.62V416.5a0.24,0.24,0,0,1,.22-0.24h1a1.39,1.39,0,0,1,1.36,1.41,1.42,1.42,0,0,1-.91,1.33l1,1.49a0.22,0.22,0,0,1,0,.13,0.23,0.23,0,0,1-.22.24,0.21,0.21,0,0,1-.19-0.1l-1.16-1.67h-0.72v1.54a0.23,0.23,0,0,1-.23.24A0.23,0.23,0,0,1,237.77,420.62Zm1.22-2a0.94,0.94,0,0,0,0-1.88h-0.77v1.88H239Z"/><path class="cls-2" d="M242.93,420.62v-3.88h-1.27a0.24,0.24,0,0,1,0-.47h3a0.24,0.24,0,0,1,0,.47h-1.27v3.88A0.23,0.23,0,1,1,242.93,420.62Z"/><path class="cls-2" d="M250.22,420.62V416.5a0.24,0.24,0,0,1,.22-0.24h1a1.41,1.41,0,0,1,0,2.82h-0.76v1.54a0.23,0.23,0,0,1-.23.24A0.23,0.23,0,0,1,250.22,420.62Zm1.22-2a0.94,0.94,0,0,0,0-1.88h-0.76v1.88h0.76Z"/><path class="cls-2" d="M254.49,420.78a0.23,0.23,0,0,1-.07-0.17v-4.13a0.23,0.23,0,0,1,.07-0.16,0.22,0.22,0,0,1,.16-0.07,0.23,0.23,0,0,1,.16.07,0.23,0.23,0,0,1,.07.16v3.9h2a0.23,0.23,0,0,1,.22.23,0.23,0.23,0,0,1-.07.17,0.22,0.22,0,0,1-.16.07h-2.26A0.22,0.22,0,0,1,254.49,420.78Z"/><path class="cls-2" d="M258,420.62l1.54-4.21a0.21,0.21,0,0,1,.21-0.14,0.21,0.21,0,0,1,.21.14l1.54,4.21a0.23,0.23,0,0,1-.44.09l-0.39-1H258.8l-0.39,1a0.22,0.22,0,0,1-.21.15A0.23,0.23,0,0,1,258,420.62Zm2.51-1.42-0.75-2-0.75,2h1.5Z"/><path class="cls-2" d="M263.64,420.62v-3.88h-1.27a0.24,0.24,0,0,1,0-.47h3a0.24,0.24,0,0,1,0,.47H264.1v3.88A0.23,0.23,0,1,1,263.64,420.62Z"/><path class="cls-2" d="M266.94,420.62V416.5a0.23,0.23,0,0,1,.22-0.24h2.15a0.24,0.24,0,0,1,.22.24,0.23,0.23,0,0,1-.22.24h-1.93v1.59h1.47a0.23,0.23,0,0,1,0,.47h-1.47v1.83a0.23,0.23,0,0,1-.22.24A0.22,0.22,0,0,1,266.94,420.62Z"/><path class="cls-2" d="M270.85,419.52v-1.9a1.31,1.31,0,1,1,2.61,0v1.9A1.31,1.31,0,1,1,270.85,419.52Zm2.16,0v-1.9a0.85,0.85,0,1,0-1.7,0v1.9A0.85,0.85,0,1,0,273,419.52Z"/><path class="cls-2" d="M275,420.62V416.5a0.24,0.24,0,0,1,.22-0.24h1a1.39,1.39,0,0,1,1.36,1.41,1.42,1.42,0,0,1-.91,1.33l1,1.49a0.22,0.22,0,0,1,0,.13,0.23,0.23,0,0,1-.22.24,0.21,0.21,0,0,1-.19-0.1l-1.16-1.67H275.5v1.54a0.23,0.23,0,0,1-.23.24A0.23,0.23,0,0,1,275,420.62Zm1.22-2a0.94,0.94,0,0,0,0-1.88H275.5v1.88h0.77Z"/><path class="cls-2" d="M278.94,420.62v-4.13a0.23,0.23,0,0,1,.22-0.23,0.22,0.22,0,0,1,.21.13l1.07,2.26,1.07-2.26a0.21,0.21,0,0,1,.2-0.13,0.23,0.23,0,0,1,.22.23v4.13a0.23,0.23,0,0,1-.22.24,0.23,0.23,0,0,1-.23-0.24v-3.11l-0.84,1.78a0.23,0.23,0,0,1-.41,0l-0.84-1.78v3.11A0.23,0.23,0,1,1,278.94,420.62Z"/><path class="cls-2" d="M222.66,432.45v-6.22h-2a0.38,0.38,0,0,1,0-.76h4.82a0.38,0.38,0,0,1,0,.76h-2v6.22A0.37,0.37,0,1,1,222.66,432.45Z"/><path class="cls-2" d="M228.43,432.45v-6.6a0.37,0.37,0,0,1,.35-0.38h3.64a0.37,0.37,0,0,1,.35.39,0.36,0.36,0,0,1-.35.37h-3.28v2.55h2.55a0.37,0.37,0,0,1,0,.75h-2.55v2.56h3.28a0.37,0.37,0,0,1,0,.75h-3.64A0.36,0.36,0,0,1,228.43,432.45Z"/><path class="cls-2" d="M236.11,432.72a0.37,0.37,0,0,1-.11-0.27v-6.61a0.37,0.37,0,0,1,.11-0.26,0.35,0.35,0,0,1,.51,0,0.36,0.36,0,0,1,.11.26v6.24H240a0.37,0.37,0,0,1,.36.37,0.37,0.37,0,0,1-.11.27,0.35,0.35,0,0,1-.25.11h-3.62A0.35,0.35,0,0,1,236.11,432.72Z"/><path class="cls-2" d="M243.27,432.45v-6.6a0.37,0.37,0,0,1,.35-0.38h3.64a0.37,0.37,0,0,1,.35.39,0.36,0.36,0,0,1-.35.37H244v2.55h2.55a0.37,0.37,0,0,1,0,.75H244v2.56h3.28a0.37,0.37,0,0,1,0,.75h-3.64A0.36,0.36,0,0,1,243.27,432.45Z"/><path class="cls-2" d="M250.64,430.66v-3a2.13,2.13,0,0,1,2.08-2.17,2,2,0,0,1,2.08,2.07,0.36,0.36,0,0,1-.36.38,0.37,0.37,0,0,1-.36-0.38,1.32,1.32,0,0,0-1.36-1.31,1.4,1.4,0,0,0-1.36,1.41v3a1.36,1.36,0,1,0,2.73,0v-0.74h-1.16a0.37,0.37,0,0,1-.36-0.37,0.37,0.37,0,0,1,.36-0.38h1.52a0.37,0.37,0,0,1,.36.38v1.11A2.08,2.08,0,1,1,250.64,430.66Z"/><path class="cls-2" d="M258.14,432.45v-6.6a0.38,0.38,0,0,1,.36-0.38h1.6a2.23,2.23,0,0,1,2.18,2.26,2.27,2.27,0,0,1-1.45,2.13l1.64,2.38a0.35,0.35,0,0,1,.07.21,0.37,0.37,0,0,1-.36.38,0.33,0.33,0,0,1-.3-0.16L260,430h-1.15v2.46a0.37,0.37,0,0,1-.37.38A0.37,0.37,0,0,1,258.14,432.45Zm2-3.21a1.5,1.5,0,0,0,0-3h-1.23v3h1.23Z"/><path class="cls-2" d="M264.75,432.45l2.47-6.75a0.34,0.34,0,0,1,.34-0.23,0.34,0.34,0,0,1,.34.23l2.47,6.75a0.36,0.36,0,0,1-.71.14L269,430.93h-3l-0.62,1.66a0.36,0.36,0,0,1-.34.24A0.36,0.36,0,0,1,264.75,432.45Zm4-2.27-1.2-3.26-1.2,3.26h2.41Z"/><path class="cls-2" d="M272.58,432.45v-6.61a0.37,0.37,0,0,1,.36-0.37,0.35,0.35,0,0,1,.33.21L275,429.3l1.71-3.62a0.35,0.35,0,0,1,.33-0.21,0.37,0.37,0,0,1,.36.37v6.61a0.36,0.36,0,0,1-.36.38,0.37,0.37,0,0,1-.37-0.38v-5l-1.34,2.85a0.36,0.36,0,0,1-.66,0l-1.34-2.85v5A0.36,0.36,0,1,1,272.58,432.45Z"/></g><g class="cls-9"><path class="cls-2" d="M218.86,145a124.24,124.24,0,0,0-117.69,0l-0.24-.45a124.76,124.76,0,0,1,118.18,0Z"/><path class="cls-2" d="M160,378.79A123.21,123.21,0,0,1,102.9,365l0.24-.46a124.26,124.26,0,0,0,113.76,0l0.24,0.46A123.21,123.21,0,0,1,160,378.79Z"/><path class="cls-2" d="M269.49,313.95a0.77,0.77,0,0,1-.68-1.14,123.74,123.74,0,0,0,14.76-58.6,122.19,122.19,0,0,0-13.73-56.65,0.77,0.77,0,0,1,1.37-.71,123.72,123.72,0,0,1,13.9,57.35,125.3,125.3,0,0,1-14.94,59.34A0.77,0.77,0,0,1,269.49,313.95Z"/><path class="cls-2" d="M50.54,313.95a0.77,0.77,0,0,1-.68-0.41,125.3,125.3,0,0,1-14.94-59.34,123.72,123.72,0,0,1,13.9-57.35,0.77,0.77,0,1,1,1.37.71,122.19,122.19,0,0,0-13.73,56.65,123.75,123.75,0,0,0,14.76,58.6A0.77,0.77,0,0,1,50.54,313.95Z"/><path class="cls-2" d="M219,145a0.26,0.26,0,0,1-.12,0,124.24,124.24,0,0,0-117.69,0,0.26,0.26,0,0,1-.24-0.45,124.76,124.76,0,0,1,118.18,0A0.26,0.26,0,0,1,219,145Z"/><path class="cls-2" d="M160,378.79A123.21,123.21,0,0,1,102.9,365a0.26,0.26,0,0,1,.24-0.46,124.26,124.26,0,0,0,113.76,0,0.26,0.26,0,1,1,.24.46A123.21,123.21,0,0,1,160,378.79Z"/><path class="cls-2" d="M269.81,314.22l-1.36-.73,0.37-.68a123.74,123.74,0,0,0,14.76-58.6,122.19,122.19,0,0,0-13.73-56.65l-0.35-.69,1.37-.71,0.36,0.69a123.72,123.72,0,0,1,13.9,57.35,125.3,125.3,0,0,1-14.94,59.34Z"/><path class="cls-2" d="M50.22,314.22l-0.37-.68a125.3,125.3,0,0,1-14.94-59.34,123.72,123.72,0,0,1,13.9-57.35l0.35-.69,1.37,0.71-0.35.69a122.19,122.19,0,0,0-13.73,56.65,123.75,123.75,0,0,0,14.76,58.6l0.37,0.68Z"/><path class="cls-2" d="M160,373.72a118.81,118.81,0,1,1,46.39-9.37A118.43,118.43,0,0,1,160,373.72Zm0-238.11A118.55,118.55,0,1,0,206.31,145,118.19,118.19,0,0,0,160,135.61Z"/></g><polygon class="cls-2" points="160.02 123.76 157.88 120.07 162.15 120.07 160.02 123.76"/><polygon class="cls-2" points="160.02 384.24 162.15 387.93 157.88 387.93 160.02 384.24"/><polygon class="cls-2" points="160.02 123.76 157.92 120.07 162.11 120.07 160.02 123.76"/><polygon class="cls-2" points="160.02 384.24 162.11 387.93 157.92 387.93 160.02 384.24"/><polygon class="cls-2" points="288.24 254 291.87 251.87 291.87 256.13 288.24 254"/><polygon class="cls-2" points="31.76 254 28.13 256.13 28.13 251.87 31.76 254"/><rect class="cls-5" x="25" y="17.5" width="90" height="45"/><g class="cls-6"><use id="New_Symbol-15" data-name="New Symbol" width="133.73" height="46.42" transform="translate(28.42 25.57) scale(0.62 0.62)" xlink:href="#New_Symbol"/></g><path class="cls-2" d="M49.23,48.69V42.08a0.37,0.37,0,0,1,.36-0.37,0.34,0.34,0,0,1,.33.21l1.71,3.62,1.71-3.62a0.34,0.34,0,0,1,.33-0.21,0.37,0.37,0,0,1,.36.37v6.61a0.36,0.36,0,0,1-.36.38,0.37,0.37,0,0,1-.37-0.38v-5L52,46.56a0.36,0.36,0,0,1-.66,0L50,43.71v5A0.36,0.36,0,1,1,49.23,48.69Z"/><path class="cls-2" d="M57,48.69v-6.6a0.37,0.37,0,0,1,.35-0.38H61a0.37,0.37,0,0,1,.35.39,0.36,0.36,0,0,1-.35.37H57.74V45h2.55a0.37,0.37,0,0,1,0,.75H57.74v2.56H61a0.37,0.37,0,0,1,0,.75H57.38A0.36,0.36,0,0,1,57,48.69Z"/><path class="cls-2" d="M64.08,48.69V42.08a0.37,0.37,0,0,1,.36-0.37,0.34,0.34,0,0,1,.33.21l1.71,3.62,1.71-3.62a0.34,0.34,0,0,1,.33-0.21,0.37,0.37,0,0,1,.36.37v6.61a0.36,0.36,0,0,1-.36.38,0.37,0.37,0,0,1-.37-0.38v-5L66.8,46.56a0.36,0.36,0,0,1-.66,0L64.8,43.71v5A0.36,0.36,0,1,1,64.08,48.69Z"/><path class="cls-2" d="M71.81,46.93v-3a2.09,2.09,0,1,1,4.18,0v3A2.09,2.09,0,1,1,71.81,46.93Zm3.45,0v-3a1.36,1.36,0,1,0-2.73,0v3A1.36,1.36,0,1,0,75.26,46.93Z"/><path class="cls-2" d="M79.32,48.69v-6.6a0.38,0.38,0,0,1,.36-0.38h1.6A2.23,2.23,0,0,1,83.46,44,2.27,2.27,0,0,1,82,46.1l1.64,2.38a0.35,0.35,0,0,1,.07.21,0.37,0.37,0,0,1-.36.38,0.33,0.33,0,0,1-.3-0.16L81.2,46.23H80v2.46a0.37,0.37,0,0,1-.37.38A0.37,0.37,0,0,1,79.32,48.69Zm2-3.21a1.5,1.5,0,0,0,0-3H80v3h1.23Z"/><path class="cls-2" d="M88.38,48.69v-3.2l-1.62-3.22a0.49,0.49,0,0,1,0-.18,0.38,0.38,0,0,1,.36-0.38,0.33,0.33,0,0,1,.32.21l1.35,2.67,1.35-2.67a0.33,0.33,0,0,1,.32-0.21,0.38,0.38,0,0,1,.36.38,0.49,0.49,0,0,1,0,.18L89.1,45.48v3.2A0.36,0.36,0,1,1,88.38,48.69Z"/><g class="cls-7"><path class="cls-2" d="M39.12,35.71a0.23,0.23,0,1,1,.45,0,0.89,0.89,0,0,0,.87.91A0.68,0.68,0,0,0,41.18,36a0.58,0.58,0,0,0-.2-0.47l-1.24-1a1.16,1.16,0,0,1,.7-2,1.36,1.36,0,0,1,1,.46,0.92,0.92,0,0,1,.22.42,0.24,0.24,0,0,1-.22.24,0.27,0.27,0,0,1-.21-0.14A0.86,0.86,0,0,0,40.44,33a0.67,0.67,0,0,0-.65.69,0.64,0.64,0,0,0,.24.51l1.24,1a1.05,1.05,0,0,1,.36.85,1.13,1.13,0,0,1-1.19,1.08A1.36,1.36,0,0,1,39.12,35.71Z"/><path class="cls-2" d="M43.22,35.73v-3a0.23,0.23,0,0,1,.22-0.24,0.23,0.23,0,0,1,.22.24v3a0.86,0.86,0,1,0,1.72,0v-3a0.23,0.23,0,0,1,.22-0.24,0.23,0.23,0,0,1,.22.24v3A1.31,1.31,0,1,1,43.22,35.73Z"/><path class="cls-2" d="M47.45,36.86V32.73a0.24,0.24,0,0,1,.22-0.24h1a1.41,1.41,0,0,1,0,2.82H47.9v1.54a0.23,0.23,0,0,1-.23.24A0.23,0.23,0,0,1,47.45,36.86Zm1.22-2a0.94,0.94,0,0,0,0-1.88H47.9v1.88h0.76Z"/><path class="cls-2" d="M51.59,36.86V32.73a0.24,0.24,0,0,1,.22-0.24h1a1.41,1.41,0,0,1,0,2.82H52v1.54a0.23,0.23,0,0,1-.23.24A0.23,0.23,0,0,1,51.59,36.86Zm1.22-2a0.94,0.94,0,0,0,0-1.88H52v1.88h0.76Z"/><path class="cls-2" d="M55.65,35.75v-1.9a1.31,1.31,0,1,1,2.61,0v1.9A1.31,1.31,0,1,1,55.65,35.75Zm2.16,0v-1.9a0.85,0.85,0,1,0-1.7,0v1.9A0.85,0.85,0,1,0,57.81,35.75Z"/><path class="cls-2" d="M59.85,36.86V32.73a0.24,0.24,0,0,1,.22-0.24h1a1.39,1.39,0,0,1,1.36,1.41,1.42,1.42,0,0,1-.91,1.33l1,1.49a0.22,0.22,0,0,1,0,.13,0.23,0.23,0,0,1-.22.24,0.21,0.21,0,0,1-.19-0.1L61,35.32H60.3v1.54a0.23,0.23,0,0,1-.23.24A0.23,0.23,0,0,1,59.85,36.86Zm1.22-2a0.94,0.94,0,0,0,0-1.88H60.3v1.88h0.77Z"/><path class="cls-2" d="M65,36.86V33H63.73a0.24,0.24,0,0,1,0-.47h3a0.24,0.24,0,0,1,0,.47H65.47v3.88A0.23,0.23,0,1,1,65,36.86Z"/><path class="cls-2" d="M72.25,35.71a0.23,0.23,0,1,1,.45,0,0.89,0.89,0,0,0,.87.91A0.68,0.68,0,0,0,74.32,36a0.58,0.58,0,0,0-.2-0.47l-1.24-1a1.16,1.16,0,0,1,.7-2,1.36,1.36,0,0,1,1,.46,0.92,0.92,0,0,1,.22.42,0.24,0.24,0,0,1-.22.24,0.27,0.27,0,0,1-.21-0.14A0.86,0.86,0,0,0,73.58,33a0.67,0.67,0,0,0-.65.69,0.64,0.64,0,0,0,.24.51l1.24,1a1.05,1.05,0,0,1,.36.85,1.13,1.13,0,0,1-1.19,1.08A1.36,1.36,0,0,1,72.25,35.71Z"/><path class="cls-2" d="M76.4,36.86V32.73a0.23,0.23,0,0,1,.22-0.24h2.27a0.23,0.23,0,0,1,.22.24,0.22,0.22,0,0,1-.22.23H76.84v1.59h1.59a0.23,0.23,0,0,1,0,.47H76.84v1.6h2.05a0.23,0.23,0,0,1,0,.47H76.62A0.22,0.22,0,0,1,76.4,36.86Z"/><path class="cls-2" d="M80.54,35.71a0.23,0.23,0,1,1,.45,0,0.89,0.89,0,0,0,.87.91A0.68,0.68,0,0,0,82.6,36a0.58,0.58,0,0,0-.2-0.47l-1.24-1a1.16,1.16,0,0,1,.7-2,1.36,1.36,0,0,1,1,.46,0.92,0.92,0,0,1,.22.42,0.24,0.24,0,0,1-.22.24,0.27,0.27,0,0,1-.21-0.14A0.86,0.86,0,0,0,81.86,33a0.67,0.67,0,0,0-.65.69,0.64,0.64,0,0,0,.24.51l1.24,1A1.05,1.05,0,0,1,83,36a1.13,1.13,0,0,1-1.19,1.08A1.36,1.36,0,0,1,80.54,35.71Z"/><path class="cls-2" d="M84.68,35.71a0.23,0.23,0,1,1,.45,0,0.89,0.89,0,0,0,.87.91A0.68,0.68,0,0,0,86.74,36a0.58,0.58,0,0,0-.2-0.47l-1.24-1a1.16,1.16,0,0,1,.7-2A1.36,1.36,0,0,1,87,33a0.92,0.92,0,0,1,.22.42,0.24,0.24,0,0,1-.22.24,0.27,0.27,0,0,1-.21-0.14A0.86,0.86,0,0,0,86,33a0.67,0.67,0,0,0-.65.69,0.64,0.64,0,0,0,.24.51l1.24,1a1.05,1.05,0,0,1,.36.85A1.13,1.13,0,0,1,86,37.09,1.36,1.36,0,0,1,84.68,35.71Z"/><path class="cls-2" d="M88.89,36.86a0.22,0.22,0,0,1,.22-0.23h0.75V33H89.11a0.23,0.23,0,0,1-.22-0.24,0.22,0.22,0,0,1,.22-0.23h2a0.23,0.23,0,0,1,0,.47H90.31v3.66h0.75a0.23,0.23,0,0,1,0,.47h-2A0.23,0.23,0,0,1,88.89,36.86Z"/><path class="cls-2" d="M92.92,35.75v-1.9a1.31,1.31,0,1,1,2.61,0v1.9A1.31,1.31,0,1,1,92.92,35.75Zm2.16,0v-1.9a0.85,0.85,0,1,0-1.7,0v1.9A0.85,0.85,0,1,0,95.08,35.75Z"/><path class="cls-2" d="M97,36.86V32.73a0.23,0.23,0,0,1,.22-0.23,0.2,0.2,0,0,1,.19.12L99.28,36V32.73a0.23,0.23,0,0,1,.22-0.23,0.23,0.23,0,0,1,.22.23v4.13a0.23,0.23,0,0,1-.22.24A0.19,0.19,0,0,1,99.31,37l-1.85-3.36v3.24A0.22,0.22,0,1,1,97,36.86Z"/></g><rect class="cls-5" x="115" y="17.5" width="90" height="45"/><g class="cls-6"><use id="New_Symbol-18" data-name="New Symbol" width="133.73" height="46.42" transform="translate(118.42 25.57) scale(0.62)" xlink:href="#New_Symbol"/></g><g class="cls-7"><path class="cls-2" d="M129.12,35.71a0.23,0.23,0,1,1,.45,0,0.89,0.89,0,0,0,.87.91,0.68,0.68,0,0,0,.74-0.62,0.58,0.58,0,0,0-.2-0.47l-1.24-1a1.16,1.16,0,0,1,.7-2,1.36,1.36,0,0,1,1,.46,0.92,0.92,0,0,1,.22.42,0.24,0.24,0,0,1-.22.24,0.27,0.27,0,0,1-.21-0.14,0.86,0.86,0,0,0-.78-0.51,0.67,0.67,0,0,0-.65.69,0.64,0.64,0,0,0,.24.51l1.24,1a1.05,1.05,0,0,1,.36.85,1.13,1.13,0,0,1-1.19,1.08A1.36,1.36,0,0,1,129.12,35.71Z"/><path class="cls-2" d="M133.22,35.73v-3a0.23,0.23,0,0,1,.22-0.24,0.23,0.23,0,0,1,.22.24v3a0.86,0.86,0,1,0,1.72,0v-3a0.23,0.23,0,0,1,.22-0.24,0.23,0.23,0,0,1,.22.24v3A1.31,1.31,0,1,1,133.22,35.73Z"/><path class="cls-2" d="M137.45,36.86V32.73a0.24,0.24,0,0,1,.22-0.24h1a1.41,1.41,0,0,1,0,2.82H137.9v1.54a0.23,0.23,0,0,1-.23.24A0.23,0.23,0,0,1,137.45,36.86Zm1.22-2a0.94,0.94,0,0,0,0-1.88H137.9v1.88h0.76Z"/><path class="cls-2" d="M141.59,36.86V32.73a0.24,0.24,0,0,1,.22-0.24h1a1.41,1.41,0,0,1,0,2.82H142v1.54a0.23,0.23,0,0,1-.23.24A0.23,0.23,0,0,1,141.59,36.86Zm1.22-2a0.94,0.94,0,0,0,0-1.88H142v1.88h0.76Z"/><path class="cls-2" d="M145.65,35.75v-1.9a1.31,1.31,0,1,1,2.61,0v1.9A1.31,1.31,0,1,1,145.65,35.75Zm2.16,0v-1.9a0.85,0.85,0,1,0-1.7,0v1.9A0.85,0.85,0,1,0,147.8,35.75Z"/><path class="cls-2" d="M149.84,36.86V32.73a0.24,0.24,0,0,1,.22-0.24h1a1.39,1.39,0,0,1,1.36,1.41,1.42,1.42,0,0,1-.91,1.33l1,1.49a0.22,0.22,0,0,1,0,.13,0.23,0.23,0,0,1-.22.24,0.21,0.21,0,0,1-.19-0.1L151,35.32H150.3v1.54a0.23,0.23,0,0,1-.23.24A0.23,0.23,0,0,1,149.84,36.86Zm1.22-2a0.94,0.94,0,0,0,0-1.88H150.3v1.88h0.77Z"/><path class="cls-2" d="M155,36.86V33h-1.27a0.24,0.24,0,0,1,0-.47h3a0.24,0.24,0,0,1,0,.47h-1.27v3.88A0.23,0.23,0,1,1,155,36.86Z"/><path class="cls-2" d="M162.25,35.71a0.23,0.23,0,1,1,.45,0,0.89,0.89,0,0,0,.87.91,0.68,0.68,0,0,0,.74-0.62,0.58,0.58,0,0,0-.2-0.47l-1.24-1a1.16,1.16,0,0,1,.7-2,1.36,1.36,0,0,1,1,.46,0.92,0.92,0,0,1,.22.42,0.24,0.24,0,0,1-.22.24,0.27,0.27,0,0,1-.21-0.14,0.86,0.86,0,0,0-.78-0.51,0.67,0.67,0,0,0-.65.69,0.64,0.64,0,0,0,.24.51l1.24,1a1.05,1.05,0,0,1,.36.85,1.13,1.13,0,0,1-1.19,1.08A1.36,1.36,0,0,1,162.25,35.71Z"/><path class="cls-2" d="M166.4,36.86V32.73a0.23,0.23,0,0,1,.22-0.24h2.27a0.23,0.23,0,0,1,.22.24,0.22,0.22,0,0,1-.22.23h-2.05v1.59h1.59a0.23,0.23,0,0,1,0,.47h-1.59v1.6h2.05a0.23,0.23,0,0,1,0,.47h-2.27A0.22,0.22,0,0,1,166.4,36.86Z"/><path class="cls-2" d="M170.53,35.71a0.23,0.23,0,1,1,.45,0,0.89,0.89,0,0,0,.87.91A0.68,0.68,0,0,0,172.6,36a0.58,0.58,0,0,0-.2-0.47l-1.24-1a1.16,1.16,0,0,1,.7-2,1.36,1.36,0,0,1,1,.46,0.92,0.92,0,0,1,.22.42,0.24,0.24,0,0,1-.22.24,0.27,0.27,0,0,1-.21-0.14,0.86,0.86,0,0,0-.78-0.51,0.67,0.67,0,0,0-.65.69,0.64,0.64,0,0,0,.24.51l1.24,1A1.05,1.05,0,0,1,173,36a1.13,1.13,0,0,1-1.19,1.08A1.36,1.36,0,0,1,170.53,35.71Z"/><path class="cls-2" d="M174.68,35.71a0.23,0.23,0,1,1,.45,0,0.89,0.89,0,0,0,.87.91,0.68,0.68,0,0,0,.74-0.62,0.58,0.58,0,0,0-.2-0.47l-1.24-1a1.16,1.16,0,0,1,.7-2,1.36,1.36,0,0,1,1,.46,0.92,0.92,0,0,1,.22.42,0.24,0.24,0,0,1-.22.24,0.27,0.27,0,0,1-.21-0.14A0.86,0.86,0,0,0,176,33a0.67,0.67,0,0,0-.65.69,0.64,0.64,0,0,0,.24.51l1.24,1a1.05,1.05,0,0,1,.36.85A1.13,1.13,0,0,1,176,37.09,1.36,1.36,0,0,1,174.68,35.71Z"/><path class="cls-2" d="M178.89,36.86a0.22,0.22,0,0,1,.22-0.23h0.75V33h-0.75a0.23,0.23,0,0,1-.22-0.24,0.22,0.22,0,0,1,.22-0.23h2a0.23,0.23,0,0,1,0,.47h-0.75v3.66h0.75a0.23,0.23,0,0,1,0,.47h-2A0.23,0.23,0,0,1,178.89,36.86Z"/><path class="cls-2" d="M182.92,35.75v-1.9a1.31,1.31,0,1,1,2.61,0v1.9A1.31,1.31,0,1,1,182.92,35.75Zm2.16,0v-1.9a0.85,0.85,0,1,0-1.7,0v1.9A0.85,0.85,0,1,0,185.08,35.75Z"/><path class="cls-2" d="M187,36.86V32.73a0.23,0.23,0,0,1,.22-0.23,0.2,0.2,0,0,1,.19.12L189.28,36V32.73a0.23,0.23,0,0,1,.22-0.23,0.23,0.23,0,0,1,.22.23v4.13a0.23,0.23,0,0,1-.22.24,0.19,0.19,0,0,1-.19-0.12l-1.85-3.36v3.24A0.22,0.22,0,1,1,187,36.86Z"/><path class="cls-2" d="M146.15,48.69v-6.6a0.37,0.37,0,0,1,.35-0.38h3.44a0.38,0.38,0,0,1,.36.38,0.37,0.37,0,0,1-.36.38h-3.09V45h2.35a0.37,0.37,0,0,1,0,.75h-2.35v2.93a0.37,0.37,0,0,1-.36.38A0.36,0.36,0,0,1,146.15,48.69Z"/><path class="cls-2" d="M153.37,48.69a0.36,0.36,0,0,1,.36-0.37h1.2V42.46h-1.2a0.37,0.37,0,0,1-.36-0.38,0.36,0.36,0,0,1,.36-0.37h3.13a0.37,0.37,0,0,1,0,.75h-1.2v5.86h1.2a0.37,0.37,0,0,1,0,.75h-3.13A0.37,0.37,0,0,1,153.37,48.69Z"/><path class="cls-2" d="M161,49a0.37,0.37,0,0,1-.11-0.27V42.08a0.36,0.36,0,0,1,.11-0.26,0.35,0.35,0,0,1,.51,0,0.36,0.36,0,0,1,.11.26v6.24h3.25a0.37,0.37,0,0,1,.36.37,0.37,0.37,0,0,1-.11.27,0.36,0.36,0,0,1-.25.11h-3.62A0.36,0.36,0,0,1,161,49Z"/><path class="cls-2" d="M168.12,48.69v-6.6a0.37,0.37,0,0,1,.35-0.38h3.64a0.37,0.37,0,0,1,.35.39,0.36,0.36,0,0,1-.35.37h-3.28V45h2.55a0.37,0.37,0,0,1,0,.75h-2.55v2.56h3.28a0.37,0.37,0,0,1,0,.75h-3.64A0.36,0.36,0,0,1,168.12,48.69Z"/></g><rect class="cls-5" x="205" y="17.5" width="90" height="45"/><g class="cls-6"><use id="New_Symbol-21" data-name="New Symbol" width="133.73" height="46.42" transform="translate(208.42 25.57) scale(0.62)" xlink:href="#New_Symbol"/></g><g class="cls-7"><path class="cls-2" d="M219.12,35.71a0.23,0.23,0,1,1,.45,0,0.89,0.89,0,0,0,.87.91,0.68,0.68,0,0,0,.74-0.62,0.58,0.58,0,0,0-.2-0.47l-1.24-1a1.16,1.16,0,0,1,.7-2,1.36,1.36,0,0,1,1,.46,0.93,0.93,0,0,1,.22.42,0.24,0.24,0,0,1-.22.24,0.27,0.27,0,0,1-.21-0.14,0.86,0.86,0,0,0-.78-0.51,0.67,0.67,0,0,0-.65.69,0.64,0.64,0,0,0,.24.51l1.24,1a1.05,1.05,0,0,1,.36.85,1.13,1.13,0,0,1-1.19,1.07A1.36,1.36,0,0,1,219.12,35.71Z"/><path class="cls-2" d="M223.22,35.73v-3a0.23,0.23,0,0,1,.22-0.24,0.23,0.23,0,0,1,.22.24v3a0.86,0.86,0,1,0,1.72,0v-3a0.23,0.23,0,0,1,.22-0.24,0.23,0.23,0,0,1,.22.24v3A1.31,1.31,0,1,1,223.22,35.73Z"/><path class="cls-2" d="M227.44,36.86V32.73a0.24,0.24,0,0,1,.22-0.24h1a1.41,1.41,0,0,1,0,2.82H227.9v1.54a0.23,0.23,0,0,1-.23.24A0.23,0.23,0,0,1,227.44,36.86Zm1.22-2a0.94,0.94,0,0,0,0-1.88H227.9v1.88h0.76Z"/><path class="cls-2" d="M231.58,36.86V32.73a0.24,0.24,0,0,1,.22-0.24h1a1.41,1.41,0,0,1,0,2.82H232v1.54a0.23,0.23,0,0,1-.23.24A0.23,0.23,0,0,1,231.58,36.86Zm1.22-2a0.94,0.94,0,0,0,0-1.88H232v1.88h0.76Z"/><path class="cls-2" d="M235.65,35.76v-1.9a1.31,1.31,0,1,1,2.61,0v1.9A1.31,1.31,0,1,1,235.65,35.76Zm2.16,0v-1.9a0.85,0.85,0,1,0-1.7,0v1.9A0.85,0.85,0,1,0,237.8,35.76Z"/><path class="cls-2" d="M239.84,36.86V32.73a0.24,0.24,0,0,1,.22-0.24h1a1.39,1.39,0,0,1,1.36,1.41,1.42,1.42,0,0,1-.91,1.33l1,1.49a0.22,0.22,0,0,1,0,.13,0.23,0.23,0,0,1-.22.24,0.21,0.21,0,0,1-.19-0.1L241,35.32H240.3v1.54a0.23,0.23,0,0,1-.23.24A0.23,0.23,0,0,1,239.84,36.86Zm1.22-2a0.94,0.94,0,0,0,0-1.88H240.3v1.88h0.77Z"/><path class="cls-2" d="M245,36.86V33h-1.27a0.24,0.24,0,0,1,0-.47h3a0.24,0.24,0,0,1,0,.47h-1.27v3.88A0.23,0.23,0,1,1,245,36.86Z"/><path class="cls-2" d="M252.25,35.71a0.23,0.23,0,1,1,.45,0,0.89,0.89,0,0,0,.87.91,0.68,0.68,0,0,0,.74-0.62,0.58,0.58,0,0,0-.2-0.47l-1.24-1a1.16,1.16,0,0,1,.7-2,1.36,1.36,0,0,1,1,.46,0.93,0.93,0,0,1,.22.42,0.24,0.24,0,0,1-.22.24,0.27,0.27,0,0,1-.21-0.14,0.86,0.86,0,0,0-.78-0.51,0.67,0.67,0,0,0-.65.69,0.64,0.64,0,0,0,.24.51l1.24,1a1.05,1.05,0,0,1,.36.85,1.13,1.13,0,0,1-1.19,1.07A1.36,1.36,0,0,1,252.25,35.71Z"/><path class="cls-2" d="M256.4,36.86V32.73a0.23,0.23,0,0,1,.22-0.24h2.27a0.23,0.23,0,0,1,.22.24,0.22,0.22,0,0,1-.22.23h-2.05v1.59h1.59a0.23,0.23,0,0,1,0,.47h-1.59v1.6h2.05a0.23,0.23,0,0,1,0,.47h-2.27A0.22,0.22,0,0,1,256.4,36.86Z"/><path class="cls-2" d="M260.53,35.71a0.23,0.23,0,1,1,.45,0,0.89,0.89,0,0,0,.87.91A0.68,0.68,0,0,0,262.6,36a0.58,0.58,0,0,0-.2-0.47l-1.24-1a1.16,1.16,0,0,1,.7-2,1.36,1.36,0,0,1,1,.46,0.93,0.93,0,0,1,.22.42,0.24,0.24,0,0,1-.22.24,0.27,0.27,0,0,1-.21-0.14,0.86,0.86,0,0,0-.78-0.51,0.67,0.67,0,0,0-.65.69,0.64,0.64,0,0,0,.24.51l1.24,1A1.05,1.05,0,0,1,263,36a1.13,1.13,0,0,1-1.19,1.07A1.36,1.36,0,0,1,260.53,35.71Z"/><path class="cls-2" d="M264.67,35.71a0.23,0.23,0,1,1,.45,0,0.89,0.89,0,0,0,.87.91,0.68,0.68,0,0,0,.74-0.62,0.58,0.58,0,0,0-.2-0.47l-1.24-1a1.16,1.16,0,0,1,.7-2,1.36,1.36,0,0,1,1,.46,0.93,0.93,0,0,1,.22.42,0.24,0.24,0,0,1-.22.24,0.27,0.27,0,0,1-.21-0.14A0.86,0.86,0,0,0,266,33a0.67,0.67,0,0,0-.65.69,0.64,0.64,0,0,0,.24.51l1.24,1a1.05,1.05,0,0,1,.36.85A1.13,1.13,0,0,1,266,37.09,1.36,1.36,0,0,1,264.67,35.71Z"/><path class="cls-2" d="M268.88,36.86a0.22,0.22,0,0,1,.22-0.23h0.75V33h-0.75a0.23,0.23,0,0,1-.22-0.24,0.22,0.22,0,0,1,.22-0.23h2a0.23,0.23,0,0,1,0,.47h-0.75v3.66h0.75a0.23,0.23,0,0,1,0,.47h-2A0.23,0.23,0,0,1,268.88,36.86Z"/><path class="cls-2" d="M272.92,35.76v-1.9a1.31,1.31,0,1,1,2.61,0v1.9A1.31,1.31,0,1,1,272.92,35.76Zm2.16,0v-1.9a0.85,0.85,0,1,0-1.7,0v1.9A0.85,0.85,0,1,0,275.08,35.76Z"/><path class="cls-2" d="M277,36.86V32.73a0.23,0.23,0,0,1,.22-0.23,0.2,0.2,0,0,1,.19.12L279.27,36V32.73a0.23,0.23,0,0,1,.22-0.23,0.23,0.23,0,0,1,.22.23v4.13a0.23,0.23,0,0,1-.22.24A0.19,0.19,0,0,1,279.3,37l-1.85-3.36v3.24A0.22,0.22,0,1,1,277,36.86Z"/><path class="cls-2" d="M232.16,48.69v-6.6a0.38,0.38,0,0,1,.36-0.38h1.6A2.23,2.23,0,0,1,236.3,44a2.27,2.27,0,0,1-1.45,2.13l1.64,2.38a0.35,0.35,0,0,1,.07.21,0.37,0.37,0,0,1-.36.38,0.33,0.33,0,0,1-.3-0.16L234,46.23h-1.15v2.46a0.37,0.37,0,0,1-.37.38A0.37,0.37,0,0,1,232.16,48.69Zm2-3.21a1.5,1.5,0,0,0,0-3h-1.23v3h1.23Z"/><path class="cls-2" d="M239.56,48.69v-6.6a0.37,0.37,0,0,1,.35-0.38h3.64a0.37,0.37,0,0,1,.35.39,0.36,0.36,0,0,1-.35.37h-3.28V45h2.55a0.37,0.37,0,0,1,0,.75h-2.55v2.56h3.28a0.37,0.37,0,0,1,0,.75h-3.64A0.36,0.36,0,0,1,239.56,48.69Z"/><path class="cls-2" d="M247,48.69v-6.6a0.36,0.36,0,0,1,.36-0.38h1.72a2.13,2.13,0,0,1,2.08,2.17v3a2.14,2.14,0,0,1-2.08,2.17H247.4A0.37,0.37,0,0,1,247,48.69Zm2.08-.37a1.42,1.42,0,0,0,1.36-1.42v-3a1.42,1.42,0,0,0-1.36-1.42h-1.36v5.86h1.36Z"/><path class="cls-2" d="M254.51,48.69a0.36,0.36,0,0,1,.36-0.37h1.2V42.46h-1.2a0.37,0.37,0,0,1-.36-0.38,0.36,0.36,0,0,1,.36-0.37H258a0.37,0.37,0,0,1,0,.75h-1.2v5.86H258a0.37,0.37,0,0,1,0,.75h-3.13A0.37,0.37,0,0,1,254.51,48.69Z"/><path class="cls-2" d="M261.82,46.86a0.36,0.36,0,1,1,.73,0,1.42,1.42,0,0,0,1.39,1.45,1.09,1.09,0,0,0,1.18-1,0.93,0.93,0,0,0-.32-0.75l-2-1.6a1.86,1.86,0,0,1,1.11-3.26,2.18,2.18,0,0,1,1.59.74,1.48,1.48,0,0,1,.35.68,0.39,0.39,0,0,1-.36.39,0.43,0.43,0,0,1-.33-0.23,1.38,1.38,0,0,0-1.25-.82,1.08,1.08,0,0,0-1,1.11,1,1,0,0,0,.39.82l2,1.6a1.68,1.68,0,0,1,.58,1.35,1.81,1.81,0,0,1-1.9,1.72A2.17,2.17,0,0,1,261.82,46.86Z"/></g><rect class="cls-5" x="115" y="62.37" width="90" height="45"/><g class="cls-6"><use id="New_Symbol-24" data-name="New Symbol" width="133.73" height="46.42" transform="translate(118.42 70.44) scale(0.62)" xlink:href="#New_Symbol"/></g><g class="cls-7"><path class="cls-2" d="M129.12,80.58a0.23,0.23,0,1,1,.45,0,0.89,0.89,0,0,0,.87.91,0.68,0.68,0,0,0,.74-0.62,0.58,0.58,0,0,0-.2-0.47l-1.24-1a1.16,1.16,0,0,1,.7-2,1.36,1.36,0,0,1,1,.46,0.93,0.93,0,0,1,.22.42,0.24,0.24,0,0,1-.22.24,0.27,0.27,0,0,1-.21-0.14,0.86,0.86,0,0,0-.78-0.51,0.67,0.67,0,0,0-.65.69A0.64,0.64,0,0,0,130,79l1.24,1a1.05,1.05,0,0,1,.36.85A1.13,1.13,0,0,1,130.44,82,1.36,1.36,0,0,1,129.12,80.58Z"/><path class="cls-2" d="M133.22,80.6v-3a0.23,0.23,0,0,1,.22-0.24,0.23,0.23,0,0,1,.22.24v3a0.86,0.86,0,1,0,1.72,0v-3a0.23,0.23,0,0,1,.22-0.24,0.23,0.23,0,0,1,.22.24v3A1.31,1.31,0,1,1,133.22,80.6Z"/><path class="cls-2" d="M137.45,81.72V77.6a0.24,0.24,0,0,1,.22-0.24h1a1.41,1.41,0,0,1,0,2.82H137.9v1.54a0.23,0.23,0,0,1-.23.24A0.23,0.23,0,0,1,137.45,81.72Zm1.22-2a0.94,0.94,0,0,0,0-1.88H137.9v1.88h0.76Z"/><path class="cls-2" d="M141.59,81.72V77.6a0.24,0.24,0,0,1,.22-0.24h1a1.41,1.41,0,0,1,0,2.82H142v1.54a0.23,0.23,0,0,1-.23.24A0.23,0.23,0,0,1,141.59,81.72Zm1.22-2a0.94,0.94,0,0,0,0-1.88H142v1.88h0.76Z"/><path class="cls-2" d="M145.65,80.62v-1.9a1.31,1.31,0,1,1,2.61,0v1.9A1.31,1.31,0,1,1,145.65,80.62Zm2.16,0v-1.9a0.85,0.85,0,1,0-1.7,0v1.9A0.85,0.85,0,1,0,147.8,80.62Z"/><path class="cls-2" d="M149.84,81.72V77.6a0.24,0.24,0,0,1,.22-0.24h1a1.39,1.39,0,0,1,1.36,1.41,1.42,1.42,0,0,1-.91,1.33l1,1.49a0.22,0.22,0,0,1,0,.13,0.23,0.23,0,0,1-.22.24,0.21,0.21,0,0,1-.19-0.1L151,80.19H150.3v1.54a0.23,0.23,0,0,1-.23.24A0.23,0.23,0,0,1,149.84,81.72Zm1.22-2a0.94,0.94,0,0,0,0-1.88H150.3v1.88h0.77Z"/><path class="cls-2" d="M155,81.72V77.84h-1.27a0.24,0.24,0,0,1,0-.47h3a0.24,0.24,0,0,1,0,.47h-1.27v3.88A0.23,0.23,0,1,1,155,81.72Z"/><path class="cls-2" d="M162.25,80.58a0.23,0.23,0,1,1,.45,0,0.89,0.89,0,0,0,.87.91,0.68,0.68,0,0,0,.74-0.62,0.58,0.58,0,0,0-.2-0.47l-1.24-1a1.16,1.16,0,0,1,.7-2,1.36,1.36,0,0,1,1,.46,0.93,0.93,0,0,1,.22.42,0.24,0.24,0,0,1-.22.24,0.27,0.27,0,0,1-.21-0.14,0.86,0.86,0,0,0-.78-0.51,0.67,0.67,0,0,0-.65.69,0.64,0.64,0,0,0,.24.51l1.24,1a1.05,1.05,0,0,1,.36.85A1.13,1.13,0,0,1,163.57,82,1.36,1.36,0,0,1,162.25,80.58Z"/><path class="cls-2" d="M166.4,81.72V77.6a0.23,0.23,0,0,1,.22-0.24h2.27a0.23,0.23,0,0,1,.22.24,0.22,0.22,0,0,1-.22.23h-2.05v1.59h1.59a0.23,0.23,0,0,1,0,.47h-1.59v1.6h2.05a0.23,0.23,0,0,1,0,.47h-2.27A0.22,0.22,0,0,1,166.4,81.72Z"/><path class="cls-2" d="M170.53,80.58a0.23,0.23,0,1,1,.45,0,0.89,0.89,0,0,0,.87.91,0.68,0.68,0,0,0,.74-0.62,0.58,0.58,0,0,0-.2-0.47l-1.24-1a1.16,1.16,0,0,1,.7-2,1.36,1.36,0,0,1,1,.46,0.93,0.93,0,0,1,.22.42,0.24,0.24,0,0,1-.22.24,0.27,0.27,0,0,1-.21-0.14,0.86,0.86,0,0,0-.78-0.51,0.67,0.67,0,0,0-.65.69,0.64,0.64,0,0,0,.24.51l1.24,1a1.05,1.05,0,0,1,.36.85A1.13,1.13,0,0,1,171.86,82,1.36,1.36,0,0,1,170.53,80.58Z"/><path class="cls-2" d="M174.68,80.58a0.23,0.23,0,1,1,.45,0,0.89,0.89,0,0,0,.87.91,0.68,0.68,0,0,0,.74-0.62,0.58,0.58,0,0,0-.2-0.47l-1.24-1a1.16,1.16,0,0,1,.7-2,1.36,1.36,0,0,1,1,.46,0.93,0.93,0,0,1,.22.42,0.24,0.24,0,0,1-.22.24,0.27,0.27,0,0,1-.21-0.14,0.86,0.86,0,0,0-.78-0.51,0.67,0.67,0,0,0-.65.69,0.64,0.64,0,0,0,.24.51l1.24,1a1.05,1.05,0,0,1,.36.85A1.13,1.13,0,0,1,176,82,1.36,1.36,0,0,1,174.68,80.58Z"/><path class="cls-2" d="M178.89,81.72a0.22,0.22,0,0,1,.22-0.23h0.75V77.83h-0.75a0.23,0.23,0,0,1-.22-0.24,0.22,0.22,0,0,1,.22-0.23h2a0.23,0.23,0,0,1,0,.47h-0.75v3.66h0.75a0.23,0.23,0,0,1,0,.47h-2A0.23,0.23,0,0,1,178.89,81.72Z"/><path class="cls-2" d="M182.92,80.62v-1.9a1.31,1.31,0,1,1,2.61,0v1.9A1.31,1.31,0,1,1,182.92,80.62Zm2.16,0v-1.9a0.85,0.85,0,1,0-1.7,0v1.9A0.85,0.85,0,1,0,185.08,80.62Z"/><path class="cls-2" d="M187,81.72V77.6a0.23,0.23,0,0,1,.22-0.23,0.2,0.2,0,0,1,.19.12l1.85,3.36V77.6a0.23,0.23,0,0,1,.22-0.23,0.23,0.23,0,0,1,.22.23v4.13a0.23,0.23,0,0,1-.22.24,0.19,0.19,0,0,1-.19-0.12l-1.85-3.36v3.24A0.22,0.22,0,1,1,187,81.72Z"/><path class="cls-2" d="M141.76,93.56V86.95a0.37,0.37,0,0,1,.36-0.37,0.35,0.35,0,0,1,.33.21l1.71,3.62,1.71-3.62a0.35,0.35,0,0,1,.33-0.21,0.37,0.37,0,0,1,.36.37v6.61a0.36,0.36,0,0,1-.36.38,0.37,0.37,0,0,1-.37-0.38v-5l-1.34,2.85a0.36,0.36,0,0,1-.66,0l-1.34-2.85v5A0.36,0.36,0,1,1,141.76,93.56Z"/><path class="cls-2" d="M149.49,91.79v-3a2.09,2.09,0,1,1,4.18,0v3A2.09,2.09,0,1,1,149.49,91.79Zm3.45,0v-3a1.36,1.36,0,1,0-2.73,0v3A1.36,1.36,0,1,0,152.95,91.79Z"/><path class="cls-2" d="M156.84,93.56V86.95a0.37,0.37,0,0,1,.36-0.37,0.33,0.33,0,0,1,.31.19l3,5.38v-5.2a0.36,0.36,0,0,1,.36-0.37,0.37,0.37,0,0,1,.36.37v6.61a0.37,0.37,0,0,1-.36.38,0.31,0.31,0,0,1-.31-0.19l-3-5.38v5.19A0.36,0.36,0,1,1,156.84,93.56Z"/><path class="cls-2" d="M164.35,91.76v-3a2.13,2.13,0,0,1,2.08-2.17,2,2,0,0,1,2.08,2.07,0.36,0.36,0,0,1-.36.38,0.37,0.37,0,0,1-.36-0.38,1.32,1.32,0,0,0-1.36-1.31,1.4,1.4,0,0,0-1.36,1.41v3a1.36,1.36,0,1,0,2.73,0V91h-1.16a0.37,0.37,0,0,1-.36-0.37,0.37,0.37,0,0,1,.36-0.38h1.52a0.37,0.37,0,0,1,.36.38v1.1A2.08,2.08,0,1,1,164.35,91.76Z"/><path class="cls-2" d="M171.76,91.79v-3a2.09,2.09,0,1,1,4.18,0v3A2.09,2.09,0,1,1,171.76,91.79Zm3.45,0v-3a1.36,1.36,0,1,0-2.73,0v3A1.36,1.36,0,1,0,175.21,91.79Z"/></g><rect class="cls-5" x="25" y="62.37" width="90" height="45"/><g class="cls-6"><g id="_Group_3" data-name="&lt;Group&gt;"><polygon class="cls-8" points="111.58 70.44 33.07 70.44 33.07 70.44 33.07 75.06 28.45 75.06 28.45 99.3 106.96 99.3 106.96 94.68 111.58 94.68 111.58 70.44 111.58 70.44"/><path class="cls-2" d="M33.07,75.06H28.45l4.62-4.62h0v4.62Z"/><polygon class="cls-2" points="106.96 94.68 111.58 94.68 106.96 99.3 106.96 94.68"/><polygon class="cls-2" points="111.58 70.44 109.09 70.44 109.09 70.44 109.09 72.92 111.58 72.92 111.58 70.44 111.58 70.44"/><polygon class="cls-2" points="29.68 99.3 29.68 98.06 28.42 98.06 28.42 98.06 28.42 99.3 28.42 99.3 29.68 99.3"/><polygon class="cls-2" points="37.7 99.3 38.06 98.68 37.7 98.06 29.68 98.06 29.68 99.3 37.7 99.3"/></g></g><g class="cls-7"><path class="cls-2" d="M37.05,80.58a0.23,0.23,0,1,1,.45,0,0.89,0.89,0,0,0,.87.91,0.68,0.68,0,0,0,.74-0.62,0.58,0.58,0,0,0-.2-0.47l-1.24-1a1.16,1.16,0,0,1,.7-2,1.36,1.36,0,0,1,1,.46,0.93,0.93,0,0,1,.22.42,0.24,0.24,0,0,1-.22.24,0.27,0.27,0,0,1-.21-0.14,0.86,0.86,0,0,0-.78-0.51,0.67,0.67,0,0,0-.65.69A0.64,0.64,0,0,0,38,79l1.24,1a1.05,1.05,0,0,1,.36.85A1.13,1.13,0,0,1,38.37,82,1.36,1.36,0,0,1,37.05,80.58Z"/><path class="cls-2" d="M41.15,80.6v-3a0.23,0.23,0,0,1,.22-0.24,0.23,0.23,0,0,1,.22.24v3a0.86,0.86,0,1,0,1.72,0v-3a0.23,0.23,0,0,1,.22-0.24,0.23,0.23,0,0,1,.22.24v3A1.31,1.31,0,1,1,41.15,80.6Z"/><path class="cls-2" d="M45.38,81.72V77.6a0.24,0.24,0,0,1,.22-0.24h1a1.41,1.41,0,0,1,0,2.82H45.83v1.54a0.23,0.23,0,0,1-.23.24A0.23,0.23,0,0,1,45.38,81.72Zm1.22-2a0.94,0.94,0,0,0,0-1.88H45.83v1.88h0.76Z"/><path class="cls-2" d="M49.52,81.72V77.6a0.24,0.24,0,0,1,.22-0.24h1a1.41,1.41,0,0,1,0,2.82H50v1.54a0.23,0.23,0,0,1-.23.24A0.23,0.23,0,0,1,49.52,81.72Zm1.22-2a0.94,0.94,0,0,0,0-1.88H50v1.88h0.76Z"/><path class="cls-2" d="M53.58,80.62v-1.9a1.31,1.31,0,1,1,2.61,0v1.9A1.31,1.31,0,1,1,53.58,80.62Zm2.16,0v-1.9a0.85,0.85,0,1,0-1.7,0v1.9A0.85,0.85,0,1,0,55.73,80.62Z"/><path class="cls-2" d="M57.78,81.72V77.6A0.24,0.24,0,0,1,58,77.37h1a1.39,1.39,0,0,1,1.36,1.41,1.42,1.42,0,0,1-.91,1.33l1,1.49a0.22,0.22,0,0,1,0,.13,0.23,0.23,0,0,1-.22.24,0.21,0.21,0,0,1-.19-0.1L59,80.19H58.23v1.54A0.23,0.23,0,0,1,58,82,0.23,0.23,0,0,1,57.78,81.72Zm1.22-2a0.94,0.94,0,0,0,0-1.88H58.23v1.88H59Z"/><path class="cls-2" d="M62.94,81.72V77.84H61.66a0.24,0.24,0,0,1,0-.47h3a0.24,0.24,0,0,1,0,.47H63.4v3.88A0.23,0.23,0,1,1,62.94,81.72Z"/><path class="cls-2" d="M70.23,81.72V77.6a0.24,0.24,0,0,1,.22-0.24h1a1.41,1.41,0,0,1,0,2.82H70.68v1.54a0.23,0.23,0,0,1-.23.24A0.23,0.23,0,0,1,70.23,81.72Zm1.22-2a0.94,0.94,0,0,0,0-1.88H70.68v1.88h0.76Z"/><path class="cls-2" d="M74.49,81.89a0.23,0.23,0,0,1-.07-0.17V77.6a0.23,0.23,0,0,1,.45,0v3.9h2a0.23,0.23,0,0,1,.22.23,0.23,0.23,0,0,1-.07.17,0.22,0.22,0,0,1-.16.07H74.65A0.22,0.22,0,0,1,74.49,81.89Z"/><path class="cls-2" d="M78,81.72l1.54-4.21a0.22,0.22,0,0,1,.21-0.14,0.21,0.21,0,0,1,.21.14l1.54,4.21a0.23,0.23,0,0,1-.44.09l-0.39-1H78.81l-0.39,1a0.22,0.22,0,0,1-.21.15A0.23,0.23,0,0,1,78,81.72Zm2.51-1.42-0.75-2-0.75,2h1.5Z"/><path class="cls-2" d="M83.64,81.72V77.84H82.37a0.24,0.24,0,0,1,0-.47h3a0.24,0.24,0,0,1,0,.47H84.1v3.88A0.23,0.23,0,1,1,83.64,81.72Z"/><path class="cls-2" d="M86.94,81.72V77.6a0.23,0.23,0,0,1,.22-0.24h2.15a0.24,0.24,0,0,1,.22.24,0.23,0.23,0,0,1-.22.24H87.38v1.59h1.47a0.23,0.23,0,0,1,.22.24,0.23,0.23,0,0,1-.22.23H87.38v1.83a0.23,0.23,0,0,1-.22.24A0.22,0.22,0,0,1,86.94,81.72Z"/><path class="cls-2" d="M90.85,80.62v-1.9a1.31,1.31,0,1,1,2.61,0v1.9A1.31,1.31,0,1,1,90.85,80.62Zm2.16,0v-1.9a0.85,0.85,0,1,0-1.7,0v1.9A0.85,0.85,0,1,0,93,80.62Z"/><path class="cls-2" d="M95,81.72V77.6a0.24,0.24,0,0,1,.22-0.24h1a1.39,1.39,0,0,1,1.36,1.41,1.42,1.42,0,0,1-.91,1.33l1,1.49a0.22,0.22,0,0,1,0,.13,0.23,0.23,0,0,1-.22.24,0.21,0.21,0,0,1-.19-0.1l-1.16-1.67H95.5v1.54a0.23,0.23,0,0,1-.23.24A0.23,0.23,0,0,1,95,81.72Zm1.22-2a0.94,0.94,0,0,0,0-1.88H95.5v1.88h0.77Z"/><path class="cls-2" d="M98.94,81.72V77.6a0.23,0.23,0,0,1,.22-0.23,0.22,0.22,0,0,1,.21.13l1.07,2.26,1.07-2.26a0.22,0.22,0,0,1,.2-0.13,0.23,0.23,0,0,1,.22.23v4.13a0.23,0.23,0,0,1-.22.24,0.23,0.23,0,0,1-.23-0.24V78.62l-0.84,1.78a0.23,0.23,0,0,1-.41,0L99.4,78.62v3.11A0.23,0.23,0,1,1,98.94,81.72Z"/><path class="cls-2" d="M36.92,93.56V86.95a0.37,0.37,0,0,1,.36-0.37,0.35,0.35,0,0,1,.33.21l1.71,3.62L41,86.79a0.35,0.35,0,0,1,.33-0.21,0.37,0.37,0,0,1,.36.37v6.61a0.36,0.36,0,0,1-.36.38A0.37,0.37,0,0,1,41,93.56v-5l-1.34,2.85a0.36,0.36,0,0,1-.66,0l-1.34-2.85v5A0.36,0.36,0,1,1,36.92,93.56Z"/><path class="cls-2" d="M44.72,93.56V87a0.37,0.37,0,0,1,.35-0.38h3.64a0.37,0.37,0,0,1,.35.39,0.36,0.36,0,0,1-.35.37H45.43v2.55H48a0.37,0.37,0,0,1,0,.75H45.43v2.56h3.28a0.37,0.37,0,0,1,0,.75H45.07A0.36,0.36,0,0,1,44.72,93.56Z"/><path class="cls-2" d="M52.13,91.72a0.36,0.36,0,1,1,.73,0,1.42,1.42,0,0,0,1.39,1.45,1.09,1.09,0,0,0,1.18-1,0.93,0.93,0,0,0-.32-0.75l-2-1.6a1.86,1.86,0,0,1,1.11-3.26,2.18,2.18,0,0,1,1.59.74,1.48,1.48,0,0,1,.35.68,0.39,0.39,0,0,1-.36.39,0.43,0.43,0,0,1-.33-0.23,1.38,1.38,0,0,0-1.25-.82,1.08,1.08,0,0,0-1,1.11,1,1,0,0,0,.39.82l2,1.6a1.68,1.68,0,0,1,.58,1.35,1.81,1.81,0,0,1-1.9,1.72A2.17,2.17,0,0,1,52.13,91.72Z"/><path class="cls-2" d="M59.56,91.72a0.36,0.36,0,1,1,.73,0,1.42,1.42,0,0,0,1.39,1.45,1.09,1.09,0,0,0,1.18-1,0.93,0.93,0,0,0-.32-0.75l-2-1.6a1.86,1.86,0,0,1,1.11-3.26,2.18,2.18,0,0,1,1.59.74,1.48,1.48,0,0,1,.35.68,0.39,0.39,0,0,1-.36.39,0.43,0.43,0,0,1-.33-0.23,1.38,1.38,0,0,0-1.25-.82,1.08,1.08,0,0,0-1,1.11,1,1,0,0,0,.39.82l2,1.6a1.68,1.68,0,0,1,.58,1.35,1.81,1.81,0,0,1-1.9,1.72A2.17,2.17,0,0,1,59.56,91.72Z"/><path class="cls-2" d="M67,93.56V87a0.37,0.37,0,0,1,.35-0.38H71a0.37,0.37,0,0,1,.35.39,0.36,0.36,0,0,1-.35.37H67.69v2.55h2.55a0.37,0.37,0,0,1,0,.75H67.69v2.56H71a0.37,0.37,0,0,1,0,.75H67.34A0.36,0.36,0,0,1,67,93.56Z"/><path class="cls-2" d="M74.26,93.56V86.95a0.37,0.37,0,0,1,.36-0.37,0.33,0.33,0,0,1,.31.19l3,5.38v-5.2a0.36,0.36,0,0,1,.36-0.37,0.37,0.37,0,0,1,.36.37v6.61a0.37,0.37,0,0,1-.36.38,0.31,0.31,0,0,1-.31-0.19l-3-5.38v5.19A0.36,0.36,0,1,1,74.26,93.56Z"/><path class="cls-2" d="M81.77,91.76v-3a2.13,2.13,0,0,1,2.08-2.17,2,2,0,0,1,2.08,2.07,0.36,0.36,0,0,1-.36.38,0.37,0.37,0,0,1-.36-0.38,1.32,1.32,0,0,0-1.36-1.31,1.4,1.4,0,0,0-1.36,1.41v3a1.36,1.36,0,1,0,2.73,0V91H84.05a0.37,0.37,0,0,1-.36-0.37,0.37,0.37,0,0,1,.36-0.38h1.52a0.37,0.37,0,0,1,.36.38v1.1A2.08,2.08,0,1,1,81.77,91.76Z"/><path class="cls-2" d="M89.26,93.56V87a0.37,0.37,0,0,1,.35-0.38h3.64a0.37,0.37,0,0,1,.35.39,0.36,0.36,0,0,1-.35.37H90v2.55h2.55a0.37,0.37,0,0,1,0,.75H90v2.56h3.28a0.37,0.37,0,0,1,0,.75H89.6A0.36,0.36,0,0,1,89.26,93.56Z"/><path class="cls-2" d="M96.7,93.56V87a0.38,0.38,0,0,1,.36-0.38h1.6a2.23,2.23,0,0,1,2.18,2.26A2.27,2.27,0,0,1,99.39,91L101,93.35a0.35,0.35,0,0,1,.07.21,0.37,0.37,0,0,1-.36.38,0.33,0.33,0,0,1-.3-0.16L98.58,91.1H97.42v2.46a0.37,0.37,0,0,1-.37.38A0.37,0.37,0,0,1,96.7,93.56Zm2-3.21a1.5,1.5,0,0,0,0-3H97.42v3h1.23Z"/></g><rect class="cls-5" x="205" y="62.37" width="90" height="45"/><g class="cls-6"><g id="_Group_4" data-name="&lt;Group&gt;"><polygon class="cls-8" points="291.58 70.44 213.07 70.44 213.07 70.44 213.07 75.06 208.44 75.06 208.44 99.3 286.95 99.3 286.95 94.68 291.58 94.68 291.58 70.44 291.58 70.44"/><path class="cls-2" d="M213.07,75.06h-4.62l4.62-4.62h0v4.62Z"/><polygon class="cls-2" points="286.95 94.68 291.58 94.68 286.95 99.3 286.95 94.68"/><polygon class="cls-2" points="291.58 70.44 289.09 70.44 289.09 70.44 289.09 72.92 291.58 72.92 291.58 70.44 291.58 70.44"/><polygon class="cls-2" points="209.68 99.3 209.68 98.06 208.42 98.06 208.42 98.06 208.42 99.3 208.42 99.3 209.68 99.3"/><polygon class="cls-2" points="217.7 99.3 218.06 98.68 217.7 98.06 209.68 98.06 209.68 99.3 217.7 99.3"/></g></g><g class="cls-7"><path class="cls-2" d="M217,80.58a0.23,0.23,0,1,1,.45,0,0.89,0.89,0,0,0,.87.91,0.68,0.68,0,0,0,.74-0.62,0.58,0.58,0,0,0-.2-0.47l-1.24-1a1.16,1.16,0,0,1,.7-2,1.36,1.36,0,0,1,1,.46,0.93,0.93,0,0,1,.22.42,0.24,0.24,0,0,1-.22.24,0.27,0.27,0,0,1-.21-0.14,0.86,0.86,0,0,0-.78-0.51,0.67,0.67,0,0,0-.65.69A0.64,0.64,0,0,0,218,79l1.24,1a1.05,1.05,0,0,1,.36.85A1.13,1.13,0,0,1,218.37,82,1.36,1.36,0,0,1,217,80.58Z"/><path class="cls-2" d="M221.15,80.6v-3a0.23,0.23,0,0,1,.22-0.24,0.23,0.23,0,0,1,.22.24v3a0.86,0.86,0,1,0,1.72,0v-3a0.23,0.23,0,0,1,.22-0.24,0.23,0.23,0,0,1,.22.24v3A1.31,1.31,0,1,1,221.15,80.6Z"/><path class="cls-2" d="M225.37,81.72V77.6a0.24,0.24,0,0,1,.22-0.24h1a1.41,1.41,0,0,1,0,2.82h-0.76v1.54a0.23,0.23,0,0,1-.23.24A0.23,0.23,0,0,1,225.37,81.72Zm1.22-2a0.94,0.94,0,0,0,0-1.88h-0.76v1.88h0.76Z"/><path class="cls-2" d="M229.51,81.72V77.6a0.24,0.24,0,0,1,.22-0.24h1a1.41,1.41,0,0,1,0,2.82H230v1.54a0.23,0.23,0,0,1-.23.24A0.23,0.23,0,0,1,229.51,81.72Zm1.22-2a0.94,0.94,0,0,0,0-1.88H230v1.88h0.76Z"/><path class="cls-2" d="M233.57,80.62v-1.9a1.31,1.31,0,1,1,2.61,0v1.9A1.31,1.31,0,1,1,233.57,80.62Zm2.16,0v-1.9a0.85,0.85,0,1,0-1.7,0v1.9A0.85,0.85,0,1,0,235.73,80.62Z"/><path class="cls-2" d="M237.77,81.72V77.6a0.24,0.24,0,0,1,.22-0.24h1a1.39,1.39,0,0,1,1.36,1.41,1.42,1.42,0,0,1-.91,1.33l1,1.49a0.22,0.22,0,0,1,0,.13,0.23,0.23,0,0,1-.22.24,0.21,0.21,0,0,1-.19-0.1l-1.16-1.67h-0.72v1.54A0.23,0.23,0,0,1,238,82,0.23,0.23,0,0,1,237.77,81.72Zm1.22-2a0.94,0.94,0,0,0,0-1.88h-0.77v1.88H239Z"/><path class="cls-2" d="M242.93,81.72V77.84h-1.27a0.24,0.24,0,0,1,0-.47h3a0.24,0.24,0,0,1,0,.47h-1.27v3.88A0.23,0.23,0,1,1,242.93,81.72Z"/><path class="cls-2" d="M250.22,81.72V77.6a0.24,0.24,0,0,1,.22-0.24h1a1.41,1.41,0,0,1,0,2.82h-0.76v1.54a0.23,0.23,0,0,1-.23.24A0.23,0.23,0,0,1,250.22,81.72Zm1.22-2a0.94,0.94,0,0,0,0-1.88h-0.76v1.88h0.76Z"/><path class="cls-2" d="M254.49,81.89a0.23,0.23,0,0,1-.07-0.17V77.6a0.23,0.23,0,0,1,.45,0v3.9h2a0.23,0.23,0,0,1,.22.23,0.23,0.23,0,0,1-.07.17,0.22,0.22,0,0,1-.16.07h-2.26A0.22,0.22,0,0,1,254.49,81.89Z"/><path class="cls-2" d="M258,81.72l1.54-4.21a0.22,0.22,0,0,1,.21-0.14,0.21,0.21,0,0,1,.21.14l1.54,4.21a0.23,0.23,0,0,1-.44.09l-0.39-1H258.8l-0.39,1a0.22,0.22,0,0,1-.21.15A0.23,0.23,0,0,1,258,81.72Zm2.51-1.42-0.75-2-0.75,2h1.5Z"/><path class="cls-2" d="M263.64,81.72V77.84h-1.27a0.24,0.24,0,0,1,0-.47h3a0.24,0.24,0,0,1,0,.47H264.1v3.88A0.23,0.23,0,1,1,263.64,81.72Z"/><path class="cls-2" d="M266.94,81.72V77.6a0.23,0.23,0,0,1,.22-0.24h2.15a0.24,0.24,0,0,1,.22.24,0.23,0.23,0,0,1-.22.24h-1.93v1.59h1.47a0.23,0.23,0,0,1,.22.24,0.23,0.23,0,0,1-.22.23h-1.47v1.83a0.23,0.23,0,0,1-.22.24A0.22,0.22,0,0,1,266.94,81.72Z"/><path class="cls-2" d="M270.85,80.62v-1.9a1.31,1.31,0,1,1,2.61,0v1.9A1.31,1.31,0,1,1,270.85,80.62Zm2.16,0v-1.9a0.85,0.85,0,1,0-1.7,0v1.9A0.85,0.85,0,1,0,273,80.62Z"/><path class="cls-2" d="M275,81.72V77.6a0.24,0.24,0,0,1,.22-0.24h1a1.39,1.39,0,0,1,1.36,1.41,1.42,1.42,0,0,1-.91,1.33l1,1.49a0.22,0.22,0,0,1,0,.13,0.23,0.23,0,0,1-.22.24,0.21,0.21,0,0,1-.19-0.1l-1.16-1.67H275.5v1.54a0.23,0.23,0,0,1-.23.24A0.23,0.23,0,0,1,275,81.72Zm1.22-2a0.94,0.94,0,0,0,0-1.88H275.5v1.88h0.77Z"/><path class="cls-2" d="M278.94,81.72V77.6a0.23,0.23,0,0,1,.22-0.23,0.22,0.22,0,0,1,.21.13l1.07,2.26,1.07-2.26a0.22,0.22,0,0,1,.2-0.13,0.23,0.23,0,0,1,.22.23v4.13a0.23,0.23,0,0,1-.22.24,0.23,0.23,0,0,1-.23-0.24V78.62l-0.84,1.78a0.23,0.23,0,0,1-.41,0l-0.84-1.78v3.11A0.23,0.23,0,1,1,278.94,81.72Z"/><path class="cls-2" d="M236.11,93.82a0.37,0.37,0,0,1-.11-0.27V86.95a0.36,0.36,0,0,1,.11-0.26,0.35,0.35,0,0,1,.51,0,0.36,0.36,0,0,1,.11.26v6.24H240a0.37,0.37,0,0,1,.36.37,0.37,0.37,0,0,1-.11.27,0.36,0.36,0,0,1-.25.11h-3.62A0.36,0.36,0,0,1,236.11,93.82Z"/><path class="cls-2" d="M243.37,93.56a0.36,0.36,0,0,1,.36-0.37h1.2V87.32h-1.2a0.37,0.37,0,0,1-.36-0.38,0.36,0.36,0,0,1,.36-0.37h3.13a0.37,0.37,0,0,1,0,.75h-1.2v5.86h1.2a0.37,0.37,0,0,1,0,.75h-3.13A0.37,0.37,0,0,1,243.37,93.56Z"/><path class="cls-2" d="M250.55,93.56V86.95a0.37,0.37,0,0,1,.36-0.37,0.33,0.33,0,0,1,.31.19l3,5.38v-5.2a0.36,0.36,0,0,1,.36-0.37,0.37,0.37,0,0,1,.36.37v6.61a0.37,0.37,0,0,1-.36.38,0.31,0.31,0,0,1-.31-0.19l-3-5.38v5.19A0.36,0.36,0,1,1,250.55,93.56Z"/><path class="cls-2" d="M258.12,93.56V87a0.37,0.37,0,0,1,.35-0.38h3.64a0.37,0.37,0,0,1,.35.39,0.36,0.36,0,0,1-.35.37h-3.28v2.55h2.55a0.37,0.37,0,0,1,0,.75h-2.55v2.56h3.28a0.37,0.37,0,0,1,0,.75h-3.64A0.36,0.36,0,0,1,258.12,93.56Z"/></g><rect class="cls-5" x="25" y="17.5" width="90" height="38.57"/></svg>