<svg id="bg" xmlns="http://www.w3.org/2000/svg" xmlns:xlink="http://www.w3.org/1999/xlink" viewBox="0 0 1366 570"><defs><style>.cls-1,.cls-2{fill:#fff;}.cls-1{opacity:0.16;}.cls-3{opacity:0.6;}.cls-4{opacity:0.1;}.cls-5,.cls-6{fill:none;}.cls-5{stroke:#fff;stroke-miterlimit:10;}.cls-7{opacity:0.72;}.cls-8{opacity:0.9;}.cls-9{fill:#3ec7f4;opacity:0.32;}</style><symbol id="New_Symbol" data-name="New Symbol" viewBox="0 0 133.73 46.42"><polygon class="cls-1" points="133.72 0 7.47 0 7.47 7.44 0.04 7.44 0.04 46.42 126.29 46.42 126.29 38.98 133.72 38.98 133.72 0"/><polygon class="cls-2" points="7.47 7.44 0.04 7.44 7.47 0 7.47 7.44"/><polygon class="cls-2" points="126.29 38.98 133.73 38.98 126.29 46.42 126.29 38.98"/><rect class="cls-2" x="129.73" width="4" height="4"/><polygon class="cls-2" points="2.02 46.42 2.02 44.42 0 44.42 0 46.42 2.02 46.42"/><polygon class="cls-2" points="14.92 46.42 15.5 45.42 14.92 44.42 2.02 44.42 2.02 46.42 14.92 46.42"/></symbol></defs><title>materials__1027</title><rect width="1366" height="570"/><g class="cls-3"><path class="cls-2" d="M797.24,73.31a241.19,241.19,0,0,0-228.48,0l-0.47-.88a242.19,242.19,0,0,1,229.43,0Z"/><path class="cls-2" d="M683,527.26a239.19,239.19,0,0,1-110.88-26.87l0.46-.89a241.23,241.23,0,0,0,220.85,0l0.46,0.89A239.19,239.19,0,0,1,683,527.26Z"/><path class="cls-2" d="M895.53,401.38a1.5,1.5,0,0,1-1.32-2.21A240.22,240.22,0,0,0,922.86,285.4a237.2,237.2,0,0,0-26.65-110,1.5,1.5,0,1,1,2.67-1.38,240.19,240.19,0,0,1,27,111.34,243.25,243.25,0,0,1-29,115.19A1.5,1.5,0,0,1,895.53,401.38Z"/><path class="cls-2" d="M470.47,401.38a1.5,1.5,0,0,1-1.32-.79,243.25,243.25,0,0,1-29-115.19,240.18,240.18,0,0,1,27-111.34,1.5,1.5,0,1,1,2.67,1.38,237.21,237.21,0,0,0-26.65,110,240.23,240.23,0,0,0,28.65,113.76A1.5,1.5,0,0,1,470.47,401.38Z"/><path class="cls-2" d="M797.48,73.37a0.5,0.5,0,0,1-.24-0.06,241.19,241.19,0,0,0-228.48,0,0.5,0.5,0,0,1-.47-0.88,242.19,242.19,0,0,1,229.43,0A0.5,0.5,0,0,1,797.48,73.37Z"/><path class="cls-2" d="M683,527.26a239.19,239.19,0,0,1-110.88-26.87,0.5,0.5,0,1,1,.46-0.89,241.23,241.23,0,0,0,220.85,0,0.5,0.5,0,0,1,.46.89A239.19,239.19,0,0,1,683,527.26Z"/><path class="cls-2" d="M896.14,401.91l-2.64-1.42,0.71-1.32A240.22,240.22,0,0,0,922.86,285.4a237.2,237.2,0,0,0-26.65-110l-0.69-1.33,2.67-1.38,0.69,1.33a240.19,240.19,0,0,1,27,111.34,243.25,243.25,0,0,1-29,115.19Z"/><path class="cls-2" d="M469.86,401.91l-0.71-1.32a243.25,243.25,0,0,1-29-115.19,240.18,240.18,0,0,1,27-111.34l0.69-1.33,2.67,1.38-0.69,1.33a237.21,237.21,0,0,0-26.65,110,240.23,240.23,0,0,0,28.65,113.76l0.71,1.32Z"/><path class="cls-2" d="M683,517.41A231.43,231.43,0,0,1,592.94,72.85,231.43,231.43,0,0,1,773.06,499.23,229.92,229.92,0,0,1,683,517.41Zm0-462.25a230.93,230.93,0,0,0-89.87,443.6A230.93,230.93,0,0,0,772.87,73.31,229.44,229.44,0,0,0,683,55.17Z"/></g><polygon class="cls-2" points="683 32.17 678.86 25 687.14 25 683 32.17"/><polygon class="cls-2" points="683 537.83 687.14 545 678.86 545 683 537.83"/><polygon class="cls-2" points="683 32.17 678.93 25 687.07 25 683 32.17"/><polygon class="cls-2" points="683 537.83 687.07 545 678.93 545 683 537.83"/><polygon class="cls-2" points="931.92 285 938.97 280.86 938.97 289.14 931.92 285"/><polygon class="cls-2" points="434.02 285 426.97 289.14 426.97 280.86 434.02 285"/><g class="cls-4"><line class="cls-5" x1="1366" y1="5.87" y2="5.87"/><line class="cls-5" x1="1366" y1="27.31" y2="27.31"/><line class="cls-5" x1="1366" y1="48.75" y2="48.75"/><line class="cls-5" x1="1366" y1="70.19" y2="70.19"/><line class="cls-5" x1="1366" y1="91.63" y2="91.63"/><line class="cls-5" x1="1366" y1="113.07" y2="113.07"/><line class="cls-5" x1="1366" y1="134.51" y2="134.51"/><line class="cls-5" x1="1366" y1="155.96" y2="155.96"/><line class="cls-5" x1="1366" y1="177.4" y2="177.4"/><line class="cls-5" x1="1366" y1="198.84" y2="198.84"/><line class="cls-5" x1="1366" y1="220.28" y2="220.28"/><line class="cls-5" x1="1366" y1="241.72" y2="241.72"/><line class="cls-5" x1="1366" y1="263.16" y2="263.16"/><line class="cls-5" x1="1366" y1="284.6" y2="284.6"/><line class="cls-5" x1="1366" y1="306.04" y2="306.04"/><line class="cls-5" x1="1366" y1="327.49" y2="327.49"/><line class="cls-5" x1="1366" y1="348.93" y2="348.93"/><line class="cls-5" x1="1366" y1="370.37" y2="370.37"/><line class="cls-5" x1="1366" y1="391.81" y2="391.81"/><line class="cls-5" x1="1366" y1="413.25" y2="413.25"/><line class="cls-5" x1="1366" y1="434.69" y2="434.69"/><line class="cls-5" x1="1366" y1="456.13" y2="456.13"/><line class="cls-5" x1="1366" y1="477.57" y2="477.57"/><line class="cls-5" x1="1366" y1="499.02" y2="499.02"/><line class="cls-5" x1="1366" y1="520.46" y2="520.46"/><line class="cls-5" x1="1366" y1="541.9" y2="541.9"/><line class="cls-5" x1="1366" y1="563.34" y2="563.34"/><line class="cls-5" x1="18.32" x2="18.32" y2="570"/><line class="cls-5" x1="39.76" x2="39.76" y2="570"/><line class="cls-5" x1="61.2" x2="61.2" y2="570"/><line class="cls-5" x1="82.65" x2="82.65" y2="570"/><line class="cls-5" x1="104.09" x2="104.09" y2="570"/><line class="cls-5" x1="125.53" x2="125.53" y2="570"/><line class="cls-5" x1="146.97" x2="146.97" y2="570"/><line class="cls-5" x1="168.41" x2="168.41" y2="570"/><line class="cls-5" x1="189.85" x2="189.85" y2="570"/><line class="cls-5" x1="211.29" x2="211.29" y2="570"/><line class="cls-5" x1="232.73" x2="232.73" y2="570"/><line class="cls-5" x1="254.17" x2="254.17" y2="570"/><line class="cls-5" x1="275.62" x2="275.62" y2="570"/><line class="cls-5" x1="297.06" x2="297.06" y2="570"/><line class="cls-5" x1="318.5" x2="318.5" y2="570"/><line class="cls-5" x1="339.94" x2="339.94" y2="570"/><line class="cls-5" x1="361.38" x2="361.38" y2="570"/><line class="cls-5" x1="382.82" x2="382.82" y2="570"/><line class="cls-5" x1="404.26" x2="404.26" y2="570"/><line class="cls-5" x1="425.7" x2="425.7" y2="570"/><line class="cls-5" x1="447.15" x2="447.15" y2="570"/><line class="cls-5" x1="468.59" x2="468.59" y2="570"/><line class="cls-5" x1="490.03" x2="490.03" y2="570"/><line class="cls-5" x1="511.47" x2="511.47" y2="570"/><line class="cls-5" x1="532.91" x2="532.91" y2="570"/><line class="cls-5" x1="554.35" x2="554.35" y2="570"/><line class="cls-5" x1="575.79" x2="575.79" y2="570"/><line class="cls-5" x1="597.23" x2="597.23" y2="570"/><line class="cls-5" x1="618.68" x2="618.68" y2="570"/><line class="cls-5" x1="640.12" x2="640.12" y2="570"/><line class="cls-5" x1="661.56" x2="661.56" y2="570"/><line class="cls-5" x1="683" x2="683" y2="570"/><line class="cls-5" x1="704.44" x2="704.44" y2="570"/><line class="cls-5" x1="725.88" x2="725.88" y2="570"/><line class="cls-5" x1="747.32" x2="747.32" y2="570"/><line class="cls-5" x1="768.76" x2="768.76" y2="570"/><line class="cls-5" x1="790.21" x2="790.21" y2="570"/><line class="cls-5" x1="811.65" x2="811.65" y2="570"/><line class="cls-5" x1="833.09" x2="833.09" y2="570"/><line class="cls-5" x1="854.53" x2="854.53" y2="570"/><line class="cls-5" x1="875.97" x2="875.97" y2="570"/><line class="cls-5" x1="897.41" x2="897.41" y2="570"/><line class="cls-5" x1="918.85" x2="918.85" y2="570"/><line class="cls-5" x1="940.29" x2="940.29" y2="570"/><line class="cls-5" x1="961.74" x2="961.74" y2="570"/><line class="cls-5" x1="983.18" x2="983.18" y2="570"/><line class="cls-5" x1="1004.62" x2="1004.62" y2="570"/><line class="cls-5" x1="1026.06" x2="1026.06" y2="570"/><line class="cls-5" x1="1047.5" x2="1047.5" y2="570"/><line class="cls-5" x1="1068.94" x2="1068.94" y2="570"/><line class="cls-5" x1="1090.38" x2="1090.38" y2="570"/><line class="cls-5" x1="1111.82" x2="1111.82" y2="570"/><line class="cls-5" x1="1133.27" x2="1133.27" y2="570"/><line class="cls-5" x1="1154.71" x2="1154.71" y2="570"/><line class="cls-5" x1="1176.15" x2="1176.15" y2="570"/><line class="cls-5" x1="1197.59" x2="1197.59" y2="570"/><line class="cls-5" x1="1219.03" x2="1219.03" y2="570"/><line class="cls-5" x1="1240.47" x2="1240.47" y2="570"/><line class="cls-5" x1="1261.91" x2="1261.91" y2="570"/><line class="cls-5" x1="1283.35" x2="1283.35" y2="570"/><line class="cls-5" x1="1304.8" x2="1304.8" y2="570"/><line class="cls-5" x1="1326.24" x2="1326.24" y2="570"/><line class="cls-5" x1="1347.68" x2="1347.68" y2="570"/></g><rect class="cls-6" width="1366" height="570"/><rect class="cls-6" width="1366" height="570"/><rect class="cls-6" x="79.82" y="134.91" width="150.09" height="64.32"/><g class="cls-7"><use id="New_Symbol-3" data-name="New Symbol" width="133.73" height="46.42" transform="translate(88 143.86)" xlink:href="#New_Symbol"/></g><g class="cls-8"><path class="cls-2" d="M108.53,160.18a0.37,0.37,0,1,1,.73,0,1.43,1.43,0,0,0,1.4,1.46,1.1,1.1,0,0,0,1.19-1,0.93,0.93,0,0,0-.32-0.75l-2-1.61a1.87,1.87,0,0,1,1.12-3.28,2.19,2.19,0,0,1,1.6.74,1.49,1.49,0,0,1,.35.68,0.39,0.39,0,0,1-.36.39,0.43,0.43,0,0,1-.33-0.23,1.38,1.38,0,0,0-1.26-.82,1.08,1.08,0,0,0-1,1.11,1,1,0,0,0,.39.82l2,1.61a1.69,1.69,0,0,1,.58,1.36,1.82,1.82,0,0,1-1.91,1.73A2.18,2.18,0,0,1,108.53,160.18Z"/><path class="cls-2" d="M115.13,160.21v-4.82a0.37,0.37,0,0,1,.36-0.38,0.38,0.38,0,0,1,.36.38v4.82a1.38,1.38,0,1,0,2.76,0v-4.82A0.37,0.37,0,0,1,119,155a0.38,0.38,0,0,1,.36.38v4.82A2.1,2.1,0,1,1,115.13,160.21Z"/><path class="cls-2" d="M121.92,162v-6.63a0.38,0.38,0,0,1,.36-0.38h1.6a2.27,2.27,0,0,1,0,4.54h-1.23V162a0.37,0.37,0,0,1-.37.38A0.38,0.38,0,0,1,121.92,162Zm2-3.23a1.51,1.51,0,0,0,0-3h-1.23v3h1.23Z"/><path class="cls-2" d="M128.58,162v-6.63a0.38,0.38,0,0,1,.36-0.38h1.6a2.27,2.27,0,0,1,0,4.54h-1.23V162a0.37,0.37,0,0,1-.37.38A0.38,0.38,0,0,1,128.58,162Zm2-3.23a1.51,1.51,0,0,0,0-3h-1.23v3h1.23Z"/><path class="cls-2" d="M135.11,160.25v-3.06a2.1,2.1,0,1,1,4.2,0v3.06A2.1,2.1,0,1,1,135.11,160.25Zm3.47,0v-3.06a1.37,1.37,0,1,0-2.74,0v3.06A1.37,1.37,0,1,0,138.58,160.25Z"/><path class="cls-2" d="M141.86,162v-6.63a0.38,0.38,0,0,1,.36-0.38h1.61a2.24,2.24,0,0,1,2.19,2.27,2.28,2.28,0,0,1-1.46,2.14l1.65,2.39a0.35,0.35,0,0,1,.07.21,0.38,0.38,0,0,1-.36.38,0.33,0.33,0,0,1-.3-0.16l-1.87-2.69h-1.16V162a0.37,0.37,0,0,1-.37.38A0.38,0.38,0,0,1,141.86,162Zm2-3.23a1.51,1.51,0,0,0,0-3h-1.24v3h1.24Z"/><path class="cls-2" d="M150.16,162v-6.25h-2a0.38,0.38,0,0,1,0-.76h4.84a0.38,0.38,0,0,1,0,.76h-2V162A0.37,0.37,0,1,1,150.16,162Z"/><path class="cls-2" d="M161.81,160.18a0.37,0.37,0,1,1,.73,0,1.43,1.43,0,0,0,1.4,1.46,1.1,1.1,0,0,0,1.19-1,0.93,0.93,0,0,0-.32-0.75l-2-1.61a1.87,1.87,0,0,1,1.12-3.28,2.19,2.19,0,0,1,1.6.74,1.49,1.49,0,0,1,.35.68,0.39,0.39,0,0,1-.36.39,0.43,0.43,0,0,1-.33-0.23,1.38,1.38,0,0,0-1.26-.82,1.08,1.08,0,0,0-1,1.11,1,1,0,0,0,.39.82l2,1.61a1.69,1.69,0,0,1,.58,1.36,1.82,1.82,0,0,1-1.91,1.73A2.18,2.18,0,0,1,161.81,160.18Z"/><path class="cls-2" d="M168.48,162v-6.63a0.37,0.37,0,0,1,.35-0.38h3.66a0.37,0.37,0,0,1,.35.39,0.36,0.36,0,0,1-.35.37h-3.3v2.56h2.56a0.37,0.37,0,0,1,0,.75h-2.56v2.57h3.3a0.38,0.38,0,0,1,0,.75h-3.66A0.36,0.36,0,0,1,168.48,162Z"/><path class="cls-2" d="M175.16,162v-6.63a0.38,0.38,0,0,1,.36-0.38h1.61a2.24,2.24,0,0,1,2.19,2.27,2.28,2.28,0,0,1-1.46,2.14l1.65,2.39a0.35,0.35,0,0,1,.07.21,0.38,0.38,0,0,1-.36.38,0.33,0.33,0,0,1-.3-0.16L177,159.55h-1.16V162a0.37,0.37,0,0,1-.37.38A0.38,0.38,0,0,1,175.16,162Zm2-3.23a1.51,1.51,0,0,0,0-3h-1.24v3h1.24Z"/><path class="cls-2" d="M183.49,162.16l-1.95-6.57a0.66,0.66,0,0,1,0-.19,0.35,0.35,0,0,1,.36-0.39,0.37,0.37,0,0,1,.35.27l1.61,5.45,1.61-5.45a0.37,0.37,0,0,1,.35-0.27,0.33,0.33,0,0,1,.37.36,1,1,0,0,1,0,.22l-1.95,6.57A0.36,0.36,0,0,1,183.49,162.16Z"/><path class="cls-2" d="M188.46,162v-6.63a0.37,0.37,0,0,1,.35-0.38h3.66a0.37,0.37,0,0,1,.35.39,0.36,0.36,0,0,1-.35.37h-3.3v2.56h2.56a0.37,0.37,0,0,1,0,.75h-2.56v2.57h3.3a0.38,0.38,0,0,1,0,.75h-3.66A0.36,0.36,0,0,1,188.46,162Z"/><path class="cls-2" d="M195.14,162v-6.63a0.38,0.38,0,0,1,.36-0.38h1.61a2.24,2.24,0,0,1,2.19,2.27,2.28,2.28,0,0,1-1.46,2.14l1.65,2.39a0.35,0.35,0,0,1,.07.21,0.38,0.38,0,0,1-.36.38,0.33,0.33,0,0,1-.3-0.16L197,159.55h-1.16V162a0.37,0.37,0,0,1-.37.38A0.38,0.38,0,0,1,195.14,162Zm2-3.23a1.51,1.51,0,0,0,0-3h-1.24v3h1.24Z"/><path class="cls-2" d="M114.2,181V170.43a0.59,0.59,0,0,1,.56-0.61h5.86a0.59,0.59,0,0,1,.56.62,0.57,0.57,0,0,1-.56.59h-5.28v4.1h4.1a0.6,0.6,0,0,1,0,1.2h-4.1v4.11h5.28a0.6,0.6,0,0,1,0,1.2h-5.86A0.58,0.58,0,0,1,114.2,181Z"/><path class="cls-2" d="M126.11,181.06a0.5,0.5,0,0,1,.08-0.29l2.55-5-2.55-5a0.81,0.81,0,0,1-.06-0.32,0.57,0.57,0,0,1,.58-0.58,0.55,0.55,0,0,1,.51.34l2.18,4.29,2.18-4.29a0.55,0.55,0,0,1,.51-0.34,0.55,0.55,0,0,1,.58.58,0.76,0.76,0,0,1-.06.32l-2.54,5,2.54,5a0.79,0.79,0,0,1,.08.3,0.58,0.58,0,0,1-1.1.26L129.39,177l-2.18,4.31a0.59,0.59,0,0,1-.51.32A0.6,0.6,0,0,1,126.11,181.06Z"/><path class="cls-2" d="M138.17,181V170.43a0.61,0.61,0,0,1,.58-0.61h2.56a3.64,3.64,0,0,1,0,7.27h-2v4a0.59,0.59,0,0,1-.59.61A0.6,0.6,0,0,1,138.17,181Zm3.14-5.17a2.42,2.42,0,0,0,0-4.83h-2v4.83h2Z"/><path class="cls-2" d="M150,181V170.43a0.61,0.61,0,0,1,.58-0.61h2.58a3.58,3.58,0,0,1,3.51,3.63,3.66,3.66,0,0,1-2.34,3.43l2.64,3.83a0.56,0.56,0,0,1,.11.34,0.6,0.6,0,0,1-.58.61,0.53,0.53,0,0,1-.48-0.26l-3-4.31h-1.86v4a0.59,0.59,0,0,1-.59.61A0.6,0.6,0,0,1,150,181Zm3.15-5.17a2.42,2.42,0,0,0,0-4.83h-2v4.83h2Z"/><path class="cls-2" d="M161.95,181V170.43a0.59,0.59,0,0,1,.56-0.61h5.86a0.59,0.59,0,0,1,.56.62,0.57,0.57,0,0,1-.56.59h-5.28v4.1h4.1a0.6,0.6,0,0,1,0,1.2h-4.1v4.11h5.28a0.6,0.6,0,0,1,0,1.2h-5.86A0.58,0.58,0,0,1,161.95,181Z"/><path class="cls-2" d="M173.87,178.1a0.58,0.58,0,1,1,1.17,0,2.29,2.29,0,0,0,2.24,2.34,1.76,1.76,0,0,0,1.91-1.58,1.49,1.49,0,0,0-.51-1.2l-3.19-2.58a3,3,0,0,1,1.79-5.25,3.51,3.51,0,0,1,2.56,1.18,2.38,2.38,0,0,1,.56,1.09,0.63,0.63,0,0,1-.58.62,0.69,0.69,0,0,1-.53-0.37,2.22,2.22,0,0,0-2-1.31,1.73,1.73,0,0,0-1.68,1.78,1.65,1.65,0,0,0,.62,1.31l3.19,2.58a2.7,2.7,0,0,1,.93,2.18,2.92,2.92,0,0,1-3.06,2.77A3.49,3.49,0,0,1,173.87,178.1Z"/><path class="cls-2" d="M185.8,178.1a0.58,0.58,0,1,1,1.17,0,2.29,2.29,0,0,0,2.24,2.34,1.76,1.76,0,0,0,1.91-1.58,1.49,1.49,0,0,0-.51-1.2l-3.19-2.58a3,3,0,0,1,1.79-5.25,3.51,3.51,0,0,1,2.56,1.18,2.38,2.38,0,0,1,.56,1.09,0.63,0.63,0,0,1-.58.62,0.69,0.69,0,0,1-.53-0.37,2.22,2.22,0,0,0-2-1.31,1.73,1.73,0,0,0-1.68,1.78,1.65,1.65,0,0,0,.62,1.31l3.19,2.58a2.7,2.7,0,0,1,.93,2.18,2.92,2.92,0,0,1-3.06,2.77A3.49,3.49,0,0,1,185.8,178.1Z"/></g><rect class="cls-6" x="229.92" y="134.91" width="150.09" height="64.32"/><g class="cls-7"><use id="New_Symbol-6" data-name="New Symbol" width="133.73" height="46.42" transform="translate(238.1 143.86)" xlink:href="#New_Symbol"/></g><g class="cls-8"><path class="cls-2" d="M258.64,160.18a0.37,0.37,0,1,1,.73,0,1.43,1.43,0,0,0,1.4,1.46,1.1,1.1,0,0,0,1.19-1,0.93,0.93,0,0,0-.32-0.75l-2-1.61a1.87,1.87,0,0,1,1.12-3.28,2.19,2.19,0,0,1,1.6.74,1.49,1.49,0,0,1,.35.68,0.39,0.39,0,0,1-.36.39,0.43,0.43,0,0,1-.33-0.23,1.38,1.38,0,0,0-1.26-.82,1.08,1.08,0,0,0-1,1.11,1,1,0,0,0,.39.82l2,1.61a1.69,1.69,0,0,1,.58,1.36,1.82,1.82,0,0,1-1.91,1.73A2.18,2.18,0,0,1,258.64,160.18Z"/><path class="cls-2" d="M265.24,160.21v-4.82a0.37,0.37,0,0,1,.36-0.38,0.38,0.38,0,0,1,.36.38v4.82a1.38,1.38,0,1,0,2.76,0v-4.82a0.37,0.37,0,0,1,.36-0.38,0.38,0.38,0,0,1,.36.38v4.82A2.1,2.1,0,1,1,265.24,160.21Z"/><path class="cls-2" d="M272,162v-6.63a0.38,0.38,0,0,1,.36-0.38H274a2.27,2.27,0,0,1,0,4.54h-1.23V162a0.37,0.37,0,0,1-.37.38A0.38,0.38,0,0,1,272,162Zm2-3.23a1.51,1.51,0,0,0,0-3h-1.23v3H274Z"/><path class="cls-2" d="M278.69,162v-6.63A0.38,0.38,0,0,1,279,155h1.6a2.27,2.27,0,0,1,0,4.54h-1.23V162a0.37,0.37,0,0,1-.37.38A0.38,0.38,0,0,1,278.69,162Zm2-3.23a1.51,1.51,0,0,0,0-3h-1.23v3h1.23Z"/><path class="cls-2" d="M285.22,160.25v-3.06a2.1,2.1,0,1,1,4.2,0v3.06A2.1,2.1,0,1,1,285.22,160.25Zm3.47,0v-3.06a1.37,1.37,0,1,0-2.74,0v3.06A1.37,1.37,0,1,0,288.69,160.25Z"/><path class="cls-2" d="M292,162v-6.63a0.38,0.38,0,0,1,.36-0.38h1.61a2.24,2.24,0,0,1,2.19,2.27,2.28,2.28,0,0,1-1.46,2.14l1.65,2.39a0.35,0.35,0,0,1,.07.21,0.38,0.38,0,0,1-.36.38,0.33,0.33,0,0,1-.3-0.16l-1.87-2.69H292.7V162a0.37,0.37,0,0,1-.37.38A0.38,0.38,0,0,1,292,162Zm2-3.23a1.51,1.51,0,0,0,0-3H292.7v3h1.24Z"/><path class="cls-2" d="M300.27,162v-6.25h-2a0.38,0.38,0,0,1,0-.76h4.84a0.38,0.38,0,0,1,0,.76h-2V162A0.37,0.37,0,1,1,300.27,162Z"/><path class="cls-2" d="M311.92,160.18a0.37,0.37,0,1,1,.73,0,1.43,1.43,0,0,0,1.4,1.46,1.1,1.1,0,0,0,1.19-1,0.93,0.93,0,0,0-.32-0.75l-2-1.61A1.87,1.87,0,0,1,314,155a2.19,2.19,0,0,1,1.6.74,1.49,1.49,0,0,1,.35.68,0.39,0.39,0,0,1-.36.39,0.43,0.43,0,0,1-.33-0.23,1.38,1.38,0,0,0-1.26-.82,1.08,1.08,0,0,0-1,1.11,1,1,0,0,0,.39.82l2,1.61a1.69,1.69,0,0,1,.58,1.36A1.82,1.82,0,0,1,314,162.4,2.18,2.18,0,0,1,311.92,160.18Z"/><path class="cls-2" d="M318.59,162v-6.63a0.37,0.37,0,0,1,.35-0.38h3.66a0.37,0.37,0,0,1,.35.39,0.36,0.36,0,0,1-.35.37h-3.3v2.56h2.56a0.37,0.37,0,0,1,0,.75H319.3v2.57h3.3a0.38,0.38,0,0,1,0,.75h-3.66A0.36,0.36,0,0,1,318.59,162Z"/><path class="cls-2" d="M325.27,162v-6.63a0.38,0.38,0,0,1,.36-0.38h1.61a2.24,2.24,0,0,1,2.19,2.27,2.28,2.28,0,0,1-1.46,2.14l1.65,2.39a0.35,0.35,0,0,1,.07.21,0.38,0.38,0,0,1-.36.38,0.33,0.33,0,0,1-.3-0.16l-1.87-2.69H326V162a0.37,0.37,0,0,1-.37.38A0.38,0.38,0,0,1,325.27,162Zm2-3.23a1.51,1.51,0,0,0,0-3H326v3h1.24Z"/><path class="cls-2" d="M333.6,162.16l-1.95-6.57a0.66,0.66,0,0,1,0-.19A0.35,0.35,0,0,1,332,155a0.37,0.37,0,0,1,.35.27l1.61,5.45,1.61-5.45a0.37,0.37,0,0,1,.35-0.27,0.33,0.33,0,0,1,.37.36,1,1,0,0,1,0,.22l-1.95,6.57A0.36,0.36,0,0,1,333.6,162.16Z"/><path class="cls-2" d="M338.57,162v-6.63a0.37,0.37,0,0,1,.35-0.38h3.66a0.37,0.37,0,0,1,.35.39,0.36,0.36,0,0,1-.35.37h-3.3v2.56h2.56a0.37,0.37,0,0,1,0,.75h-2.56v2.57h3.3a0.38,0.38,0,0,1,0,.75h-3.66A0.36,0.36,0,0,1,338.57,162Z"/><path class="cls-2" d="M345.25,162v-6.63a0.38,0.38,0,0,1,.36-0.38h1.61a2.24,2.24,0,0,1,2.19,2.27,2.28,2.28,0,0,1-1.46,2.14l1.65,2.39a0.35,0.35,0,0,1,.07.21,0.38,0.38,0,0,1-.36.38,0.33,0.33,0,0,1-.3-0.16l-1.87-2.69H346V162a0.37,0.37,0,0,1-.37.38A0.38,0.38,0,0,1,345.25,162Zm2-3.23a1.51,1.51,0,0,0,0-3H346v3h1.24Z"/><path class="cls-2" d="M288.33,181V170.41a0.59,0.59,0,0,1,.58-0.59,0.6,0.6,0,0,1,.59.59v5.79l3.78-6.11a0.57,0.57,0,0,1,.5-0.27,0.6,0.6,0,0,1,.58.61,0.56,0.56,0,0,1-.1.3l-2.42,3.92,3.59,6.08a0.86,0.86,0,0,1,.08.34,0.57,0.57,0,0,1-.58.58,0.53,0.53,0,0,1-.5-0.29l-3.3-5.57-1.63,2.66V181A0.58,0.58,0,1,1,288.33,181Z"/><path class="cls-2" d="M300,178.21v-4.9a3.36,3.36,0,1,1,6.72,0v4.9A3.36,3.36,0,1,1,300,178.21Zm5.55,0v-4.9a2.19,2.19,0,1,0-4.39,0v4.9A2.19,2.19,0,1,0,305.56,178.21Z"/><path class="cls-2" d="M310.79,181l4-10.85a0.55,0.55,0,0,1,.54-0.37,0.54,0.54,0,0,1,.54.37l4,10.85a0.59,0.59,0,0,1-1.14.22l-1-2.67h-4.77l-1,2.67a0.57,0.57,0,0,1-.54.38A0.59,0.59,0,0,1,310.79,181Zm6.45-3.65-1.94-5.25-1.94,5.25h3.87Z"/></g><rect class="cls-6" x="79.82" y="199.24" width="150.09" height="64.32"/><g class="cls-7"><use id="New_Symbol-9" data-name="New Symbol" width="133.73" height="46.42" transform="translate(88 208.19)" xlink:href="#New_Symbol"/></g><g class="cls-8"><path class="cls-2" d="M108.53,224.5a0.37,0.37,0,1,1,.73,0,1.43,1.43,0,0,0,1.4,1.46,1.1,1.1,0,0,0,1.19-1,0.93,0.93,0,0,0-.32-0.75l-2-1.61a1.87,1.87,0,0,1,1.12-3.28,2.19,2.19,0,0,1,1.6.74,1.48,1.48,0,0,1,.35.68,0.39,0.39,0,0,1-.36.39,0.43,0.43,0,0,1-.33-0.23,1.38,1.38,0,0,0-1.26-.82,1.08,1.08,0,0,0-1,1.11,1,1,0,0,0,.39.82l2,1.61a1.69,1.69,0,0,1,.58,1.36,1.82,1.82,0,0,1-1.91,1.73A2.18,2.18,0,0,1,108.53,224.5Z"/><path class="cls-2" d="M115.13,224.53v-4.82a0.37,0.37,0,0,1,.36-0.38,0.38,0.38,0,0,1,.36.38v4.82a1.38,1.38,0,1,0,2.76,0v-4.82a0.37,0.37,0,0,1,.36-0.38,0.38,0.38,0,0,1,.36.38v4.82A2.1,2.1,0,1,1,115.13,224.53Z"/><path class="cls-2" d="M121.92,226.34v-6.63a0.38,0.38,0,0,1,.36-0.38h1.6a2.27,2.27,0,0,1,0,4.54h-1.23v2.47a0.37,0.37,0,0,1-.37.38A0.38,0.38,0,0,1,121.92,226.34Zm2-3.23a1.51,1.51,0,0,0,0-3h-1.23v3h1.23Z"/><path class="cls-2" d="M128.58,226.34v-6.63a0.38,0.38,0,0,1,.36-0.38h1.6a2.27,2.27,0,0,1,0,4.54h-1.23v2.47a0.37,0.37,0,0,1-.37.38A0.38,0.38,0,0,1,128.58,226.34Zm2-3.23a1.51,1.51,0,0,0,0-3h-1.23v3h1.23Z"/><path class="cls-2" d="M135.11,224.57v-3.06a2.1,2.1,0,1,1,4.2,0v3.06A2.1,2.1,0,1,1,135.11,224.57Zm3.47,0v-3.06a1.37,1.37,0,1,0-2.74,0v3.06A1.37,1.37,0,1,0,138.58,224.57Z"/><path class="cls-2" d="M141.86,226.34v-6.63a0.38,0.38,0,0,1,.36-0.38h1.61A2.24,2.24,0,0,1,146,221.6a2.28,2.28,0,0,1-1.46,2.14l1.65,2.39a0.35,0.35,0,0,1,.07.21,0.38,0.38,0,0,1-.36.38,0.33,0.33,0,0,1-.3-0.16l-1.87-2.69h-1.16v2.47a0.37,0.37,0,0,1-.37.38A0.38,0.38,0,0,1,141.86,226.34Zm2-3.23a1.51,1.51,0,0,0,0-3h-1.24v3h1.24Z"/><path class="cls-2" d="M150.16,226.34v-6.25h-2a0.38,0.38,0,0,1,0-.76h4.84a0.38,0.38,0,0,1,0,.76h-2v6.25A0.37,0.37,0,1,1,150.16,226.34Z"/><path class="cls-2" d="M161.81,224.5a0.37,0.37,0,1,1,.73,0,1.43,1.43,0,0,0,1.4,1.46,1.1,1.1,0,0,0,1.19-1,0.93,0.93,0,0,0-.32-0.75l-2-1.61a1.87,1.87,0,0,1,1.12-3.28,2.19,2.19,0,0,1,1.6.74,1.48,1.48,0,0,1,.35.68,0.39,0.39,0,0,1-.36.39,0.43,0.43,0,0,1-.33-0.23,1.38,1.38,0,0,0-1.26-.82,1.08,1.08,0,0,0-1,1.11,1,1,0,0,0,.39.82l2,1.61a1.69,1.69,0,0,1,.58,1.36,1.82,1.82,0,0,1-1.91,1.73A2.18,2.18,0,0,1,161.81,224.5Z"/><path class="cls-2" d="M168.48,226.34v-6.63a0.37,0.37,0,0,1,.35-0.38h3.66a0.37,0.37,0,0,1,.35.39,0.36,0.36,0,0,1-.35.37h-3.3v2.56h2.56a0.38,0.38,0,0,1,0,.75h-2.56V226h3.3a0.38,0.38,0,0,1,0,.75h-3.66A0.36,0.36,0,0,1,168.48,226.34Z"/><path class="cls-2" d="M175.16,226.34v-6.63a0.38,0.38,0,0,1,.36-0.38h1.61a2.24,2.24,0,0,1,2.19,2.27,2.28,2.28,0,0,1-1.46,2.14l1.65,2.39a0.35,0.35,0,0,1,.07.21,0.38,0.38,0,0,1-.36.38,0.33,0.33,0,0,1-.3-0.16L177,223.87h-1.16v2.47a0.37,0.37,0,0,1-.37.38A0.38,0.38,0,0,1,175.16,226.34Zm2-3.23a1.51,1.51,0,0,0,0-3h-1.24v3h1.24Z"/><path class="cls-2" d="M183.49,226.48l-1.95-6.57a0.66,0.66,0,0,1,0-.19,0.36,0.36,0,0,1,.36-0.39,0.37,0.37,0,0,1,.35.27l1.61,5.45,1.61-5.45a0.37,0.37,0,0,1,.35-0.27,0.33,0.33,0,0,1,.37.36,1,1,0,0,1,0,.22l-1.95,6.57A0.36,0.36,0,0,1,183.49,226.48Z"/><path class="cls-2" d="M188.46,226.34v-6.63a0.37,0.37,0,0,1,.35-0.38h3.66a0.37,0.37,0,0,1,.35.39,0.36,0.36,0,0,1-.35.37h-3.3v2.56h2.56a0.38,0.38,0,0,1,0,.75h-2.56V226h3.3a0.38,0.38,0,0,1,0,.75h-3.66A0.36,0.36,0,0,1,188.46,226.34Z"/><path class="cls-2" d="M195.14,226.34v-6.63a0.38,0.38,0,0,1,.36-0.38h1.61a2.24,2.24,0,0,1,2.19,2.27,2.28,2.28,0,0,1-1.46,2.14l1.65,2.39a0.35,0.35,0,0,1,.07.21,0.38,0.38,0,0,1-.36.38,0.33,0.33,0,0,1-.3-0.16L197,223.87h-1.16v2.47a0.37,0.37,0,0,1-.37.38A0.38,0.38,0,0,1,195.14,226.34Zm2-3.23a1.51,1.51,0,0,0,0-3h-1.24v3h1.24Z"/><path class="cls-2" d="M125.53,245.37V234.74a0.6,0.6,0,0,1,.58-0.59,0.55,0.55,0,0,1,.53.34l2.75,5.83,2.75-5.83a0.55,0.55,0,0,1,.53-0.34,0.6,0.6,0,0,1,.58.59v10.63a0.58,0.58,0,0,1-.58.61,0.59,0.59,0,0,1-.59-0.61v-8l-2.16,4.58a0.58,0.58,0,0,1-1.06,0l-2.16-4.58v8A0.58,0.58,0,1,1,125.53,245.37Z"/><path class="cls-2" d="M138.24,245.37a0.58,0.58,0,0,1,.58-0.59h1.94v-9.43h-1.94a0.59,0.59,0,0,1-.58-0.61,0.58,0.58,0,0,1,.58-0.59h5a0.6,0.6,0,0,1,0,1.2H141.9v9.43h1.94a0.6,0.6,0,0,1,0,1.2h-5A0.59,0.59,0,0,1,138.24,245.37Z"/><path class="cls-2" d="M150.08,242.49v-4.85a3.35,3.35,0,1,1,6.69,0,0.58,0.58,0,0,1-.58.61,0.59,0.59,0,0,1-.58-0.61,2.19,2.19,0,1,0-4.39,0v4.85a2.19,2.19,0,1,0,4.39,0,0.58,0.58,0,1,1,1.15,0A3.35,3.35,0,1,1,150.08,242.49Z"/><path class="cls-2" d="M162,245.37V234.75a0.61,0.61,0,0,1,.58-0.61h2.58a3.58,3.58,0,0,1,3.51,3.63,3.65,3.65,0,0,1-2.34,3.42l2.64,3.83a0.56,0.56,0,0,1,.11.34,0.6,0.6,0,0,1-.58.61,0.53,0.53,0,0,1-.48-0.26l-3-4.3h-1.86v4a0.6,0.6,0,0,1-.59.61A0.6,0.6,0,0,1,162,245.37Zm3.15-5.17a2.42,2.42,0,0,0,0-4.83h-2v4.83h2Z"/><path class="cls-2" d="M173.77,242.53v-4.9a3.36,3.36,0,1,1,6.72,0v4.9A3.36,3.36,0,1,1,173.77,242.53Zm5.55,0v-4.9a2.19,2.19,0,1,0-4.39,0v4.9A2.19,2.19,0,1,0,179.33,242.53Z"/></g><rect class="cls-6" x="229.92" y="199.24" width="150.09" height="64.32"/><g class="cls-7"><use id="New_Symbol-12" data-name="New Symbol" width="133.73" height="46.42" transform="translate(238.1 208.19)" xlink:href="#New_Symbol"/></g><g class="cls-8"><path class="cls-2" d="M258.64,224.5a0.37,0.37,0,1,1,.73,0,1.43,1.43,0,0,0,1.4,1.46,1.1,1.1,0,0,0,1.19-1,0.93,0.93,0,0,0-.32-0.75l-2-1.61a1.87,1.87,0,0,1,1.12-3.28,2.19,2.19,0,0,1,1.6.74,1.48,1.48,0,0,1,.35.68,0.39,0.39,0,0,1-.36.39,0.43,0.43,0,0,1-.33-0.23,1.38,1.38,0,0,0-1.26-.82,1.08,1.08,0,0,0-1,1.11,1,1,0,0,0,.39.82l2,1.61a1.69,1.69,0,0,1,.58,1.36,1.82,1.82,0,0,1-1.91,1.73A2.18,2.18,0,0,1,258.64,224.5Z"/><path class="cls-2" d="M265.24,224.53v-4.82a0.37,0.37,0,0,1,.36-0.38,0.38,0.38,0,0,1,.36.38v4.82a1.38,1.38,0,1,0,2.76,0v-4.82a0.37,0.37,0,0,1,.36-0.38,0.38,0.38,0,0,1,.36.38v4.82A2.1,2.1,0,1,1,265.24,224.53Z"/><path class="cls-2" d="M272,226.34v-6.63a0.38,0.38,0,0,1,.36-0.38H274a2.27,2.27,0,0,1,0,4.54h-1.23v2.47a0.37,0.37,0,0,1-.37.38A0.38,0.38,0,0,1,272,226.34Zm2-3.23a1.51,1.51,0,0,0,0-3h-1.23v3H274Z"/><path class="cls-2" d="M278.69,226.34v-6.63a0.38,0.38,0,0,1,.36-0.38h1.6a2.27,2.27,0,0,1,0,4.54h-1.23v2.47a0.37,0.37,0,0,1-.37.38A0.38,0.38,0,0,1,278.69,226.34Zm2-3.23a1.51,1.51,0,0,0,0-3h-1.23v3h1.23Z"/><path class="cls-2" d="M285.22,224.57v-3.06a2.1,2.1,0,1,1,4.2,0v3.06A2.1,2.1,0,1,1,285.22,224.57Zm3.47,0v-3.06a1.37,1.37,0,1,0-2.74,0v3.06A1.37,1.37,0,1,0,288.69,224.57Z"/><path class="cls-2" d="M292,226.34v-6.63a0.38,0.38,0,0,1,.36-0.38h1.61a2.24,2.24,0,0,1,2.19,2.27,2.28,2.28,0,0,1-1.46,2.14l1.65,2.39a0.35,0.35,0,0,1,.07.21,0.38,0.38,0,0,1-.36.38,0.33,0.33,0,0,1-.3-0.16l-1.87-2.69H292.7v2.47a0.37,0.37,0,0,1-.37.38A0.38,0.38,0,0,1,292,226.34Zm2-3.23a1.51,1.51,0,0,0,0-3H292.7v3h1.24Z"/><path class="cls-2" d="M300.27,226.34v-6.25h-2a0.38,0.38,0,0,1,0-.76h4.84a0.38,0.38,0,0,1,0,.76h-2v6.25A0.37,0.37,0,1,1,300.27,226.34Z"/><path class="cls-2" d="M311.92,224.5a0.37,0.37,0,1,1,.73,0A1.43,1.43,0,0,0,314,226a1.1,1.1,0,0,0,1.19-1,0.93,0.93,0,0,0-.32-0.75l-2-1.61a1.87,1.87,0,0,1,1.12-3.28,2.19,2.19,0,0,1,1.6.74,1.48,1.48,0,0,1,.35.68,0.39,0.39,0,0,1-.36.39,0.43,0.43,0,0,1-.33-0.23,1.38,1.38,0,0,0-1.26-.82,1.08,1.08,0,0,0-1,1.11,1,1,0,0,0,.39.82l2,1.61A1.69,1.69,0,0,1,316,225a1.82,1.82,0,0,1-1.91,1.73A2.18,2.18,0,0,1,311.92,224.5Z"/><path class="cls-2" d="M318.59,226.34v-6.63a0.37,0.37,0,0,1,.35-0.38h3.66a0.37,0.37,0,0,1,.35.39,0.36,0.36,0,0,1-.35.37h-3.3v2.56h2.56a0.38,0.38,0,0,1,0,.75H319.3V226h3.3a0.38,0.38,0,0,1,0,.75h-3.66A0.36,0.36,0,0,1,318.59,226.34Z"/><path class="cls-2" d="M325.27,226.34v-6.63a0.38,0.38,0,0,1,.36-0.38h1.61a2.24,2.24,0,0,1,2.19,2.27,2.28,2.28,0,0,1-1.46,2.14l1.65,2.39a0.35,0.35,0,0,1,.07.21,0.38,0.38,0,0,1-.36.38,0.33,0.33,0,0,1-.3-0.16l-1.87-2.69H326v2.47a0.37,0.37,0,0,1-.37.38A0.38,0.38,0,0,1,325.27,226.34Zm2-3.23a1.51,1.51,0,0,0,0-3H326v3h1.24Z"/><path class="cls-2" d="M333.6,226.48l-1.95-6.57a0.66,0.66,0,0,1,0-.19,0.36,0.36,0,0,1,.36-0.39,0.37,0.37,0,0,1,.35.27l1.61,5.45,1.61-5.45a0.37,0.37,0,0,1,.35-0.27,0.33,0.33,0,0,1,.37.36,1,1,0,0,1,0,.22l-1.95,6.57A0.36,0.36,0,0,1,333.6,226.48Z"/><path class="cls-2" d="M338.57,226.34v-6.63a0.37,0.37,0,0,1,.35-0.38h3.66a0.37,0.37,0,0,1,.35.39,0.36,0.36,0,0,1-.35.37h-3.3v2.56h2.56a0.38,0.38,0,0,1,0,.75h-2.56V226h3.3a0.38,0.38,0,0,1,0,.75h-3.66A0.36,0.36,0,0,1,338.57,226.34Z"/><path class="cls-2" d="M345.25,226.34v-6.63a0.38,0.38,0,0,1,.36-0.38h1.61a2.24,2.24,0,0,1,2.19,2.27,2.28,2.28,0,0,1-1.46,2.14l1.65,2.39a0.35,0.35,0,0,1,.07.21,0.38,0.38,0,0,1-.36.38,0.33,0.33,0,0,1-.3-0.16l-1.87-2.69H346v2.47a0.37,0.37,0,0,1-.37.38A0.38,0.38,0,0,1,345.25,226.34Zm2-3.23a1.51,1.51,0,0,0,0-3H346v3h1.24Z"/><path class="cls-2" d="M264.34,245.37V234.75a0.61,0.61,0,0,1,.58-0.61h2.58a3.58,3.58,0,0,1,3.51,3.63,3.65,3.65,0,0,1-2.34,3.42l2.64,3.83a0.56,0.56,0,0,1,.11.34,0.6,0.6,0,0,1-.58.61,0.53,0.53,0,0,1-.48-0.26l-3-4.3h-1.86v4a0.6,0.6,0,0,1-.59.61A0.6,0.6,0,0,1,264.34,245.37Zm3.15-5.17a2.42,2.42,0,0,0,0-4.83h-2v4.83h2Z"/><path class="cls-2" d="M276.25,245.37V234.75a0.59,0.59,0,0,1,.56-0.61h5.86a0.59,0.59,0,0,1,.56.63,0.57,0.57,0,0,1-.56.59h-5.28v4.1h4.1a0.6,0.6,0,0,1,0,1.2h-4.1v4.11h5.28a0.6,0.6,0,0,1,0,1.2h-5.86A0.58,0.58,0,0,1,276.25,245.37Z"/><path class="cls-2" d="M288.17,242.42a0.58,0.58,0,1,1,1.17,0,2.29,2.29,0,0,0,2.24,2.34,1.76,1.76,0,0,0,1.91-1.59A1.49,1.49,0,0,0,293,242l-3.19-2.58a3,3,0,0,1,1.79-5.25,3.51,3.51,0,0,1,2.56,1.18,2.38,2.38,0,0,1,.56,1.09,0.63,0.63,0,0,1-.58.62,0.69,0.69,0,0,1-.53-0.37,2.22,2.22,0,0,0-2-1.31,1.73,1.73,0,0,0-1.68,1.78,1.65,1.65,0,0,0,.62,1.31l3.19,2.58a2.7,2.7,0,0,1,.93,2.18,2.92,2.92,0,0,1-3.06,2.77A3.49,3.49,0,0,1,288.17,242.42Z"/><path class="cls-2" d="M302.78,245.37v-10H299.5a0.61,0.61,0,0,1,0-1.22h7.75a0.61,0.61,0,0,1,0,1.22H304v10A0.59,0.59,0,1,1,302.78,245.37Z"/><path class="cls-2" d="M312.22,245.37a0.58,0.58,0,0,1,.58-0.59h1.94v-9.43h-1.94a0.59,0.59,0,0,1-.58-0.61,0.58,0.58,0,0,1,.58-0.59h5a0.6,0.6,0,0,1,0,1.2h-1.94v9.43h1.94a0.6,0.6,0,0,1,0,1.2h-5A0.59,0.59,0,0,1,312.22,245.37Z"/><path class="cls-2" d="M324.47,245.37V234.75a0.59,0.59,0,0,1,.56-0.61h5.54a0.61,0.61,0,0,1,.58.61,0.6,0.6,0,0,1-.58.61h-5v4.1h3.78a0.6,0.6,0,0,1,0,1.2h-3.78v4.71a0.59,0.59,0,0,1-.58.61A0.58,0.58,0,0,1,324.47,245.37Z"/><path class="cls-2" d="M338.6,245.37v-5.15L336,235a0.79,0.79,0,0,1-.08-0.29,0.61,0.61,0,0,1,.58-0.61,0.53,0.53,0,0,1,.51.34l2.18,4.29,2.18-4.29a0.53,0.53,0,0,1,.51-0.34,0.61,0.61,0,0,1,.58.61,0.79,0.79,0,0,1-.08.29l-2.61,5.17v5.15A0.58,0.58,0,1,1,338.6,245.37Z"/></g><rect class="cls-6" x="79.82" y="306.5" width="150.09" height="64.32"/><g class="cls-7"><use id="New_Symbol-15" data-name="New Symbol" width="133.73" height="46.42" transform="translate(88 315.45)" xlink:href="#New_Symbol"/></g><path class="cls-2" d="M121.46,352.63V342a0.6,0.6,0,0,1,.58-0.59,0.55,0.55,0,0,1,.53.34l2.75,5.83,2.75-5.83a0.55,0.55,0,0,1,.53-0.34,0.6,0.6,0,0,1,.58.59v10.63a0.58,0.58,0,0,1-.58.61,0.59,0.59,0,0,1-.59-0.61v-8l-2.16,4.58a0.58,0.58,0,0,1-1.06,0l-2.16-4.58v8A0.58,0.58,0,1,1,121.46,352.63Z"/><path class="cls-2" d="M134,352.63V342a0.59,0.59,0,0,1,.56-0.61h5.86a0.59,0.59,0,0,1,.56.62,0.57,0.57,0,0,1-.56.59h-5.28v4.1h4.1a0.6,0.6,0,0,1,0,1.2h-4.1V352h5.28a0.6,0.6,0,0,1,0,1.2h-5.86A0.58,0.58,0,0,1,134,352.63Z"/><path class="cls-2" d="M145.33,352.63V342a0.6,0.6,0,0,1,.58-0.59,0.55,0.55,0,0,1,.53.34l2.75,5.83,2.75-5.83a0.55,0.55,0,0,1,.53-0.34,0.6,0.6,0,0,1,.58.59v10.63a0.58,0.58,0,0,1-.58.61,0.59,0.59,0,0,1-.59-0.61v-8l-2.16,4.58a0.58,0.58,0,0,1-1.06,0l-2.16-4.58v8A0.58,0.58,0,1,1,145.33,352.63Z"/><path class="cls-2" d="M157.76,349.8v-4.9a3.36,3.36,0,1,1,6.72,0v4.9A3.36,3.36,0,1,1,157.76,349.8Zm5.55,0v-4.9a2.19,2.19,0,1,0-4.39,0v4.9A2.19,2.19,0,1,0,163.32,349.8Z"/><path class="cls-2" d="M169.84,352.63V342a0.61,0.61,0,0,1,.58-0.61H173A3.58,3.58,0,0,1,176.5,345a3.66,3.66,0,0,1-2.34,3.43l2.64,3.83a0.56,0.56,0,0,1,.11.34,0.6,0.6,0,0,1-.58.61,0.53,0.53,0,0,1-.48-0.26l-3-4.31H171v4a0.59,0.59,0,0,1-.59.61A0.6,0.6,0,0,1,169.84,352.63Zm3.15-5.17a2.42,2.42,0,0,0,0-4.83h-2v4.83h2Z"/><path class="cls-2" d="M184.42,352.63v-5.15l-2.61-5.17a0.79,0.79,0,0,1-.08-0.29,0.61,0.61,0,0,1,.58-0.61,0.53,0.53,0,0,1,.51.34L185,346l2.18-4.29a0.53,0.53,0,0,1,.51-0.34,0.61,0.61,0,0,1,.58.61,0.79,0.79,0,0,1-.08.29l-2.61,5.17v5.15A0.58,0.58,0,1,1,184.42,352.63Z"/><g class="cls-8"><path class="cls-2" d="M105.2,331.77a0.37,0.37,0,1,1,.73,0,1.43,1.43,0,0,0,1.4,1.46,1.1,1.1,0,0,0,1.19-1,0.94,0.94,0,0,0-.32-0.75l-2-1.61a1.87,1.87,0,0,1,1.12-3.28,2.19,2.19,0,0,1,1.6.74,1.48,1.48,0,0,1,.35.68,0.39,0.39,0,0,1-.36.39,0.43,0.43,0,0,1-.33-0.23,1.38,1.38,0,0,0-1.26-.82,1.08,1.08,0,0,0-1,1.11,1,1,0,0,0,.39.82l2,1.61a1.69,1.69,0,0,1,.58,1.36,1.82,1.82,0,0,1-1.91,1.73A2.18,2.18,0,0,1,105.2,331.77Z"/><path class="cls-2" d="M111.8,331.8V327a0.37,0.37,0,0,1,.36-0.38,0.38,0.38,0,0,1,.36.38v4.82a1.38,1.38,0,1,0,2.76,0V327a0.37,0.37,0,0,1,.36-0.38,0.38,0.38,0,0,1,.36.38v4.82A2.1,2.1,0,1,1,111.8,331.8Z"/><path class="cls-2" d="M118.59,333.6V327a0.38,0.38,0,0,1,.36-0.38h1.6a2.27,2.27,0,0,1,0,4.54h-1.23v2.47a0.37,0.37,0,0,1-.37.38A0.38,0.38,0,0,1,118.59,333.6Zm2-3.23a1.51,1.51,0,0,0,0-3h-1.23v3h1.23Z"/><path class="cls-2" d="M125.25,333.6V327a0.38,0.38,0,0,1,.36-0.38h1.6a2.27,2.27,0,0,1,0,4.54H126v2.47a0.37,0.37,0,0,1-.37.38A0.38,0.38,0,0,1,125.25,333.6Zm2-3.23a1.51,1.51,0,0,0,0-3H126v3h1.23Z"/><path class="cls-2" d="M131.78,331.84v-3.06a2.1,2.1,0,1,1,4.2,0v3.06A2.1,2.1,0,1,1,131.78,331.84Zm3.47,0v-3.06a1.37,1.37,0,1,0-2.74,0v3.06A1.37,1.37,0,1,0,135.25,331.84Z"/><path class="cls-2" d="M138.53,333.6V327a0.38,0.38,0,0,1,.36-0.38h1.61a2.24,2.24,0,0,1,2.19,2.27,2.28,2.28,0,0,1-1.46,2.14l1.65,2.39a0.35,0.35,0,0,1,.07.21,0.38,0.38,0,0,1-.36.38,0.33,0.33,0,0,1-.3-0.16l-1.87-2.69h-1.16v2.47a0.37,0.37,0,0,1-.37.38A0.38,0.38,0,0,1,138.53,333.6Zm2-3.23a1.51,1.51,0,0,0,0-3h-1.24v3h1.24Z"/><path class="cls-2" d="M146.83,333.6v-6.25h-2a0.38,0.38,0,0,1,0-.76h4.84a0.38,0.38,0,0,1,0,.76h-2v6.25A0.37,0.37,0,1,1,146.83,333.6Z"/><path class="cls-2" d="M158.48,331.77a0.37,0.37,0,1,1,.73,0,1.43,1.43,0,0,0,1.4,1.46,1.1,1.1,0,0,0,1.19-1,0.94,0.94,0,0,0-.32-0.75l-2-1.61a1.87,1.87,0,0,1,1.12-3.28,2.19,2.19,0,0,1,1.6.74,1.48,1.48,0,0,1,.35.68,0.39,0.39,0,0,1-.36.39,0.43,0.43,0,0,1-.33-0.23,1.38,1.38,0,0,0-1.26-.82,1.08,1.08,0,0,0-1,1.11,1,1,0,0,0,.39.82l2,1.61a1.69,1.69,0,0,1,.58,1.36,1.82,1.82,0,0,1-1.91,1.73A2.18,2.18,0,0,1,158.48,331.77Z"/><path class="cls-2" d="M165.15,333.6V327a0.37,0.37,0,0,1,.35-0.38h3.66a0.37,0.37,0,0,1,.35.39,0.36,0.36,0,0,1-.35.37h-3.3v2.56h2.56a0.38,0.38,0,0,1,0,.75h-2.56v2.57h3.3a0.38,0.38,0,0,1,0,.75H165.5A0.36,0.36,0,0,1,165.15,333.6Z"/><path class="cls-2" d="M171.8,331.77a0.37,0.37,0,1,1,.73,0,1.43,1.43,0,0,0,1.4,1.46,1.1,1.1,0,0,0,1.19-1,0.94,0.94,0,0,0-.32-0.75l-2-1.61a1.87,1.87,0,0,1,1.12-3.28,2.19,2.19,0,0,1,1.6.74,1.48,1.48,0,0,1,.35.68,0.39,0.39,0,0,1-.36.39,0.43,0.43,0,0,1-.33-0.23,1.38,1.38,0,0,0-1.26-.82,1.08,1.08,0,0,0-1,1.11,1,1,0,0,0,.39.82l2,1.61a1.69,1.69,0,0,1,.58,1.36,1.82,1.82,0,0,1-1.91,1.73A2.18,2.18,0,0,1,171.8,331.77Z"/><path class="cls-2" d="M178.46,331.77a0.37,0.37,0,1,1,.73,0,1.43,1.43,0,0,0,1.4,1.46,1.1,1.1,0,0,0,1.19-1,0.94,0.94,0,0,0-.32-0.75l-2-1.61a1.87,1.87,0,0,1,1.12-3.28,2.19,2.19,0,0,1,1.6.74,1.48,1.48,0,0,1,.35.68,0.39,0.39,0,0,1-.36.39,0.43,0.43,0,0,1-.33-0.23,1.38,1.38,0,0,0-1.26-.82,1.08,1.08,0,0,0-1,1.11,1,1,0,0,0,.39.82l2,1.61a1.69,1.69,0,0,1,.58,1.36,1.82,1.82,0,0,1-1.91,1.73A2.18,2.18,0,0,1,178.46,331.77Z"/><path class="cls-2" d="M185.23,333.6a0.36,0.36,0,0,1,.36-0.37h1.21v-5.89h-1.21a0.37,0.37,0,0,1-.36-0.38,0.36,0.36,0,0,1,.36-0.37h3.14a0.37,0.37,0,0,1,0,.75h-1.21v5.89h1.21a0.38,0.38,0,0,1,0,.75h-3.14A0.37,0.37,0,0,1,185.23,333.6Z"/><path class="cls-2" d="M191.72,331.84v-3.06a2.1,2.1,0,1,1,4.2,0v3.06A2.1,2.1,0,1,1,191.72,331.84Zm3.47,0v-3.06a1.37,1.37,0,1,0-2.74,0v3.06A1.37,1.37,0,1,0,195.19,331.84Z"/><path class="cls-2" d="M198.3,333.6V327a0.37,0.37,0,0,1,.36-0.37,0.33,0.33,0,0,1,.31.19l3,5.4V327a0.37,0.37,0,0,1,.36-0.37,0.37,0.37,0,0,1,.36.37v6.64a0.37,0.37,0,0,1-.36.38,0.31,0.31,0,0,1-.31-0.19l-3-5.4v5.21A0.36,0.36,0,1,1,198.3,333.6Z"/></g><rect class="cls-6" x="229.92" y="306.5" width="150.09" height="64.32"/><g class="cls-7"><use id="New_Symbol-18" data-name="New Symbol" width="133.73" height="46.42" transform="translate(238.1 315.45)" xlink:href="#New_Symbol"/></g><g class="cls-8"><path class="cls-2" d="M255.31,331.77a0.37,0.37,0,1,1,.73,0,1.43,1.43,0,0,0,1.4,1.46,1.1,1.1,0,0,0,1.19-1,0.94,0.94,0,0,0-.32-0.75l-2-1.61a1.87,1.87,0,0,1,1.12-3.28,2.19,2.19,0,0,1,1.6.74,1.48,1.48,0,0,1,.35.68,0.39,0.39,0,0,1-.36.39,0.43,0.43,0,0,1-.33-0.23,1.38,1.38,0,0,0-1.26-.82,1.08,1.08,0,0,0-1,1.11,1,1,0,0,0,.39.82l2,1.61a1.69,1.69,0,0,1,.58,1.36,1.82,1.82,0,0,1-1.91,1.73A2.18,2.18,0,0,1,255.31,331.77Z"/><path class="cls-2" d="M261.91,331.8V327a0.37,0.37,0,0,1,.36-0.38,0.38,0.38,0,0,1,.36.38v4.82a1.38,1.38,0,1,0,2.76,0V327a0.37,0.37,0,0,1,.36-0.38,0.38,0.38,0,0,1,.36.38v4.82A2.1,2.1,0,1,1,261.91,331.8Z"/><path class="cls-2" d="M268.7,333.6V327a0.38,0.38,0,0,1,.36-0.38h1.6a2.27,2.27,0,0,1,0,4.54h-1.23v2.47a0.37,0.37,0,0,1-.37.38A0.38,0.38,0,0,1,268.7,333.6Zm2-3.23a1.51,1.51,0,0,0,0-3h-1.23v3h1.23Z"/><path class="cls-2" d="M275.36,333.6V327a0.38,0.38,0,0,1,.36-0.38h1.6a2.27,2.27,0,0,1,0,4.54h-1.23v2.47a0.37,0.37,0,0,1-.37.38A0.38,0.38,0,0,1,275.36,333.6Zm2-3.23a1.51,1.51,0,0,0,0-3h-1.23v3h1.23Z"/><path class="cls-2" d="M281.89,331.84v-3.06a2.1,2.1,0,1,1,4.2,0v3.06A2.1,2.1,0,1,1,281.89,331.84Zm3.47,0v-3.06a1.37,1.37,0,1,0-2.74,0v3.06A1.37,1.37,0,1,0,285.36,331.84Z"/><path class="cls-2" d="M288.64,333.6V327a0.38,0.38,0,0,1,.36-0.38h1.61a2.24,2.24,0,0,1,2.19,2.27,2.28,2.28,0,0,1-1.46,2.14l1.65,2.39a0.35,0.35,0,0,1,.07.21,0.38,0.38,0,0,1-.36.38,0.33,0.33,0,0,1-.3-0.16l-1.87-2.69h-1.16v2.47a0.37,0.37,0,0,1-.37.38A0.38,0.38,0,0,1,288.64,333.6Zm2-3.23a1.51,1.51,0,0,0,0-3h-1.24v3h1.24Z"/><path class="cls-2" d="M296.94,333.6v-6.25h-2a0.38,0.38,0,0,1,0-.76h4.84a0.38,0.38,0,0,1,0,.76h-2v6.25A0.37,0.37,0,1,1,296.94,333.6Z"/><path class="cls-2" d="M308.59,331.77a0.37,0.37,0,1,1,.73,0,1.43,1.43,0,0,0,1.4,1.46,1.1,1.1,0,0,0,1.19-1,0.94,0.94,0,0,0-.32-0.75l-2-1.61a1.87,1.87,0,0,1,1.12-3.28,2.19,2.19,0,0,1,1.6.74,1.48,1.48,0,0,1,.35.68,0.39,0.39,0,0,1-.36.39,0.43,0.43,0,0,1-.33-0.23,1.38,1.38,0,0,0-1.26-.82,1.08,1.08,0,0,0-1,1.11,1,1,0,0,0,.39.82l2,1.61a1.69,1.69,0,0,1,.58,1.36,1.82,1.82,0,0,1-1.91,1.73A2.18,2.18,0,0,1,308.59,331.77Z"/><path class="cls-2" d="M315.26,333.6V327a0.37,0.37,0,0,1,.35-0.38h3.66a0.37,0.37,0,0,1,.35.39,0.36,0.36,0,0,1-.35.37H316v2.56h2.56a0.38,0.38,0,0,1,0,.75H316v2.57h3.3a0.38,0.38,0,0,1,0,.75h-3.66A0.36,0.36,0,0,1,315.26,333.6Z"/><path class="cls-2" d="M321.91,331.77a0.37,0.37,0,1,1,.73,0,1.43,1.43,0,0,0,1.4,1.46,1.1,1.1,0,0,0,1.19-1,0.94,0.94,0,0,0-.32-0.75l-2-1.61A1.87,1.87,0,0,1,324,326.6a2.19,2.19,0,0,1,1.6.74,1.48,1.48,0,0,1,.35.68,0.39,0.39,0,0,1-.36.39,0.43,0.43,0,0,1-.33-0.23,1.38,1.38,0,0,0-1.26-.82,1.08,1.08,0,0,0-1,1.11,1,1,0,0,0,.39.82l2,1.61a1.69,1.69,0,0,1,.58,1.36A1.82,1.82,0,0,1,324,334,2.18,2.18,0,0,1,321.91,331.77Z"/><path class="cls-2" d="M328.57,331.77a0.37,0.37,0,1,1,.73,0,1.43,1.43,0,0,0,1.4,1.46,1.1,1.1,0,0,0,1.19-1,0.94,0.94,0,0,0-.32-0.75l-2-1.61a1.87,1.87,0,0,1,1.12-3.28,2.19,2.19,0,0,1,1.6.74,1.48,1.48,0,0,1,.35.68,0.39,0.39,0,0,1-.36.39,0.43,0.43,0,0,1-.33-0.23,1.38,1.38,0,0,0-1.26-.82,1.08,1.08,0,0,0-1,1.11,1,1,0,0,0,.39.82l2,1.61a1.69,1.69,0,0,1,.58,1.36A1.82,1.82,0,0,1,330.7,334,2.18,2.18,0,0,1,328.57,331.77Z"/><path class="cls-2" d="M335.34,333.6a0.36,0.36,0,0,1,.36-0.37h1.21v-5.89H335.7a0.37,0.37,0,0,1-.36-0.38,0.36,0.36,0,0,1,.36-0.37h3.14a0.37,0.37,0,0,1,0,.75h-1.21v5.89h1.21a0.38,0.38,0,0,1,0,.75H335.7A0.37,0.37,0,0,1,335.34,333.6Z"/><path class="cls-2" d="M341.83,331.84v-3.06a2.1,2.1,0,1,1,4.2,0v3.06A2.1,2.1,0,1,1,341.83,331.84Zm3.47,0v-3.06a1.37,1.37,0,1,0-2.74,0v3.06A1.37,1.37,0,1,0,345.29,331.84Z"/><path class="cls-2" d="M348.41,333.6V327a0.37,0.37,0,0,1,.36-0.37,0.33,0.33,0,0,1,.31.19l3,5.4V327a0.37,0.37,0,0,1,.36-0.37,0.37,0.37,0,0,1,.36.37v6.64a0.37,0.37,0,0,1-.36.38,0.31,0.31,0,0,1-.31-0.19l-3-5.4v5.21A0.36,0.36,0,1,1,348.41,333.6Z"/><path class="cls-2" d="M282.7,352.63V342a0.59,0.59,0,0,1,.56-0.61h5.54a0.61,0.61,0,0,1,.58.61,0.6,0.6,0,0,1-.58.61h-5v4.1h3.78a0.6,0.6,0,0,1,0,1.2h-3.78v4.71a0.59,0.59,0,0,1-.58.61A0.58,0.58,0,0,1,282.7,352.63Z"/><path class="cls-2" d="M294.31,352.63a0.58,0.58,0,0,1,.58-0.59h1.94v-9.43h-1.94a0.59,0.59,0,0,1-.58-0.61,0.58,0.58,0,0,1,.58-0.59h5a0.6,0.6,0,0,1,0,1.2H298V352h1.94a0.6,0.6,0,0,1,0,1.2h-5A0.59,0.59,0,0,1,294.31,352.63Z"/><path class="cls-2" d="M306.51,353.06a0.59,0.59,0,0,1-.18-0.43V342a0.58,0.58,0,0,1,.18-0.42,0.56,0.56,0,0,1,.82,0,0.58,0.58,0,0,1,.18.42v10h5.23a0.6,0.6,0,0,1,.58.59,0.59,0.59,0,0,1-.18.43,0.57,0.57,0,0,1-.4.18h-5.83A0.57,0.57,0,0,1,306.51,353.06Z"/><path class="cls-2" d="M318,352.63V342a0.59,0.59,0,0,1,.56-0.61h5.86a0.59,0.59,0,0,1,.56.62,0.57,0.57,0,0,1-.56.59h-5.28v4.1h4.1a0.6,0.6,0,0,1,0,1.2h-4.1V352h5.28a0.6,0.6,0,0,1,0,1.2h-5.86A0.58,0.58,0,0,1,318,352.63Z"/></g><rect class="cls-6" x="79.82" y="370.82" width="150.09" height="64.32"/><g class="cls-7"><use id="New_Symbol-21" data-name="New Symbol" width="133.73" height="46.42" transform="translate(88 379.78)" xlink:href="#New_Symbol"/></g><g class="cls-8"><path class="cls-2" d="M105.2,396.09a0.37,0.37,0,1,1,.73,0,1.43,1.43,0,0,0,1.4,1.46,1.1,1.1,0,0,0,1.19-1,0.93,0.93,0,0,0-.32-0.75l-2-1.61a1.87,1.87,0,0,1,1.12-3.28,2.19,2.19,0,0,1,1.6.74,1.49,1.49,0,0,1,.35.68,0.39,0.39,0,0,1-.36.39,0.43,0.43,0,0,1-.33-0.23,1.38,1.38,0,0,0-1.26-.82,1.08,1.08,0,0,0-1,1.11,1,1,0,0,0,.39.82l2,1.61a1.69,1.69,0,0,1,.58,1.36,1.82,1.82,0,0,1-1.91,1.73A2.18,2.18,0,0,1,105.2,396.09Z"/><path class="cls-2" d="M111.8,396.12V391.3a0.37,0.37,0,0,1,.36-0.38,0.38,0.38,0,0,1,.36.38v4.82a1.38,1.38,0,1,0,2.76,0V391.3a0.37,0.37,0,0,1,.36-0.38,0.38,0.38,0,0,1,.36.38v4.82A2.1,2.1,0,1,1,111.8,396.12Z"/><path class="cls-2" d="M118.59,397.93V391.3a0.38,0.38,0,0,1,.36-0.38h1.6a2.27,2.27,0,0,1,0,4.54h-1.23v2.47a0.37,0.37,0,0,1-.37.38A0.38,0.38,0,0,1,118.59,397.93Zm2-3.23a1.51,1.51,0,0,0,0-3h-1.23v3h1.23Z"/><path class="cls-2" d="M125.25,397.93V391.3a0.38,0.38,0,0,1,.36-0.38h1.6a2.27,2.27,0,0,1,0,4.54H126v2.47a0.37,0.37,0,0,1-.37.38A0.38,0.38,0,0,1,125.25,397.93Zm2-3.23a1.51,1.51,0,0,0,0-3H126v3h1.23Z"/><path class="cls-2" d="M131.78,396.16V393.1a2.1,2.1,0,1,1,4.2,0v3.06A2.1,2.1,0,1,1,131.78,396.16Zm3.47,0V393.1a1.37,1.37,0,1,0-2.74,0v3.06A1.37,1.37,0,1,0,135.25,396.16Z"/><path class="cls-2" d="M138.53,397.93V391.3a0.38,0.38,0,0,1,.36-0.38h1.61a2.24,2.24,0,0,1,2.19,2.27,2.28,2.28,0,0,1-1.46,2.14l1.65,2.39a0.35,0.35,0,0,1,.07.21,0.38,0.38,0,0,1-.36.38,0.33,0.33,0,0,1-.3-0.16l-1.87-2.69h-1.16v2.47a0.37,0.37,0,0,1-.37.38A0.38,0.38,0,0,1,138.53,397.93Zm2-3.23a1.51,1.51,0,0,0,0-3h-1.24v3h1.24Z"/><path class="cls-2" d="M146.83,397.93v-6.25h-2a0.38,0.38,0,0,1,0-.76h4.84a0.38,0.38,0,0,1,0,.76h-2v6.25A0.37,0.37,0,1,1,146.83,397.93Z"/><path class="cls-2" d="M158.48,396.09a0.37,0.37,0,1,1,.73,0,1.43,1.43,0,0,0,1.4,1.46,1.1,1.1,0,0,0,1.19-1,0.93,0.93,0,0,0-.32-0.75l-2-1.61a1.87,1.87,0,0,1,1.12-3.28,2.19,2.19,0,0,1,1.6.74,1.49,1.49,0,0,1,.35.68,0.39,0.39,0,0,1-.36.39,0.43,0.43,0,0,1-.33-0.23,1.38,1.38,0,0,0-1.26-.82,1.08,1.08,0,0,0-1,1.11,1,1,0,0,0,.39.82l2,1.61a1.69,1.69,0,0,1,.58,1.36,1.82,1.82,0,0,1-1.91,1.73A2.18,2.18,0,0,1,158.48,396.09Z"/><path class="cls-2" d="M165.15,397.93V391.3a0.37,0.37,0,0,1,.35-0.38h3.66a0.37,0.37,0,0,1,.35.39,0.36,0.36,0,0,1-.35.37h-3.3v2.56h2.56a0.37,0.37,0,0,1,0,.75h-2.56v2.57h3.3a0.38,0.38,0,0,1,0,.75H165.5A0.36,0.36,0,0,1,165.15,397.93Z"/><path class="cls-2" d="M171.8,396.09a0.37,0.37,0,1,1,.73,0,1.43,1.43,0,0,0,1.4,1.46,1.1,1.1,0,0,0,1.19-1,0.93,0.93,0,0,0-.32-0.75l-2-1.61a1.87,1.87,0,0,1,1.12-3.28,2.19,2.19,0,0,1,1.6.74,1.49,1.49,0,0,1,.35.68,0.39,0.39,0,0,1-.36.39,0.43,0.43,0,0,1-.33-0.23,1.38,1.38,0,0,0-1.26-.82,1.08,1.08,0,0,0-1,1.11,1,1,0,0,0,.39.82l2,1.61a1.69,1.69,0,0,1,.58,1.36,1.82,1.82,0,0,1-1.91,1.73A2.18,2.18,0,0,1,171.8,396.09Z"/><path class="cls-2" d="M178.46,396.09a0.37,0.37,0,1,1,.73,0,1.43,1.43,0,0,0,1.4,1.46,1.1,1.1,0,0,0,1.19-1,0.93,0.93,0,0,0-.32-0.75l-2-1.61a1.87,1.87,0,0,1,1.12-3.28,2.19,2.19,0,0,1,1.6.74,1.49,1.49,0,0,1,.35.68,0.39,0.39,0,0,1-.36.39,0.43,0.43,0,0,1-.33-0.23,1.38,1.38,0,0,0-1.26-.82,1.08,1.08,0,0,0-1,1.11,1,1,0,0,0,.39.82l2,1.61a1.69,1.69,0,0,1,.58,1.36,1.82,1.82,0,0,1-1.91,1.73A2.18,2.18,0,0,1,178.46,396.09Z"/><path class="cls-2" d="M185.23,397.93a0.36,0.36,0,0,1,.36-0.37h1.21v-5.89h-1.21a0.37,0.37,0,0,1-.36-0.38,0.36,0.36,0,0,1,.36-0.37h3.14a0.38,0.38,0,0,1,0,.75h-1.21v5.89h1.21a0.37,0.37,0,0,1,0,.75h-3.14A0.37,0.37,0,0,1,185.23,397.93Z"/><path class="cls-2" d="M191.72,396.16V393.1a2.1,2.1,0,1,1,4.2,0v3.06A2.1,2.1,0,1,1,191.72,396.16Zm3.47,0V393.1a1.37,1.37,0,1,0-2.74,0v3.06A1.37,1.37,0,1,0,195.19,396.16Z"/><path class="cls-2" d="M198.3,397.93v-6.64a0.37,0.37,0,0,1,.36-0.37,0.33,0.33,0,0,1,.31.19l3,5.4v-5.22a0.37,0.37,0,0,1,.36-0.37,0.37,0.37,0,0,1,.36.37v6.64a0.37,0.37,0,0,1-.36.38,0.31,0.31,0,0,1-.31-0.19l-3-5.4v5.21A0.36,0.36,0,1,1,198.3,397.93Z"/><path class="cls-2" d="M126.17,417V406.34a0.61,0.61,0,0,1,.58-0.61h2.58a3.58,3.58,0,0,1,3.51,3.63,3.66,3.66,0,0,1-2.34,3.42l2.64,3.83a0.56,0.56,0,0,1,.11.34,0.6,0.6,0,0,1-.58.61,0.53,0.53,0,0,1-.48-0.26l-3-4.31h-1.86v4a0.6,0.6,0,0,1-.59.61A0.6,0.6,0,0,1,126.17,417Zm3.15-5.17a2.42,2.42,0,0,0,0-4.83h-2v4.83h2Z"/><path class="cls-2" d="M138.08,417V406.34a0.59,0.59,0,0,1,.56-0.61h5.86a0.59,0.59,0,0,1,.56.62,0.57,0.57,0,0,1-.56.59h-5.28V411h4.1a0.6,0.6,0,0,1,0,1.2h-4.1v4.11h5.28a0.6,0.6,0,0,1,0,1.2h-5.86A0.58,0.58,0,0,1,138.08,417Z"/><path class="cls-2" d="M150.11,417V406.34a0.58,0.58,0,0,1,.58-0.61h2.77a3.43,3.43,0,0,1,3.35,3.49v4.85a3.44,3.44,0,0,1-3.35,3.49h-2.77A0.59,0.59,0,0,1,150.11,417Zm3.34-.59a2.28,2.28,0,0,0,2.19-2.29v-4.85a2.28,2.28,0,0,0-2.19-2.29h-2.19v9.43h2.19Z"/><path class="cls-2" d="M162.11,417a0.58,0.58,0,0,1,.58-0.59h1.94v-9.43h-1.94a0.59,0.59,0,0,1-.58-0.61,0.58,0.58,0,0,1,.58-0.59h5a0.6,0.6,0,0,1,0,1.2h-1.94v9.43h1.94a0.6,0.6,0,0,1,0,1.2h-5A0.59,0.59,0,0,1,162.11,417Z"/><path class="cls-2" d="M173.87,414a0.58,0.58,0,1,1,1.17,0,2.29,2.29,0,0,0,2.24,2.34,1.76,1.76,0,0,0,1.91-1.58,1.5,1.5,0,0,0-.51-1.2L175.49,411a3,3,0,0,1,1.79-5.25,3.51,3.51,0,0,1,2.56,1.18,2.38,2.38,0,0,1,.56,1.09,0.63,0.63,0,0,1-.58.63,0.69,0.69,0,0,1-.53-0.37,2.22,2.22,0,0,0-2-1.31,1.73,1.73,0,0,0-1.68,1.78,1.65,1.65,0,0,0,.62,1.31l3.19,2.58a2.7,2.7,0,0,1,.93,2.18,2.92,2.92,0,0,1-3.06,2.77A3.49,3.49,0,0,1,173.87,414Z"/></g><rect class="cls-6" x="229.92" y="370.82" width="150.09" height="64.32"/><g class="cls-7"><use id="New_Symbol-24" data-name="New Symbol" width="133.73" height="46.42" transform="translate(238.1 379.78)" xlink:href="#New_Symbol"/></g><g class="cls-8"><path class="cls-2" d="M255.31,396.09a0.37,0.37,0,1,1,.73,0,1.43,1.43,0,0,0,1.4,1.46,1.1,1.1,0,0,0,1.19-1,0.93,0.93,0,0,0-.32-0.75l-2-1.61a1.87,1.87,0,0,1,1.12-3.28,2.19,2.19,0,0,1,1.6.74,1.49,1.49,0,0,1,.35.68,0.39,0.39,0,0,1-.36.39,0.43,0.43,0,0,1-.33-0.23,1.38,1.38,0,0,0-1.26-.82,1.08,1.08,0,0,0-1,1.11,1,1,0,0,0,.39.82l2,1.61a1.69,1.69,0,0,1,.58,1.36,1.82,1.82,0,0,1-1.91,1.73A2.18,2.18,0,0,1,255.31,396.09Z"/><path class="cls-2" d="M261.91,396.12V391.3a0.37,0.37,0,0,1,.36-0.38,0.38,0.38,0,0,1,.36.38v4.82a1.38,1.38,0,1,0,2.76,0V391.3a0.37,0.37,0,0,1,.36-0.38,0.38,0.38,0,0,1,.36.38v4.82A2.1,2.1,0,1,1,261.91,396.12Z"/><path class="cls-2" d="M268.7,397.93V391.3a0.38,0.38,0,0,1,.36-0.38h1.6a2.27,2.27,0,0,1,0,4.54h-1.23v2.47a0.37,0.37,0,0,1-.37.38A0.38,0.38,0,0,1,268.7,397.93Zm2-3.23a1.51,1.51,0,0,0,0-3h-1.23v3h1.23Z"/><path class="cls-2" d="M275.36,397.93V391.3a0.38,0.38,0,0,1,.36-0.38h1.6a2.27,2.27,0,0,1,0,4.54h-1.23v2.47a0.37,0.37,0,0,1-.37.38A0.38,0.38,0,0,1,275.36,397.93Zm2-3.23a1.51,1.51,0,0,0,0-3h-1.23v3h1.23Z"/><path class="cls-2" d="M281.89,396.16V393.1a2.1,2.1,0,1,1,4.2,0v3.06A2.1,2.1,0,1,1,281.89,396.16Zm3.47,0V393.1a1.37,1.37,0,1,0-2.74,0v3.06A1.37,1.37,0,1,0,285.36,396.16Z"/><path class="cls-2" d="M288.64,397.93V391.3a0.38,0.38,0,0,1,.36-0.38h1.61a2.24,2.24,0,0,1,2.19,2.27,2.28,2.28,0,0,1-1.46,2.14l1.65,2.39a0.35,0.35,0,0,1,.07.21,0.38,0.38,0,0,1-.36.38,0.33,0.33,0,0,1-.3-0.16l-1.87-2.69h-1.16v2.47a0.37,0.37,0,0,1-.37.38A0.38,0.38,0,0,1,288.64,397.93Zm2-3.23a1.51,1.51,0,0,0,0-3h-1.24v3h1.24Z"/><path class="cls-2" d="M296.94,397.93v-6.25h-2a0.38,0.38,0,0,1,0-.76h4.84a0.38,0.38,0,0,1,0,.76h-2v6.25A0.37,0.37,0,1,1,296.94,397.93Z"/><path class="cls-2" d="M308.59,396.09a0.37,0.37,0,1,1,.73,0,1.43,1.43,0,0,0,1.4,1.46,1.1,1.1,0,0,0,1.19-1,0.93,0.93,0,0,0-.32-0.75l-2-1.61a1.87,1.87,0,0,1,1.12-3.28,2.19,2.19,0,0,1,1.6.74,1.49,1.49,0,0,1,.35.68,0.39,0.39,0,0,1-.36.39,0.43,0.43,0,0,1-.33-0.23,1.38,1.38,0,0,0-1.26-.82,1.08,1.08,0,0,0-1,1.11,1,1,0,0,0,.39.82l2,1.61a1.69,1.69,0,0,1,.58,1.36,1.82,1.82,0,0,1-1.91,1.73A2.18,2.18,0,0,1,308.59,396.09Z"/><path class="cls-2" d="M315.26,397.93V391.3a0.37,0.37,0,0,1,.35-0.38h3.66a0.37,0.37,0,0,1,.35.39,0.36,0.36,0,0,1-.35.37H316v2.56h2.56a0.37,0.37,0,0,1,0,.75H316v2.57h3.3a0.38,0.38,0,0,1,0,.75h-3.66A0.36,0.36,0,0,1,315.26,397.93Z"/><path class="cls-2" d="M321.91,396.09a0.37,0.37,0,1,1,.73,0,1.43,1.43,0,0,0,1.4,1.46,1.1,1.1,0,0,0,1.19-1,0.93,0.93,0,0,0-.32-0.75l-2-1.61a1.87,1.87,0,0,1,1.12-3.28,2.19,2.19,0,0,1,1.6.74,1.49,1.49,0,0,1,.35.68,0.39,0.39,0,0,1-.36.39,0.43,0.43,0,0,1-.33-0.23,1.38,1.38,0,0,0-1.26-.82,1.08,1.08,0,0,0-1,1.11,1,1,0,0,0,.39.82l2,1.61a1.69,1.69,0,0,1,.58,1.36,1.82,1.82,0,0,1-1.91,1.73A2.18,2.18,0,0,1,321.91,396.09Z"/><path class="cls-2" d="M328.57,396.09a0.37,0.37,0,1,1,.73,0,1.43,1.43,0,0,0,1.4,1.46,1.1,1.1,0,0,0,1.19-1,0.93,0.93,0,0,0-.32-0.75l-2-1.61a1.87,1.87,0,0,1,1.12-3.28,2.19,2.19,0,0,1,1.6.74,1.49,1.49,0,0,1,.35.68,0.39,0.39,0,0,1-.36.39,0.43,0.43,0,0,1-.33-0.23,1.38,1.38,0,0,0-1.26-.82,1.08,1.08,0,0,0-1,1.11,1,1,0,0,0,.39.82l2,1.61a1.69,1.69,0,0,1,.58,1.36,1.82,1.82,0,0,1-1.91,1.73A2.18,2.18,0,0,1,328.57,396.09Z"/><path class="cls-2" d="M335.34,397.93a0.36,0.36,0,0,1,.36-0.37h1.21v-5.89H335.7a0.37,0.37,0,0,1-.36-0.38,0.36,0.36,0,0,1,.36-0.37h3.14a0.38,0.38,0,0,1,0,.75h-1.21v5.89h1.21a0.37,0.37,0,0,1,0,.75H335.7A0.37,0.37,0,0,1,335.34,397.93Z"/><path class="cls-2" d="M341.83,396.16V393.1a2.1,2.1,0,1,1,4.2,0v3.06A2.1,2.1,0,1,1,341.83,396.16Zm3.47,0V393.1a1.37,1.37,0,1,0-2.74,0v3.06A1.37,1.37,0,1,0,345.29,396.16Z"/><path class="cls-2" d="M348.41,397.93v-6.64a0.37,0.37,0,0,1,.36-0.37,0.33,0.33,0,0,1,.31.19l3,5.4v-5.22a0.37,0.37,0,0,1,.36-0.37,0.37,0.37,0,0,1,.36.37v6.64a0.37,0.37,0,0,1-.36.38,0.31,0.31,0,0,1-.31-0.19l-3-5.4v5.21A0.36,0.36,0,1,1,348.41,397.93Z"/><path class="cls-2" d="M275.64,417V406.33a0.6,0.6,0,0,1,.58-0.59,0.55,0.55,0,0,1,.53.34l2.75,5.83,2.75-5.83a0.55,0.55,0,0,1,.53-0.34,0.6,0.6,0,0,1,.58.59V417a0.58,0.58,0,0,1-.58.61,0.59,0.59,0,0,1-.59-0.61v-8L280,413.53a0.58,0.58,0,0,1-1.06,0L276.81,409v8A0.58,0.58,0,1,1,275.64,417Z"/><path class="cls-2" d="M288.07,414.12v-4.9a3.36,3.36,0,1,1,6.72,0v4.9A3.36,3.36,0,1,1,288.07,414.12Zm5.55,0v-4.9a2.19,2.19,0,1,0-4.39,0v4.9A2.19,2.19,0,1,0,293.63,414.12Z"/><path class="cls-2" d="M299.88,417V406.33a0.59,0.59,0,0,1,.58-0.59,0.52,0.52,0,0,1,.5.3l4.75,8.64v-8.35a0.59,0.59,0,0,1,.58-0.59,0.6,0.6,0,0,1,.58.59V417a0.59,0.59,0,0,1-.58.61,0.49,0.49,0,0,1-.5-0.3L301,408.62V417A0.58,0.58,0,1,1,299.88,417Z"/><path class="cls-2" d="M312,414.07v-4.85a3.43,3.43,0,0,1,3.35-3.49,3.29,3.29,0,0,1,3.34,3.33,0.58,0.58,0,0,1-.58.61,0.59,0.59,0,0,1-.58-0.61,2.12,2.12,0,0,0-2.19-2.11,2.24,2.24,0,0,0-2.19,2.27v4.85a2.19,2.19,0,1,0,4.39,0v-1.18h-1.87a0.6,0.6,0,0,1-.58-0.59,0.59,0.59,0,0,1,.58-0.61h2.45a0.59,0.59,0,0,1,.58.61v1.78A3.35,3.35,0,1,1,312,414.07Z"/><path class="cls-2" d="M323.88,414.12v-4.9a3.36,3.36,0,1,1,6.72,0v4.9A3.36,3.36,0,1,1,323.88,414.12Zm5.55,0v-4.9a2.19,2.19,0,1,0-4.39,0v4.9A2.19,2.19,0,1,0,329.43,414.12Z"/></g><rect class="cls-6" x="983.17" y="220.68" width="150.09" height="64.32"/><g class="cls-7"><polygon class="cls-9" points="1125.08 229.63 998.82 229.63 998.82 237.06 991.39 237.06 991.39 276.05 1117.64 276.05 1117.64 268.61 1125.08 268.61 1125.08 229.63"/><polygon class="cls-2" points="998.82 237.06 991.39 237.06 998.82 229.63 998.82 237.06"/><polygon class="cls-2" points="1117.64 268.61 1125.08 268.61 1117.64 276.05 1117.64 268.61"/><rect class="cls-2" x="1121.07" y="229.63" width="4" height="4"/><rect class="cls-2" x="991.36" y="274.04" width="2" height="2.02" transform="translate(1267.41 -717.31) rotate(90)"/><polygon class="cls-2" points="1006.27 276.05 1006.85 275.05 1006.27 274.05 993.37 274.05 993.37 276.05 1006.27 276.05"/></g><g class="cls-8"><path class="cls-2" d="M1005.22,245.94a0.37,0.37,0,1,1,.73,0,1.43,1.43,0,0,0,1.4,1.46,1.1,1.1,0,0,0,1.19-1,0.93,0.93,0,0,0-.32-0.75l-2-1.61a1.87,1.87,0,0,1,1.12-3.28,2.19,2.19,0,0,1,1.6.74,1.49,1.49,0,0,1,.35.68,0.39,0.39,0,0,1-.36.39,0.43,0.43,0,0,1-.33-0.23,1.38,1.38,0,0,0-1.26-.82,1.08,1.08,0,0,0-1,1.11,1,1,0,0,0,.39.82l2,1.61a1.69,1.69,0,0,1,.58,1.36,1.82,1.82,0,0,1-1.91,1.73A2.18,2.18,0,0,1,1005.22,245.94Z"/><path class="cls-2" d="M1011.82,246v-4.82a0.37,0.37,0,0,1,.36-0.38,0.38,0.38,0,0,1,.36.38V246a1.38,1.38,0,1,0,2.76,0v-4.82a0.37,0.37,0,0,1,.36-0.38,0.38,0.38,0,0,1,.36.38V246A2.1,2.1,0,1,1,1011.82,246Z"/><path class="cls-2" d="M1018.61,247.78v-6.63a0.38,0.38,0,0,1,.36-0.38h1.6a2.27,2.27,0,0,1,0,4.54h-1.23v2.47a0.37,0.37,0,0,1-.37.38A0.38,0.38,0,0,1,1018.61,247.78Zm2-3.23a1.51,1.51,0,0,0,0-3h-1.23v3h1.23Z"/><path class="cls-2" d="M1025.27,247.78v-6.63a0.38,0.38,0,0,1,.36-0.38h1.6a2.27,2.27,0,0,1,0,4.54H1026v2.47a0.37,0.37,0,0,1-.37.38A0.38,0.38,0,0,1,1025.27,247.78Zm2-3.23a1.51,1.51,0,0,0,0-3H1026v3h1.23Z"/><path class="cls-2" d="M1031.8,246V243a2.1,2.1,0,1,1,4.2,0V246A2.1,2.1,0,1,1,1031.8,246Zm3.47,0V243a1.37,1.37,0,1,0-2.74,0V246A1.37,1.37,0,1,0,1035.27,246Z"/><path class="cls-2" d="M1038.55,247.78v-6.63a0.38,0.38,0,0,1,.36-0.38h1.61a2.24,2.24,0,0,1,2.19,2.27,2.28,2.28,0,0,1-1.46,2.14l1.65,2.39a0.35,0.35,0,0,1,.07.21,0.38,0.38,0,0,1-.36.38,0.33,0.33,0,0,1-.3-0.16l-1.87-2.69h-1.16v2.47a0.37,0.37,0,0,1-.37.38A0.38,0.38,0,0,1,1038.55,247.78Zm2-3.23a1.51,1.51,0,0,0,0-3h-1.24v3h1.24Z"/><path class="cls-2" d="M1046.85,247.78v-6.25h-2a0.38,0.38,0,0,1,0-.76h4.84a0.38,0.38,0,0,1,0,.76h-2v6.25A0.37,0.37,0,1,1,1046.85,247.78Z"/><path class="cls-2" d="M1058.57,247.78v-6.63a0.38,0.38,0,0,1,.36-0.38h1.6a2.27,2.27,0,0,1,0,4.54h-1.23v2.47a0.37,0.37,0,0,1-.37.38A0.38,0.38,0,0,1,1058.57,247.78Zm2-3.23a1.51,1.51,0,0,0,0-3h-1.23v3h1.23Z"/><path class="cls-2" d="M1065.43,248.05a0.37,0.37,0,0,1-.11-0.27v-6.64a0.36,0.36,0,0,1,.73,0v6.27h3.27a0.37,0.37,0,0,1,.36.37,0.37,0.37,0,0,1-.11.27,0.36,0.36,0,0,1-.25.11h-3.64A0.36,0.36,0,0,1,1065.43,248.05Z"/><path class="cls-2" d="M1071,247.78l2.48-6.78a0.35,0.35,0,0,1,.34-0.23,0.34,0.34,0,0,1,.34.23l2.48,6.78a0.37,0.37,0,0,1-.71.14l-0.62-1.67h-3l-0.62,1.67a0.36,0.36,0,0,1-.34.24A0.36,0.36,0,0,1,1071,247.78Zm4-2.28-1.21-3.28-1.21,3.28h2.42Z"/><path class="cls-2" d="M1080.15,247.78v-6.25h-2a0.38,0.38,0,0,1,0-.76h4.84a0.38,0.38,0,0,1,0,.76h-2v6.25A0.37,0.37,0,1,1,1080.15,247.78Z"/><path class="cls-2" d="M1085.45,247.78v-6.63a0.37,0.37,0,0,1,.35-0.38h3.46a0.38,0.38,0,0,1,.36.38,0.38,0.38,0,0,1-.36.38h-3.1v2.56h2.36a0.37,0.37,0,0,1,.36.38,0.37,0.37,0,0,1-.36.37h-2.36v2.94a0.37,0.37,0,0,1-.36.38A0.36,0.36,0,0,1,1085.45,247.78Z"/><path class="cls-2" d="M1091.74,246V243a2.1,2.1,0,1,1,4.2,0V246A2.1,2.1,0,1,1,1091.74,246Zm3.47,0V243a1.37,1.37,0,1,0-2.74,0V246A1.37,1.37,0,1,0,1095.21,246Z"/><path class="cls-2" d="M1098.49,247.78v-6.63a0.38,0.38,0,0,1,.36-0.38h1.61a2.24,2.24,0,0,1,2.19,2.27,2.28,2.28,0,0,1-1.46,2.14l1.65,2.39a0.35,0.35,0,0,1,.07.21,0.38,0.38,0,0,1-.36.38,0.33,0.33,0,0,1-.3-0.16l-1.87-2.69h-1.16v2.47a0.37,0.37,0,0,1-.37.38A0.38,0.38,0,0,1,1098.49,247.78Zm2-3.23a1.51,1.51,0,0,0,0-3h-1.24v3h1.24Z"/><path class="cls-2" d="M1104.75,247.78v-6.64a0.37,0.37,0,0,1,.36-0.37,0.35,0.35,0,0,1,.33.21l1.72,3.64,1.72-3.64a0.35,0.35,0,0,1,.33-0.21,0.37,0.37,0,0,1,.36.37v6.64a0.36,0.36,0,0,1-.36.38,0.37,0.37,0,0,1-.37-0.38v-5l-1.35,2.86a0.36,0.36,0,0,1-.66,0l-1.35-2.86v5A0.37,0.37,0,1,1,1104.75,247.78Z"/><path class="cls-2" d="M1005,266.81V256.18a0.6,0.6,0,0,1,.58-0.59,0.55,0.55,0,0,1,.53.34l2.75,5.83,2.75-5.83a0.55,0.55,0,0,1,.53-0.34,0.6,0.6,0,0,1,.58.59v10.63a0.58,0.58,0,0,1-.58.61,0.59,0.59,0,0,1-.59-0.61v-8l-2.16,4.58a0.58,0.58,0,0,1-1.06,0l-2.16-4.58v8A0.58,0.58,0,1,1,1005,266.81Z"/><path class="cls-2" d="M1017.56,266.81V256.2a0.59,0.59,0,0,1,.56-0.61H1024a0.59,0.59,0,0,1,.56.62,0.57,0.57,0,0,1-.56.59h-5.28v4.1h4.1a0.6,0.6,0,0,1,0,1.2h-4.1v4.11H1024a0.6,0.6,0,0,1,0,1.2h-5.86A0.58,0.58,0,0,1,1017.56,266.81Z"/><path class="cls-2" d="M1029.48,263.86a0.58,0.58,0,1,1,1.17,0,2.29,2.29,0,0,0,2.24,2.34,1.76,1.76,0,0,0,1.91-1.58,1.5,1.5,0,0,0-.51-1.2l-3.19-2.58a3,3,0,0,1,1.79-5.25,3.51,3.51,0,0,1,2.56,1.18,2.38,2.38,0,0,1,.56,1.09,0.63,0.63,0,0,1-.58.63,0.69,0.69,0,0,1-.53-0.37,2.22,2.22,0,0,0-2-1.31,1.73,1.73,0,0,0-1.68,1.78,1.65,1.65,0,0,0,.62,1.31l3.19,2.58a2.7,2.7,0,0,1,.93,2.18,2.92,2.92,0,0,1-3.06,2.77A3.49,3.49,0,0,1,1029.48,263.86Z"/><path class="cls-2" d="M1041.41,263.86a0.58,0.58,0,1,1,1.17,0,2.29,2.29,0,0,0,2.24,2.34,1.76,1.76,0,0,0,1.91-1.58,1.5,1.5,0,0,0-.51-1.2l-3.19-2.58a3,3,0,0,1,1.79-5.25,3.51,3.51,0,0,1,2.56,1.18,2.38,2.38,0,0,1,.56,1.09,0.63,0.63,0,0,1-.58.63,0.69,0.69,0,0,1-.53-0.37,2.22,2.22,0,0,0-2-1.31,1.73,1.73,0,0,0-1.68,1.78,1.65,1.65,0,0,0,.62,1.31l3.19,2.58a2.7,2.7,0,0,1,.93,2.18,2.92,2.92,0,0,1-3.06,2.77A3.49,3.49,0,0,1,1041.41,263.86Z"/><path class="cls-2" d="M1053.36,266.81V256.2a0.59,0.59,0,0,1,.56-0.61h5.86a0.59,0.59,0,0,1,.56.62,0.57,0.57,0,0,1-.56.59h-5.28v4.1h4.1a0.6,0.6,0,0,1,0,1.2h-4.1v4.11h5.28a0.6,0.6,0,0,1,0,1.2h-5.86A0.58,0.58,0,0,1,1053.36,266.81Z"/><path class="cls-2" d="M1065.06,266.81V256.18a0.59,0.59,0,0,1,.58-0.59,0.52,0.52,0,0,1,.5.3l4.75,8.64v-8.35a0.59,0.59,0,0,1,.58-0.59,0.6,0.6,0,0,1,.58.59v10.63a0.59,0.59,0,0,1-.58.61,0.49,0.49,0,0,1-.5-0.3l-4.75-8.64v8.34A0.58,0.58,0,1,1,1065.06,266.81Z"/><path class="cls-2" d="M1077.14,263.93v-4.85a3.43,3.43,0,0,1,3.35-3.49,3.29,3.29,0,0,1,3.34,3.33,0.58,0.58,0,0,1-.58.61,0.59,0.59,0,0,1-.58-0.61,2.12,2.12,0,0,0-2.19-2.11,2.24,2.24,0,0,0-2.19,2.27v4.85a2.19,2.19,0,1,0,4.39,0v-1.18h-1.87a0.6,0.6,0,0,1-.58-0.59,0.59,0.59,0,0,1,.58-0.61h2.45a0.59,0.59,0,0,1,.58.61v1.78A3.35,3.35,0,1,1,1077.14,263.93Z"/><path class="cls-2" d="M1089.17,266.81V256.2a0.59,0.59,0,0,1,.56-0.61h5.86a0.59,0.59,0,0,1,.56.62,0.57,0.57,0,0,1-.56.59h-5.28v4.1h4.1a0.6,0.6,0,0,1,0,1.2h-4.1v4.11h5.28a0.6,0.6,0,0,1,0,1.2h-5.86A0.58,0.58,0,0,1,1089.17,266.81Z"/><path class="cls-2" d="M1101.14,266.81V256.2a0.61,0.61,0,0,1,.58-0.61h2.58a3.58,3.58,0,0,1,3.51,3.63,3.66,3.66,0,0,1-2.34,3.42l2.64,3.83a0.56,0.56,0,0,1,.11.34,0.6,0.6,0,0,1-.58.61,0.53,0.53,0,0,1-.48-0.26l-3-4.31h-1.86v4a0.6,0.6,0,0,1-.59.61A0.6,0.6,0,0,1,1101.14,266.81Zm3.15-5.17a2.42,2.42,0,0,0,0-4.83h-2v4.83h2Z"/></g><rect class="cls-6" x="1133.28" y="220.68" width="150.09" height="64.32"/><g class="cls-7"><polygon class="cls-9" points="1275.18 229.63 1148.93 229.63 1148.93 237.06 1141.49 237.06 1141.49 276.05 1267.75 276.05 1267.75 268.61 1275.18 268.61 1275.18 229.63"/><polygon class="cls-2" points="1148.93 237.06 1141.49 237.06 1148.93 229.63 1148.93 237.06"/><polygon class="cls-2" points="1267.75 268.61 1275.18 268.61 1267.75 276.05 1267.75 268.61"/><rect class="cls-2" x="1271.18" y="229.63" width="4" height="4"/><rect class="cls-2" x="1141.47" y="274.04" width="2" height="2.02" transform="translate(1417.52 -867.42) rotate(90)"/><polygon class="cls-2" points="1156.38 276.05 1156.96 275.05 1156.38 274.05 1143.48 274.05 1143.48 276.05 1156.38 276.05"/></g><g class="cls-8"><path class="cls-2" d="M1155.33,245.94a0.37,0.37,0,1,1,.73,0,1.43,1.43,0,0,0,1.4,1.46,1.1,1.1,0,0,0,1.19-1,0.93,0.93,0,0,0-.32-0.75l-2-1.61a1.87,1.87,0,0,1,1.12-3.28,2.19,2.19,0,0,1,1.6.74,1.49,1.49,0,0,1,.35.68,0.39,0.39,0,0,1-.36.39,0.43,0.43,0,0,1-.33-0.23,1.38,1.38,0,0,0-1.26-.82,1.08,1.08,0,0,0-1,1.11,1,1,0,0,0,.39.82l2,1.61a1.69,1.69,0,0,1,.58,1.36,1.82,1.82,0,0,1-1.91,1.73A2.18,2.18,0,0,1,1155.33,245.94Z"/><path class="cls-2" d="M1161.93,246v-4.82a0.37,0.37,0,0,1,.36-0.38,0.38,0.38,0,0,1,.36.38V246a1.38,1.38,0,1,0,2.76,0v-4.82a0.37,0.37,0,0,1,.36-0.38,0.38,0.38,0,0,1,.36.38V246A2.1,2.1,0,1,1,1161.93,246Z"/><path class="cls-2" d="M1168.72,247.78v-6.63a0.38,0.38,0,0,1,.36-0.38h1.6a2.27,2.27,0,0,1,0,4.54h-1.23v2.47a0.37,0.37,0,0,1-.37.38A0.38,0.38,0,0,1,1168.72,247.78Zm2-3.23a1.51,1.51,0,0,0,0-3h-1.23v3h1.23Z"/><path class="cls-2" d="M1175.38,247.78v-6.63a0.38,0.38,0,0,1,.36-0.38h1.6a2.27,2.27,0,0,1,0,4.54h-1.23v2.47a0.37,0.37,0,0,1-.37.38A0.38,0.38,0,0,1,1175.38,247.78Zm2-3.23a1.51,1.51,0,0,0,0-3h-1.23v3h1.23Z"/><path class="cls-2" d="M1181.91,246V243a2.1,2.1,0,1,1,4.2,0V246A2.1,2.1,0,1,1,1181.91,246Zm3.47,0V243a1.37,1.37,0,1,0-2.74,0V246A1.37,1.37,0,1,0,1185.38,246Z"/><path class="cls-2" d="M1188.66,247.78v-6.63a0.38,0.38,0,0,1,.36-0.38h1.61a2.24,2.24,0,0,1,2.19,2.27,2.28,2.28,0,0,1-1.46,2.14l1.65,2.39a0.35,0.35,0,0,1,.07.21,0.38,0.38,0,0,1-.36.38,0.33,0.33,0,0,1-.3-0.16l-1.87-2.69h-1.16v2.47a0.37,0.37,0,0,1-.37.38A0.38,0.38,0,0,1,1188.66,247.78Zm2-3.23a1.51,1.51,0,0,0,0-3h-1.24v3h1.24Z"/><path class="cls-2" d="M1197,247.78v-6.25h-2a0.38,0.38,0,0,1,0-.76h4.84a0.38,0.38,0,0,1,0,.76h-2v6.25A0.37,0.37,0,1,1,1197,247.78Z"/><path class="cls-2" d="M1208.68,247.78v-6.63a0.38,0.38,0,0,1,.36-0.38h1.6a2.27,2.27,0,0,1,0,4.54h-1.23v2.47a0.37,0.37,0,0,1-.37.38A0.38,0.38,0,0,1,1208.68,247.78Zm2-3.23a1.51,1.51,0,0,0,0-3h-1.23v3h1.23Z"/><path class="cls-2" d="M1215.54,248.05a0.37,0.37,0,0,1-.11-0.27v-6.64a0.36,0.36,0,0,1,.73,0v6.27h3.27a0.37,0.37,0,0,1,.36.37,0.37,0.37,0,0,1-.11.27,0.36,0.36,0,0,1-.25.11h-3.64A0.36,0.36,0,0,1,1215.54,248.05Z"/><path class="cls-2" d="M1221.15,247.78l2.48-6.78a0.35,0.35,0,0,1,.34-0.23,0.34,0.34,0,0,1,.34.23l2.48,6.78a0.37,0.37,0,0,1-.71.14l-0.62-1.67h-3l-0.62,1.67a0.36,0.36,0,0,1-.34.24A0.36,0.36,0,0,1,1221.15,247.78Zm4-2.28-1.21-3.28-1.21,3.28h2.42Z"/><path class="cls-2" d="M1230.26,247.78v-6.25h-2a0.38,0.38,0,0,1,0-.76H1233a0.38,0.38,0,0,1,0,.76h-2v6.25A0.37,0.37,0,1,1,1230.26,247.78Z"/><path class="cls-2" d="M1235.56,247.78v-6.63a0.37,0.37,0,0,1,.35-0.38h3.46a0.38,0.38,0,0,1,.36.38,0.38,0.38,0,0,1-.36.38h-3.1v2.56h2.36a0.37,0.37,0,0,1,.36.38,0.37,0.37,0,0,1-.36.37h-2.36v2.94a0.37,0.37,0,0,1-.36.38A0.36,0.36,0,0,1,1235.56,247.78Z"/><path class="cls-2" d="M1241.85,246V243a2.1,2.1,0,1,1,4.2,0V246A2.1,2.1,0,1,1,1241.85,246Zm3.47,0V243a1.37,1.37,0,1,0-2.74,0V246A1.37,1.37,0,1,0,1245.32,246Z"/><path class="cls-2" d="M1248.6,247.78v-6.63a0.38,0.38,0,0,1,.36-0.38h1.61a2.24,2.24,0,0,1,2.19,2.27,2.28,2.28,0,0,1-1.46,2.14l1.65,2.39a0.35,0.35,0,0,1,.07.21,0.38,0.38,0,0,1-.36.38,0.33,0.33,0,0,1-.3-0.16l-1.87-2.69h-1.16v2.47a0.37,0.37,0,0,1-.37.38A0.38,0.38,0,0,1,1248.6,247.78Zm2-3.23a1.51,1.51,0,0,0,0-3h-1.24v3h1.24Z"/><path class="cls-2" d="M1254.86,247.78v-6.64a0.37,0.37,0,0,1,.36-0.37,0.35,0.35,0,0,1,.33.21l1.72,3.64L1259,241a0.35,0.35,0,0,1,.33-0.21,0.37,0.37,0,0,1,.36.37v6.64a0.36,0.36,0,0,1-.36.38,0.37,0.37,0,0,1-.37-0.38v-5l-1.35,2.86a0.36,0.36,0,0,1-.66,0l-1.35-2.86v5A0.37,0.37,0,1,1,1254.86,247.78Z"/><path class="cls-2" d="M1186,267.24a0.59,0.59,0,0,1-.18-0.43V256.18a0.59,0.59,0,0,1,.18-0.42,0.56,0.56,0,0,1,.82,0,0.58,0.58,0,0,1,.18.42v10h5.23a0.6,0.6,0,0,1,.58.59,0.59,0.59,0,0,1-.18.43,0.57,0.57,0,0,1-.4.18h-5.83A0.57,0.57,0,0,1,1186,267.24Z"/><path class="cls-2" d="M1197.66,266.81a0.58,0.58,0,0,1,.58-0.59h1.94v-9.43h-1.94a0.59,0.59,0,0,1-.58-0.61,0.58,0.58,0,0,1,.58-0.59h5a0.6,0.6,0,0,1,0,1.2h-1.94v9.43h1.94a0.6,0.6,0,0,1,0,1.2h-5A0.59,0.59,0,0,1,1197.66,266.81Z"/><path class="cls-2" d="M1209.2,266.81V256.18a0.59,0.59,0,0,1,.58-0.59,0.52,0.52,0,0,1,.5.3l4.75,8.64v-8.35a0.59,0.59,0,0,1,.58-0.59,0.6,0.6,0,0,1,.58.59v10.63a0.59,0.59,0,0,1-.58.61,0.49,0.49,0,0,1-.5-0.3l-4.75-8.64v8.34A0.58,0.58,0,1,1,1209.2,266.81Z"/><path class="cls-2" d="M1221.38,266.81V256.2a0.59,0.59,0,0,1,.56-0.61h5.86a0.59,0.59,0,0,1,.56.62,0.57,0.57,0,0,1-.56.59h-5.28v4.1h4.1a0.6,0.6,0,0,1,0,1.2h-4.1v4.11h5.28a0.6,0.6,0,0,1,0,1.2h-5.86A0.58,0.58,0,0,1,1221.38,266.81Z"/></g><rect class="cls-6" x="983.17" y="285" width="150.09" height="64.32"/><g class="cls-7"><polygon class="cls-9" points="1125.08 293.95 998.82 293.95 998.82 301.39 991.39 301.39 991.39 340.37 1117.64 340.37 1117.64 332.94 1125.08 332.94 1125.08 293.95"/><polygon class="cls-2" points="998.82 301.39 991.39 301.39 998.82 293.95 998.82 301.39"/><polygon class="cls-2" points="1117.64 332.94 1125.08 332.94 1117.64 340.37 1117.64 332.94"/><rect class="cls-2" x="1121.07" y="293.95" width="4" height="4"/><rect class="cls-2" x="991.36" y="338.36" width="2" height="2.02" transform="translate(1331.73 -652.99) rotate(90)"/><polygon class="cls-2" points="1006.27 340.37 1006.85 339.37 1006.27 338.37 993.37 338.37 993.37 340.37 1006.27 340.37"/></g><g class="cls-8"><path class="cls-2" d="M1005.22,310.27a0.37,0.37,0,1,1,.73,0,1.43,1.43,0,0,0,1.4,1.46,1.1,1.1,0,0,0,1.19-1,0.94,0.94,0,0,0-.32-0.75l-2-1.61a1.87,1.87,0,0,1,1.12-3.28,2.19,2.19,0,0,1,1.6.74,1.48,1.48,0,0,1,.35.68,0.39,0.39,0,0,1-.36.39,0.43,0.43,0,0,1-.33-0.23,1.38,1.38,0,0,0-1.26-.82,1.08,1.08,0,0,0-1,1.11,1,1,0,0,0,.39.82l2,1.61a1.69,1.69,0,0,1,.58,1.36,1.82,1.82,0,0,1-1.91,1.73A2.18,2.18,0,0,1,1005.22,310.27Z"/><path class="cls-2" d="M1011.82,310.3v-4.82a0.37,0.37,0,0,1,.36-0.38,0.38,0.38,0,0,1,.36.38v4.82a1.38,1.38,0,1,0,2.76,0v-4.82a0.37,0.37,0,0,1,.36-0.38,0.38,0.38,0,0,1,.36.38v4.82A2.1,2.1,0,1,1,1011.82,310.3Z"/><path class="cls-2" d="M1018.61,312.11v-6.63a0.38,0.38,0,0,1,.36-0.38h1.6a2.27,2.27,0,0,1,0,4.54h-1.23v2.47a0.37,0.37,0,0,1-.37.38A0.38,0.38,0,0,1,1018.61,312.11Zm2-3.23a1.51,1.51,0,0,0,0-3h-1.23v3h1.23Z"/><path class="cls-2" d="M1025.27,312.11v-6.63a0.38,0.38,0,0,1,.36-0.38h1.6a2.27,2.27,0,0,1,0,4.54H1026v2.47a0.37,0.37,0,0,1-.37.38A0.38,0.38,0,0,1,1025.27,312.11Zm2-3.23a1.51,1.51,0,0,0,0-3H1026v3h1.23Z"/><path class="cls-2" d="M1031.8,310.34v-3.06a2.1,2.1,0,1,1,4.2,0v3.06A2.1,2.1,0,1,1,1031.8,310.34Zm3.47,0v-3.06a1.37,1.37,0,1,0-2.74,0v3.06A1.37,1.37,0,1,0,1035.27,310.34Z"/><path class="cls-2" d="M1038.55,312.11v-6.63a0.38,0.38,0,0,1,.36-0.38h1.61a2.24,2.24,0,0,1,2.19,2.27,2.28,2.28,0,0,1-1.46,2.14l1.65,2.39a0.35,0.35,0,0,1,.07.21,0.38,0.38,0,0,1-.36.38,0.33,0.33,0,0,1-.3-0.16l-1.87-2.69h-1.16v2.47a0.37,0.37,0,0,1-.37.38A0.38,0.38,0,0,1,1038.55,312.11Zm2-3.23a1.51,1.51,0,0,0,0-3h-1.24v3h1.24Z"/><path class="cls-2" d="M1046.85,312.11v-6.25h-2a0.38,0.38,0,0,1,0-.76h4.84a0.38,0.38,0,0,1,0,.76h-2v6.25A0.37,0.37,0,1,1,1046.85,312.11Z"/><path class="cls-2" d="M1058.57,312.11v-6.63a0.38,0.38,0,0,1,.36-0.38h1.6a2.27,2.27,0,0,1,0,4.54h-1.23v2.47a0.37,0.37,0,0,1-.37.38A0.38,0.38,0,0,1,1058.57,312.11Zm2-3.23a1.51,1.51,0,0,0,0-3h-1.23v3h1.23Z"/><path class="cls-2" d="M1065.43,312.38a0.37,0.37,0,0,1-.11-0.27v-6.64a0.36,0.36,0,0,1,.11-0.26,0.36,0.36,0,0,1,.25-0.11,0.36,0.36,0,0,1,.26.11,0.37,0.37,0,0,1,.11.26v6.27h3.27a0.38,0.38,0,0,1,.36.37,0.37,0.37,0,0,1-.11.27,0.36,0.36,0,0,1-.25.11h-3.64A0.36,0.36,0,0,1,1065.43,312.38Z"/><path class="cls-2" d="M1071,312.11l2.48-6.78a0.35,0.35,0,0,1,.34-0.23,0.34,0.34,0,0,1,.34.23l2.48,6.78a0.37,0.37,0,0,1-.71.14l-0.62-1.67h-3l-0.62,1.67a0.36,0.36,0,0,1-.34.24A0.37,0.37,0,0,1,1071,312.11Zm4-2.28-1.21-3.28-1.21,3.28h2.42Z"/><path class="cls-2" d="M1080.15,312.11v-6.25h-2a0.38,0.38,0,0,1,0-.76h4.84a0.38,0.38,0,0,1,0,.76h-2v6.25A0.37,0.37,0,1,1,1080.15,312.11Z"/><path class="cls-2" d="M1085.45,312.11v-6.63a0.37,0.37,0,0,1,.35-0.38h3.46a0.38,0.38,0,0,1,.36.38,0.38,0.38,0,0,1-.36.38h-3.1v2.56h2.36a0.38,0.38,0,0,1,0,.75h-2.36v2.94a0.37,0.37,0,0,1-.36.38A0.36,0.36,0,0,1,1085.45,312.11Z"/><path class="cls-2" d="M1091.74,310.34v-3.06a2.1,2.1,0,1,1,4.2,0v3.06A2.1,2.1,0,1,1,1091.74,310.34Zm3.47,0v-3.06a1.37,1.37,0,1,0-2.74,0v3.06A1.37,1.37,0,1,0,1095.21,310.34Z"/><path class="cls-2" d="M1098.49,312.11v-6.63a0.38,0.38,0,0,1,.36-0.38h1.61a2.24,2.24,0,0,1,2.19,2.27,2.28,2.28,0,0,1-1.46,2.14l1.65,2.39a0.35,0.35,0,0,1,.07.21,0.38,0.38,0,0,1-.36.38,0.33,0.33,0,0,1-.3-0.16l-1.87-2.69h-1.16v2.47a0.37,0.37,0,0,1-.37.38A0.38,0.38,0,0,1,1098.49,312.11Zm2-3.23a1.51,1.51,0,0,0,0-3h-1.24v3h1.24Z"/><path class="cls-2" d="M1104.75,312.11v-6.64a0.37,0.37,0,0,1,.36-0.37,0.35,0.35,0,0,1,.33.21l1.72,3.64,1.72-3.64a0.35,0.35,0,0,1,.33-0.21,0.37,0.37,0,0,1,.36.37v6.64a0.36,0.36,0,0,1-.36.38,0.37,0.37,0,0,1-.37-0.38v-5l-1.35,2.86a0.36,0.36,0,0,1-.66,0l-1.35-2.86v5A0.37,0.37,0,1,1,1104.75,312.11Z"/><path class="cls-2" d="M1029.48,328.19a0.58,0.58,0,1,1,1.17,0,2.29,2.29,0,0,0,2.24,2.34,1.76,1.76,0,0,0,1.91-1.59,1.49,1.49,0,0,0-.51-1.2l-3.19-2.58a3,3,0,0,1,1.79-5.25,3.51,3.51,0,0,1,2.56,1.18,2.38,2.38,0,0,1,.56,1.09,0.63,0.63,0,0,1-.58.62,0.69,0.69,0,0,1-.53-0.37,2.22,2.22,0,0,0-2-1.31,1.73,1.73,0,0,0-1.68,1.78,1.65,1.65,0,0,0,.62,1.31l3.19,2.58a2.7,2.7,0,0,1,.93,2.18,2.92,2.92,0,0,1-3.06,2.77A3.49,3.49,0,0,1,1029.48,328.19Z"/><path class="cls-2" d="M1041.85,331.56a0.59,0.59,0,0,1-.18-0.43V320.5a0.59,0.59,0,0,1,.18-0.42,0.56,0.56,0,0,1,.82,0,0.58,0.58,0,0,1,.18.42v10h5.23a0.6,0.6,0,0,1,.58.59,0.59,0.59,0,0,1-.18.43,0.57,0.57,0,0,1-.4.18h-5.83A0.57,0.57,0,0,1,1041.85,331.56Z"/><path class="cls-2" d="M1052.1,331.13l4-10.85a0.55,0.55,0,0,1,.54-0.37,0.54,0.54,0,0,1,.54.37l4,10.85a0.59,0.59,0,0,1-1.14.22l-1-2.67h-4.77l-1,2.67a0.57,0.57,0,0,1-.54.38A0.59,0.59,0,0,1,1052.1,331.13Zm6.45-3.65-1.94-5.25-1.94,5.25h3.87Z"/><path class="cls-2" d="M1065.37,328.25V323.4a3.35,3.35,0,1,1,6.69,0,0.58,0.58,0,0,1-.58.61,0.59,0.59,0,0,1-.58-0.61,2.19,2.19,0,1,0-4.39,0v4.85a2.19,2.19,0,1,0,4.39,0,0.58,0.58,0,1,1,1.15,0A3.35,3.35,0,1,1,1065.37,328.25Z"/><path class="cls-2" d="M1077.38,331.13V320.5a0.59,0.59,0,0,1,.58-0.59,0.6,0.6,0,0,1,.59.59v5.79l3.78-6.11a0.57,0.57,0,0,1,.5-0.27,0.6,0.6,0,0,1,.58.61,0.56,0.56,0,0,1-.1.3l-2.42,3.92,3.59,6.08a0.87,0.87,0,0,1,.08.34,0.57,0.57,0,0,1-.58.58,0.53,0.53,0,0,1-.5-0.29l-3.3-5.57-1.63,2.66v2.59A0.58,0.58,0,1,1,1077.38,331.13Z"/></g><rect class="cls-6" x="1133.28" y="285" width="150.09" height="64.32"/><g class="cls-7"><g id="_Group_" data-name="&lt;Group&gt;"><polygon class="cls-9" points="1275.18 293.95 1148.93 293.95 1148.93 301.39 1141.49 301.39 1141.49 340.37 1267.75 340.37 1267.75 332.94 1275.18 332.94 1275.18 293.95"/><polygon class="cls-2" points="1148.93 301.39 1141.49 301.39 1148.93 293.95 1148.93 301.39"/><polygon class="cls-2" points="1267.75 332.94 1275.18 332.94 1267.75 340.37 1267.75 332.94"/><rect class="cls-2" x="1271.18" y="293.95" width="4" height="4"/><rect class="cls-2" x="1141.47" y="338.36" width="2" height="2.02" transform="translate(1481.84 -803.09) rotate(90)"/><polygon class="cls-2" points="1156.38 340.37 1156.96 339.37 1156.38 338.37 1143.48 338.37 1143.48 340.37 1156.38 340.37"/></g></g><g class="cls-8"><path class="cls-2" d="M1155.33,310.27a0.37,0.37,0,1,1,.73,0,1.43,1.43,0,0,0,1.4,1.46,1.1,1.1,0,0,0,1.19-1,0.94,0.94,0,0,0-.32-0.75l-2-1.61a1.87,1.87,0,0,1,1.12-3.28,2.19,2.19,0,0,1,1.6.74,1.48,1.48,0,0,1,.35.68,0.39,0.39,0,0,1-.36.39,0.43,0.43,0,0,1-.33-0.23,1.38,1.38,0,0,0-1.26-.82,1.08,1.08,0,0,0-1,1.11,1,1,0,0,0,.39.82l2,1.61a1.69,1.69,0,0,1,.58,1.36,1.82,1.82,0,0,1-1.91,1.73A2.18,2.18,0,0,1,1155.33,310.27Z"/><path class="cls-2" d="M1161.93,310.3v-4.82a0.37,0.37,0,0,1,.36-0.38,0.38,0.38,0,0,1,.36.38v4.82a1.38,1.38,0,1,0,2.76,0v-4.82a0.37,0.37,0,0,1,.36-0.38,0.38,0.38,0,0,1,.36.38v4.82A2.1,2.1,0,1,1,1161.93,310.3Z"/><path class="cls-2" d="M1168.72,312.11v-6.63a0.38,0.38,0,0,1,.36-0.38h1.6a2.27,2.27,0,0,1,0,4.54h-1.23v2.47a0.37,0.37,0,0,1-.37.38A0.38,0.38,0,0,1,1168.72,312.11Zm2-3.23a1.51,1.51,0,0,0,0-3h-1.23v3h1.23Z"/><path class="cls-2" d="M1175.38,312.11v-6.63a0.38,0.38,0,0,1,.36-0.38h1.6a2.27,2.27,0,0,1,0,4.54h-1.23v2.47a0.37,0.37,0,0,1-.37.38A0.38,0.38,0,0,1,1175.38,312.11Zm2-3.23a1.51,1.51,0,0,0,0-3h-1.23v3h1.23Z"/><path class="cls-2" d="M1181.91,310.34v-3.06a2.1,2.1,0,1,1,4.2,0v3.06A2.1,2.1,0,1,1,1181.91,310.34Zm3.47,0v-3.06a1.37,1.37,0,1,0-2.74,0v3.06A1.37,1.37,0,1,0,1185.38,310.34Z"/><path class="cls-2" d="M1188.66,312.11v-6.63a0.38,0.38,0,0,1,.36-0.38h1.61a2.24,2.24,0,0,1,2.19,2.27,2.28,2.28,0,0,1-1.46,2.14l1.65,2.39a0.35,0.35,0,0,1,.07.21,0.38,0.38,0,0,1-.36.38,0.33,0.33,0,0,1-.3-0.16l-1.87-2.69h-1.16v2.47a0.37,0.37,0,0,1-.37.38A0.38,0.38,0,0,1,1188.66,312.11Zm2-3.23a1.51,1.51,0,0,0,0-3h-1.24v3h1.24Z"/><path class="cls-2" d="M1197,312.11v-6.25h-2a0.38,0.38,0,0,1,0-.76h4.84a0.38,0.38,0,0,1,0,.76h-2v6.25A0.37,0.37,0,1,1,1197,312.11Z"/><path class="cls-2" d="M1208.68,312.11v-6.63a0.38,0.38,0,0,1,.36-0.38h1.6a2.27,2.27,0,0,1,0,4.54h-1.23v2.47a0.37,0.37,0,0,1-.37.38A0.38,0.38,0,0,1,1208.68,312.11Zm2-3.23a1.51,1.51,0,0,0,0-3h-1.23v3h1.23Z"/><path class="cls-2" d="M1215.54,312.38a0.37,0.37,0,0,1-.11-0.27v-6.64a0.36,0.36,0,0,1,.11-0.26,0.36,0.36,0,0,1,.25-0.11,0.36,0.36,0,0,1,.26.11,0.37,0.37,0,0,1,.11.26v6.27h3.27a0.38,0.38,0,0,1,.36.37,0.37,0.37,0,0,1-.11.27,0.36,0.36,0,0,1-.25.11h-3.64A0.36,0.36,0,0,1,1215.54,312.38Z"/><path class="cls-2" d="M1221.15,312.11l2.48-6.78a0.35,0.35,0,0,1,.34-0.23,0.34,0.34,0,0,1,.34.23l2.48,6.78a0.37,0.37,0,0,1-.71.14l-0.62-1.67h-3l-0.62,1.67a0.36,0.36,0,0,1-.34.24A0.37,0.37,0,0,1,1221.15,312.11Zm4-2.28-1.21-3.28-1.21,3.28h2.42Z"/><path class="cls-2" d="M1230.26,312.11v-6.25h-2a0.38,0.38,0,0,1,0-.76H1233a0.38,0.38,0,0,1,0,.76h-2v6.25A0.37,0.37,0,1,1,1230.26,312.11Z"/><path class="cls-2" d="M1235.56,312.11v-6.63a0.37,0.37,0,0,1,.35-0.38h3.46a0.38,0.38,0,0,1,.36.38,0.38,0.38,0,0,1-.36.38h-3.1v2.56h2.36a0.38,0.38,0,0,1,0,.75h-2.36v2.94a0.37,0.37,0,0,1-.36.38A0.36,0.36,0,0,1,1235.56,312.11Z"/><path class="cls-2" d="M1241.85,310.34v-3.06a2.1,2.1,0,1,1,4.2,0v3.06A2.1,2.1,0,1,1,1241.85,310.34Zm3.47,0v-3.06a1.37,1.37,0,1,0-2.74,0v3.06A1.37,1.37,0,1,0,1245.32,310.34Z"/><path class="cls-2" d="M1248.6,312.11v-6.63a0.38,0.38,0,0,1,.36-0.38h1.61a2.24,2.24,0,0,1,2.19,2.27,2.28,2.28,0,0,1-1.46,2.14l1.65,2.39a0.35,0.35,0,0,1,.07.21,0.38,0.38,0,0,1-.36.38,0.33,0.33,0,0,1-.3-0.16l-1.87-2.69h-1.16v2.47a0.37,0.37,0,0,1-.37.38A0.38,0.38,0,0,1,1248.6,312.11Zm2-3.23a1.51,1.51,0,0,0,0-3h-1.24v3h1.24Z"/><path class="cls-2" d="M1254.86,312.11v-6.64a0.37,0.37,0,0,1,.36-0.37,0.35,0.35,0,0,1,.33.21l1.72,3.64,1.72-3.64a0.35,0.35,0,0,1,.33-0.21,0.37,0.37,0,0,1,.36.37v6.64a0.36,0.36,0,0,1-.36.38,0.37,0.37,0,0,1-.37-0.38v-5L1257.6,310a0.36,0.36,0,0,1-.66,0l-1.35-2.86v5A0.37,0.37,0,1,1,1254.86,312.11Z"/><path class="cls-2" d="M1164.35,331.13v-10h-3.28a0.61,0.61,0,0,1,0-1.22h7.75a0.61,0.61,0,0,1,0,1.22h-3.28v10A0.59,0.59,0,1,1,1164.35,331.13Z"/><path class="cls-2" d="M1173.63,331.13V320.52a0.59,0.59,0,0,1,.56-0.61h5.86a0.59,0.59,0,0,1,.56.63,0.57,0.57,0,0,1-.56.59h-5.28v4.1h4.1a0.6,0.6,0,0,1,0,1.2h-4.1v4.11h5.28a0.6,0.6,0,0,1,0,1.2h-5.86A0.58,0.58,0,0,1,1173.63,331.13Z"/><path class="cls-2" d="M1186,331.56a0.59,0.59,0,0,1-.18-0.43V320.5a0.59,0.59,0,0,1,.18-0.42,0.56,0.56,0,0,1,.82,0,0.58,0.58,0,0,1,.18.42v10h5.23a0.6,0.6,0,0,1,.58.59,0.59,0.59,0,0,1-.18.43,0.57,0.57,0,0,1-.4.18h-5.83A0.57,0.57,0,0,1,1186,331.56Z"/><path class="cls-2" d="M1197.5,331.13V320.52a0.59,0.59,0,0,1,.56-0.61h5.86a0.59,0.59,0,0,1,.56.63,0.57,0.57,0,0,1-.56.59h-5.28v4.1h4.1a0.6,0.6,0,0,1,0,1.2h-4.1v4.11h5.28a0.6,0.6,0,0,1,0,1.2h-5.86A0.58,0.58,0,0,1,1197.5,331.13Z"/><path class="cls-2" d="M1209.34,328.25V323.4a3.43,3.43,0,0,1,3.35-3.49,3.29,3.29,0,0,1,3.34,3.33,0.58,0.58,0,0,1-.58.61,0.59,0.59,0,0,1-.58-0.61,2.12,2.12,0,0,0-2.19-2.11,2.24,2.24,0,0,0-2.19,2.27v4.85a2.19,2.19,0,1,0,4.39,0v-1.18H1213a0.6,0.6,0,0,1-.58-0.59,0.59,0.59,0,0,1,.58-0.61h2.45a0.59,0.59,0,0,1,.58.61v1.78A3.35,3.35,0,1,1,1209.34,328.25Z"/><path class="cls-2" d="M1221.41,331.13V320.52a0.61,0.61,0,0,1,.58-0.61h2.58a3.58,3.58,0,0,1,3.51,3.63,3.65,3.65,0,0,1-2.34,3.42l2.64,3.83a0.56,0.56,0,0,1,.11.34,0.6,0.6,0,0,1-.58.61,0.53,0.53,0,0,1-.48-0.26l-3-4.3h-1.86v4a0.6,0.6,0,0,1-.59.61A0.6,0.6,0,0,1,1221.41,331.13Zm3.15-5.17a2.42,2.42,0,0,0,0-4.83h-2V326h2Z"/><path class="cls-2" d="M1232,331.13l4-10.85a0.55,0.55,0,0,1,.54-0.37,0.54,0.54,0,0,1,.54.37l4,10.85a0.59,0.59,0,0,1-1.14.22l-1-2.67h-4.77l-1,2.67a0.57,0.57,0,0,1-.54.38A0.59,0.59,0,0,1,1232,331.13Zm6.45-3.65-1.94-5.25-1.94,5.25h3.87Z"/><path class="cls-2" d="M1244.64,331.13V320.5a0.6,0.6,0,0,1,.58-0.59,0.55,0.55,0,0,1,.53.34l2.75,5.83,2.75-5.83a0.55,0.55,0,0,1,.53-0.34,0.6,0.6,0,0,1,.58.59v10.63a0.58,0.58,0,0,1-.58.61,0.59,0.59,0,0,1-.59-0.61v-8l-2.16,4.58a0.58,0.58,0,0,1-1.06,0l-2.16-4.58v8A0.58,0.58,0,1,1,1244.64,331.13Z"/></g></svg>