<svg xmlns="http://www.w3.org/2000/svg" width="320" height="508" viewBox="0 0 320 508">
    <g fill="none" fill-rule="evenodd">
        <path fill="#000" fill-rule="nonzero" d="M0 0h320v508H0z"/>
        <g stroke="#FFF" stroke-width=".5" opacity=".1">
            <path d="M306.15 498.38V.35M294.91 498.38V.35M317.4 498.38V.35M283.66 498.38V.35M272.41 498.38V.35M261.16 498.38V.35M249.91 498.38V.35M238.67 498.38V.35M227.42 498.38V.35M216.17 498.38V.35M204.92 498.38V.35M193.68 498.38V.35M182.43 498.38V.35M171.18 498.38V.35M159.93 498.38V.35M148.68 498.38V.35M137.44 498.38V.35M126.19 498.38V.35M114.94 498.38V.35M103.69 498.38V.35M92.45 498.38V.35M81.2 498.38V.35M69.95 498.38V.35M58.7 498.38V.35M47.46 498.38V.35M36.21 498.38V.35M24.96 498.38V.35M13.71 498.38V.35M2.6 498.38V.35M316.58 6.72H2.87M316.58 17.97H2.87M316.58 29.22H2.87M316.58 40.47H2.87M316.58 51.71H2.87M316.58 62.96H2.87M316.58 74.21H2.87M316.58 85.46H2.87M316.58 96.7H2.87M316.58 107.95H2.87M316.58 119.2H2.87M316.58 130.45H2.87M316.58 141.7H2.87M316.58 152.94H2.87M316.58 164.19H2.87M316.58 175.44H2.87M316.58 186.69H2.87M316.58 197.93H2.87M316.58 209.18H2.87M316.58 220.43H2.87M316.58 231.68H2.87M316.58 242.92H2.87M316.58 254.17H2.87M316.58 265.42H2.87M316.58 276.67H2.87M316.58 287.92H2.87M316.58 299.16H2.87M316.58 310.41H2.87M316.58 321.66H2.87M316.58 332.91H2.87M316.58 344.15H2.87M316.58 355.4H2.87M316.58 366.65H2.87M316.58 377.9H2.87M316.58 389.15H2.87M316.58 400.39H2.87M316.58 411.64H2.87M316.58 422.89H2.87M316.58 434.14H2.87M316.58 445.38H2.87M316.58 456.63H2.87M316.58 467.88H2.87M316.58 479.13H2.87M316.58 490.37H2.87"/>
        </g>
        <path d="M205 441.26h90v45h-90z"/>
        <g fill="#FFF" fill-rule="nonzero" opacity=".72">
            <path d="M291.326 449.33h-78.275v4.613h-4.606v24.167h78.275v-4.612h4.606z" opacity=".16"/>
            <path d="M213.051 453.943h-4.606l4.606-4.613zM286.72 473.498h4.613l-4.613 4.612zM288.853 449.33h2.48v2.48h-2.48zM209.672 478.11v-1.24h-1.252v1.24zM217.67 478.11l.36-.62-.36-.62h-7.998v1.24z"/>
        </g>
        <g fill="#FFF" fill-rule="nonzero" opacity=".9">
            <path d="M221.19 459.47a.23.23 0 1 1 .45 0 .89.89 0 0 0 .87.91.68.68 0 0 0 .74-.62.58.58 0 0 0-.2-.47l-1.24-1a1.16 1.16 0 0 1 .7-2 1.36 1.36 0 0 1 1 .46.93.93 0 0 1 .22.42.24.24 0 0 1-.22.24.27.27 0 0 1-.21-.14.86.86 0 0 0-.78-.51.67.67 0 0 0-.65.69.64.64 0 0 0 .24.51l1.24 1c.245.213.378.526.36.85a1.13 1.13 0 0 1-1.19 1.07 1.36 1.36 0 0 1-1.33-1.41zM225.29 459.49v-3a.23.23 0 0 1 .22-.24.23.23 0 0 1 .22.24v3a.86.86 0 0 0 1.72 0v-3a.23.23 0 0 1 .22-.24.23.23 0 0 1 .22.24v3a1.31 1.31 0 1 1-2.6 0zM229.51 460.62v-4.12a.24.24 0 0 1 .22-.24h1a1.41 1.41 0 1 1 0 2.82H230v1.54a.23.23 0 0 1-.23.24.23.23 0 0 1-.26-.24zm1.22-2a.94.94 0 1 0 0-1.88H230v1.88h.76-.03zM233.66 460.62v-4.12a.24.24 0 0 1 .22-.24h1a1.41 1.41 0 1 1 0 2.82h-.76v1.54a.23.23 0 1 1-.46 0zm1.22-2a.94.94 0 1 0 0-1.88h-.76v1.88h.76zM237.72 459.52v-1.9a1.31 1.31 0 1 1 2.61 0v1.9a1.31 1.31 0 1 1-2.61 0zm2.16 0v-1.9a.85.85 0 1 0-1.7 0v1.9a.85.85 0 1 0 1.69 0h.01zM241.91 460.62v-4.12a.24.24 0 0 1 .22-.24h1a1.39 1.39 0 0 1 1.36 1.41 1.42 1.42 0 0 1-.91 1.33l1 1.49a.22.22 0 0 1 0 .13.23.23 0 0 1-.22.24.21.21 0 0 1-.19-.1l-1.16-1.67h-.72v1.54a.23.23 0 0 1-.23.24.23.23 0 0 1-.15-.25zm1.22-2a.94.94 0 1 0 0-1.88h-.77v1.88h.77zM247.07 460.62v-3.88h-1.27a.24.24 0 0 1 0-.47h3a.24.24 0 0 1 0 .47h-1.27v3.88a.23.23 0 1 1-.46 0zM254.32 459.47a.23.23 0 1 1 .45 0 .89.89 0 0 0 .87.91.68.68 0 0 0 .74-.62.58.58 0 0 0-.2-.47l-1.24-1a1.16 1.16 0 0 1 .7-2 1.36 1.36 0 0 1 1 .46.93.93 0 0 1 .22.42.24.24 0 0 1-.22.24.27.27 0 0 1-.21-.14.86.86 0 0 0-.78-.51.67.67 0 0 0-.65.69.64.64 0 0 0 .24.51l1.24 1c.245.213.378.526.36.85a1.13 1.13 0 0 1-1.19 1.07 1.36 1.36 0 0 1-1.33-1.41zM258.47 460.62v-4.12a.23.23 0 0 1 .22-.24H261a.23.23 0 0 1 .22.24.22.22 0 0 1-.22.23h-2.05v1.59h1.59a.235.235 0 0 1 0 .47h-1.59v1.6H261a.235.235 0 0 1 0 .47h-2.27a.22.22 0 0 1-.26-.24zM262.62 460.62v-4.12a.24.24 0 0 1 .22-.24h1a1.39 1.39 0 0 1 1.36 1.41 1.42 1.42 0 0 1-.91 1.33l1 1.49a.22.22 0 0 1 0 .13.23.23 0 0 1-.22.24.21.21 0 0 1-.19-.1l-1.16-1.67H263v1.54a.23.23 0 0 1-.23.24.23.23 0 0 1-.15-.25zm1.22-2a.94.94 0 1 0 0-1.88h-.77v1.88h.77zM267.8 460.7l-1.21-4.08a.41.41 0 0 1 0-.12.22.22 0 0 1 .22-.24.23.23 0 0 1 .22.17l1 3.39 1-3.39a.23.23 0 0 1 .22-.17.21.21 0 0 1 .23.22.6.6 0 0 1 0 .14l-1.21 4.08a.235.235 0 1 1-.47 0zM270.89 460.62v-4.12a.23.23 0 0 1 .22-.24h2.27a.23.23 0 0 1 .22.24.22.22 0 0 1-.22.23h-2.05v1.59h1.59a.235.235 0 0 1 0 .47h-1.59v1.6h2.05a.235.235 0 0 1 0 .47h-2.27a.22.22 0 0 1-.22-.24zM275 460.62v-4.12a.24.24 0 0 1 .22-.24h1a1.39 1.39 0 0 1 1.36 1.41 1.42 1.42 0 0 1-.91 1.33l1 1.49a.22.22 0 0 1 0 .13.23.23 0 0 1-.22.24.21.21 0 0 1-.19-.1l-1.16-1.67h-.6v1.54a.23.23 0 0 1-.23.24.23.23 0 0 1-.27-.25zm1.22-2a.94.94 0 1 0 0-1.88h-.72v1.88h.77-.05zM224.72 472.45v-6.6a.37.37 0 0 1 .35-.38h3.64a.37.37 0 0 1 .35.39.36.36 0 0 1-.35.37h-3.28v2.55H228a.375.375 0 1 1 0 .75h-2.55v2.56h3.28a.375.375 0 1 1 0 .75h-3.64a.36.36 0 0 1-.37-.39zM232.12 472.46a.31.31 0 0 1 0-.18l1.58-3.13-1.53-3.15a.5.5 0 0 1 0-.2.36.36 0 0 1 .36-.36.34.34 0 0 1 .32.21l1.35 2.67 1.35-2.67a.34.34 0 0 1 .32-.21.34.34 0 0 1 .36.36.47.47 0 0 1 0 .2l-1.58 3.13 1.58 3.13a.49.49 0 0 1 0 .19.36.36 0 0 1-.69.16l-1.35-2.68-1.35 2.68a.37.37 0 0 1-.32.2.37.37 0 0 1-.4-.35zM239.62 472.45v-6.6a.38.38 0 0 1 .36-.38h1.59a2.26 2.26 0 0 1 0 4.52h-1.22v2.46a.37.37 0 0 1-.37.38.37.37 0 0 1-.36-.38zm2-3.21a1.5 1.5 0 0 0 0-3h-1.22v3h1.22zM247 472.45v-6.6a.38.38 0 0 1 .36-.38H249a2.23 2.23 0 0 1 2.18 2.26 2.27 2.27 0 0 1-1.45 2.13l1.64 2.38a.35.35 0 0 1 .07.21.37.37 0 0 1-.36.38.33.33 0 0 1-.3-.16l-1.9-2.67h-1.15v2.46a.37.37 0 0 1-.37.38.37.37 0 0 1-.36-.39zm2-3.21a1.5 1.5 0 0 0 0-3h-1.23v3H249zM254.41 472.45v-6.6a.37.37 0 0 1 .35-.38h3.64a.37.37 0 0 1 .35.39.36.36 0 0 1-.35.37h-3.28v2.55h2.55a.375.375 0 1 1 0 .75h-2.55v2.56h3.28a.375.375 0 1 1 0 .75h-3.64a.36.36 0 0 1-.35-.39zM261.82 470.62a.365.365 0 0 1 .73 0 1.42 1.42 0 0 0 1.39 1.45 1.09 1.09 0 0 0 1.18-1 .93.93 0 0 0-.32-.75l-2-1.6a1.86 1.86 0 0 1 1.11-3.26 2.19 2.19 0 0 1 1.59.74c.174.192.295.427.35.68a.39.39 0 0 1-.36.39.43.43 0 0 1-.33-.23 1.38 1.38 0 0 0-1.25-.82 1.08 1.08 0 0 0-1 1.11 1 1 0 0 0 .39.82l2 1.6c.39.337.604.835.58 1.35a1.81 1.81 0 0 1-1.9 1.72 2.17 2.17 0 0 1-2.16-2.2zM269.24 470.62a.365.365 0 0 1 .73 0 1.42 1.42 0 0 0 1.39 1.45 1.09 1.09 0 0 0 1.18-1 .93.93 0 0 0-.32-.75l-2-1.6a1.86 1.86 0 0 1 1.11-3.26 2.19 2.19 0 0 1 1.59.74c.174.192.295.427.35.68a.39.39 0 0 1-.36.39.43.43 0 0 1-.33-.23 1.38 1.38 0 0 0-1.25-.82 1.08 1.08 0 0 0-1 1.11 1 1 0 0 0 .39.82l2 1.6c.39.337.604.835.58 1.35a1.81 1.81 0 0 1-1.9 1.72 2.17 2.17 0 0 1-2.16-2.2z"/>
        </g>
        <path d="M114.49 401.26h90v45h-90z"/>
        <g fill="#FFF" fill-rule="nonzero" opacity=".72">
            <path d="M200.816 409.33h-78.275v4.613h-4.606v24.167h78.275v-4.612h4.606z" opacity=".16"/>
            <path d="M122.541 413.943h-4.606l4.606-4.613zM196.21 433.498h4.613l-4.613 4.612zM198.343 409.33h2.48v2.48h-2.48zM119.162 438.11v-1.24h-1.252v1.24z"/>
            <path d="M127.16 438.11l.36-.62-.36-.62h-7.998v1.24z"/>
        </g>
        <g fill="#FFF" fill-rule="nonzero" opacity=".9">
            <path d="M130.68 419.47a.23.23 0 1 1 .45 0 .89.89 0 0 0 .87.91.68.68 0 0 0 .74-.62.58.58 0 0 0-.2-.47l-1.24-1a1.16 1.16 0 0 1 .7-2 1.36 1.36 0 0 1 1 .46.93.93 0 0 1 .22.42.24.24 0 0 1-.22.24.27.27 0 0 1-.21-.14.86.86 0 0 0-.78-.51.67.67 0 0 0-.65.69.64.64 0 0 0 .24.51l1.24 1c.245.213.378.526.36.85a1.13 1.13 0 0 1-1.19 1.07 1.36 1.36 0 0 1-1.33-1.41zM134.78 419.49v-3a.23.23 0 0 1 .22-.24.23.23 0 0 1 .22.24v3a.86.86 0 0 0 1.72 0v-3a.23.23 0 0 1 .22-.24.23.23 0 0 1 .22.24v3a1.31 1.31 0 1 1-2.6 0zM139 420.62v-4.12a.24.24 0 0 1 .22-.24h1a1.41 1.41 0 1 1 0 2.82h-.76v1.54a.23.23 0 1 1-.46 0zm1.22-2a.94.94 0 1 0 0-1.88h-.76v1.88h.76zM143.15 420.62v-4.12a.24.24 0 0 1 .22-.24h1a1.41 1.41 0 1 1 0 2.82h-.77v1.54a.23.23 0 0 1-.23.24.23.23 0 0 1-.22-.24zm1.22-2a.94.94 0 1 0 0-1.88h-.77v1.88h.77zM147.21 419.52v-1.9a1.31 1.31 0 1 1 2.61 0v1.9a1.31 1.31 0 1 1-2.61 0zm2.16 0v-1.9a.85.85 0 0 0-1.7 0v1.9a.85.85 0 1 0 1.69 0h.01zM151.4 420.62v-4.12a.24.24 0 0 1 .22-.24h1a1.39 1.39 0 0 1 1.36 1.41 1.42 1.42 0 0 1-.91 1.33l1 1.49a.22.22 0 0 1 0 .13.23.23 0 0 1-.22.24.21.21 0 0 1-.19-.1l-1.16-1.67h-.72v1.54a.23.23 0 0 1-.23.24.23.23 0 0 1-.15-.25zm1.22-2a.94.94 0 1 0 0-1.88h-.77v1.88h.77zM156.57 420.62v-3.88h-1.27a.24.24 0 0 1 0-.47h3a.24.24 0 0 1 0 .47H157v3.88a.23.23 0 1 1-.43 0zM163.81 419.47a.23.23 0 1 1 .45 0 .89.89 0 0 0 .87.91.68.68 0 0 0 .74-.62.58.58 0 0 0-.2-.47l-1.24-1a1.16 1.16 0 0 1 .7-2 1.36 1.36 0 0 1 1 .46.93.93 0 0 1 .22.42.24.24 0 0 1-.22.24.27.27 0 0 1-.21-.14.86.86 0 0 0-.78-.51.67.67 0 0 0-.65.69.64.64 0 0 0 .24.51l1.24 1c.245.213.378.526.36.85a1.13 1.13 0 0 1-1.19 1.07 1.36 1.36 0 0 1-1.33-1.41zM168 420.62v-4.12a.23.23 0 0 1 .22-.24h2.27a.23.23 0 0 1 .22.24.22.22 0 0 1-.22.23h-2.09v1.59h1.6a.235.235 0 0 1 0 .47h-1.6v1.6h2.05a.235.235 0 0 1 0 .47h-2.27a.22.22 0 0 1-.18-.24zM172.11 420.62v-4.12a.24.24 0 0 1 .22-.24h1a1.39 1.39 0 0 1 1.36 1.41 1.42 1.42 0 0 1-.91 1.33l1 1.49a.22.22 0 0 1 0 .13.23.23 0 0 1-.22.24.21.21 0 0 1-.19-.1l-1.16-1.67h-.72v1.54a.23.23 0 0 1-.23.24.23.23 0 0 1-.15-.25zm1.22-2a.94.94 0 1 0 0-1.88h-.77v1.88h.77zM177.29 420.7l-1.21-4.08a.41.41 0 0 1 0-.12.22.22 0 0 1 .22-.24.23.23 0 0 1 .22.17l1 3.39 1-3.39a.23.23 0 0 1 .22-.17.21.21 0 0 1 .23.22.6.6 0 0 1 0 .14l-1.21 4.08a.235.235 0 0 1-.47 0zM180.38 420.62v-4.12a.23.23 0 0 1 .22-.24h2.27a.23.23 0 0 1 .22.24.22.22 0 0 1-.22.23h-2.05v1.59h1.59a.235.235 0 0 1 0 .47h-1.59v1.6h2.05a.235.235 0 0 1 0 .47h-2.27a.22.22 0 0 1-.22-.24zM184.54 420.62v-4.12a.24.24 0 0 1 .22-.24h1a1.39 1.39 0 0 1 1.36 1.41 1.42 1.42 0 0 1-.91 1.33l1 1.49a.22.22 0 0 1 0 .13.23.23 0 0 1-.22.24.21.21 0 0 1-.19-.1l-1.16-1.67H185v1.54a.23.23 0 1 1-.46-.01zm1.22-2a.94.94 0 1 0 0-1.88H185v1.88h.77-.01zM149.14 432.45v-6.61a.36.36 0 0 1 .36-.37.37.37 0 0 1 .37.37v3.6l2.35-3.8a.35.35 0 0 1 .31-.17.37.37 0 0 1 .3.57l-1.5 2.44 2.23 3.78a.54.54 0 0 1 0 .21.36.36 0 0 1-.36.36.33.33 0 0 1-.31-.18l-2.05-3.46-1 1.65v1.61a.36.36 0 1 1-.7 0zM156.41 430.69v-3a2.09 2.09 0 0 1 4.18 0v3a2.09 2.09 0 0 1-4.18 0zm3.45 0v-3a1.365 1.365 0 1 0-2.73 0v3a1.365 1.365 0 1 0 2.73 0zM163.11 432.45l2.47-6.75a.34.34 0 0 1 .34-.23.34.34 0 0 1 .34.23l2.47 6.75a.362.362 0 1 1-.71.14l-.62-1.66h-3l-.62 1.66a.36.36 0 0 1-.34.24.36.36 0 0 1-.33-.38zm4-2.27l-1.2-3.26-1.2 3.26h2.41-.01z"/>
        </g>
        <path d="M25 441.26h90v45H25z"/>
        <g fill="#FFF" fill-rule="nonzero" opacity=".72">
            <path d="M111.326 449.33H33.051v4.613h-4.606v24.167h78.275v-4.612h4.606z" opacity=".16"/>
            <path d="M33.051 453.943h-4.606l4.606-4.613zM106.72 473.498h4.613l-4.613 4.612zM108.853 449.33h2.48v2.48h-2.48zM29.672 478.11v-1.24H28.42v1.24zM37.67 478.11l.36-.62-.36-.62h-7.998v1.24z"/>
        </g>
        <g fill="#FFF" fill-rule="nonzero" opacity=".9">
            <path d="M41.19 459.47a.23.23 0 1 1 .45 0 .89.89 0 0 0 .87.91.68.68 0 0 0 .74-.62.58.58 0 0 0-.2-.47l-1.24-1a1.16 1.16 0 0 1 .7-2 1.36 1.36 0 0 1 1 .46.92.92 0 0 1 .22.42.24.24 0 0 1-.22.24.27.27 0 0 1-.21-.14.86.86 0 0 0-.78-.51.67.67 0 0 0-.65.69.64.64 0 0 0 .24.51l1.24 1c.245.213.378.526.36.85a1.13 1.13 0 0 1-1.19 1.08 1.36 1.36 0 0 1-1.33-1.42zM45.3 459.49v-3a.23.23 0 0 1 .22-.24.23.23 0 0 1 .22.24v3a.86.86 0 1 0 1.72 0v-3a.23.23 0 0 1 .22-.24.23.23 0 0 1 .22.24v3a1.31 1.31 0 1 1-2.6 0zM49.52 460.62v-4.12a.24.24 0 0 1 .22-.24h1a1.41 1.41 0 1 1 0 2.82H50v1.54a.23.23 0 0 1-.23.24.23.23 0 0 1-.25-.24zm1.22-2a.94.94 0 1 0 0-1.88H50v1.88h.76-.02zM53.66 460.62v-4.12a.24.24 0 0 1 .22-.24h1a1.41 1.41 0 1 1 0 2.82h-.77v1.54a.23.23 0 0 1-.23.24.23.23 0 0 1-.22-.24zm1.22-2a.94.94 0 1 0 0-1.88h-.77v1.88h.77zM57.72 459.52v-1.9a1.31 1.31 0 1 1 2.61 0v1.9a1.31 1.31 0 1 1-2.61 0zm2.16 0v-1.9a.85.85 0 0 0-1.7 0v1.9a.85.85 0 0 0 1.7 0zM61.92 460.62v-4.12a.24.24 0 0 1 .22-.24h1a1.39 1.39 0 0 1 1.36 1.41 1.42 1.42 0 0 1-.9 1.33l1 1.49a.22.22 0 0 1 0 .13.23.23 0 0 1-.22.24.21.21 0 0 1-.19-.1l-1.16-1.67h-.66v1.54a.23.23 0 0 1-.23.24.23.23 0 0 1-.22-.25zm1.22-2a.94.94 0 1 0 0-1.88h-.77v1.88h.77zM67.08 460.62v-3.88H65.8a.24.24 0 0 1 0-.47h3a.24.24 0 0 1 0 .47h-1.26v3.88a.23.23 0 1 1-.46 0zM74.32 459.47a.23.23 0 1 1 .45 0 .89.89 0 0 0 .87.91.68.68 0 0 0 .74-.62.58.58 0 0 0-.2-.47l-1.24-1a1.16 1.16 0 0 1 .7-2 1.36 1.36 0 0 1 1 .46.92.92 0 0 1 .22.42.24.24 0 0 1-.22.24.27.27 0 0 1-.21-.14.86.86 0 0 0-.78-.51.67.67 0 0 0-.65.69.64.64 0 0 0 .24.51l1.24 1c.245.213.378.526.36.85a1.13 1.13 0 0 1-1.19 1.08 1.36 1.36 0 0 1-1.33-1.42zM78.47 460.62v-4.12a.23.23 0 0 1 .22-.24H81a.23.23 0 0 1 .22.24.22.22 0 0 1-.22.23h-2.09v1.59h1.59a.235.235 0 0 1 0 .47h-1.59v1.6H81a.235.235 0 0 1 0 .47h-2.31a.23.23 0 0 1-.22-.24zM82.63 460.62v-4.12a.24.24 0 0 1 .22-.24h1a1.39 1.39 0 0 1 1.36 1.41 1.42 1.42 0 0 1-.91 1.33l1 1.49a.22.22 0 0 1 0 .13.23.23 0 0 1-.22.24.21.21 0 0 1-.19-.1l-1.16-1.67h-.65v1.54a.23.23 0 0 1-.23.24.23.23 0 0 1-.22-.25zm1.22-2a.94.94 0 1 0 0-1.88h-.77v1.88h.77zM87.8 460.7l-1.21-4.08a.41.41 0 0 1 0-.12.22.22 0 0 1 .22-.24.23.23 0 0 1 .22.17l1 3.39 1-3.39a.23.23 0 0 1 .22-.17.21.21 0 0 1 .23.22.6.6 0 0 1 0 .14l-1.21 4.08a.235.235 0 0 1-.47 0zM90.9 460.62v-4.12a.23.23 0 0 1 .22-.24h2.27a.23.23 0 0 1 .22.24.22.22 0 0 1-.22.23h-2.05v1.59h1.59a.235.235 0 0 1 0 .47h-1.59v1.6h2.05a.235.235 0 0 1 0 .47h-2.28a.22.22 0 0 1-.21-.24zM95 460.62v-4.12a.24.24 0 0 1 .22-.24h1a1.39 1.39 0 0 1 1.36 1.41 1.42 1.42 0 0 1-.91 1.33l1 1.49a.22.22 0 0 1 0 .13.23.23 0 0 1-.22.24.21.21 0 0 1-.19-.1l-1.16-1.67h-.6v1.54a.23.23 0 0 1-.23.24.23.23 0 0 1-.27-.25zm1.22-2a.94.94 0 1 0 0-1.88h-.72v1.88h.77-.05zM51.76 472.45v-6.61c0-.2.16-.365.36-.37a.35.35 0 0 1 .33.21l1.71 3.62 1.71-3.62a.35.35 0 0 1 .33-.21c.2.005.36.17.36.37v6.61a.36.36 0 0 1-.36.38.37.37 0 0 1-.37-.38v-5l-1.34 2.85a.36.36 0 0 1-.66 0l-1.34-2.85v5a.365.365 0 0 1-.73 0zM59.66 472.45a.36.36 0 0 1 .36-.37h1.2v-5.86H60a.37.37 0 0 1-.36-.38.36.36 0 0 1 .36-.37h3.13a.375.375 0 1 1 0 .75h-1.2v5.86h1.2a.375.375 0 1 1 0 .75H60a.37.37 0 0 1-.34-.38zM67 470.66v-3a2.08 2.08 0 1 1 4.16 0 .36.36 0 0 1-.36.38.37.37 0 0 1-.36-.38 1.365 1.365 0 1 0-2.73 0v3a1.365 1.365 0 1 0 2.73 0 .36.36 0 0 1 .72 0 2.08 2.08 0 1 1-4.16 0zM74.43 472.45v-6.6a.38.38 0 0 1 .36-.38h1.6a2.23 2.23 0 0 1 2.18 2.26 2.27 2.27 0 0 1-1.45 2.13l1.64 2.38a.35.35 0 0 1 .07.21.37.37 0 0 1-.36.38.33.33 0 0 1-.3-.16L76.31 470h-1.15v2.46a.37.37 0 0 1-.37.38.37.37 0 0 1-.36-.39zm2-3.21a1.5 1.5 0 0 0 0-3h-1.27v3h1.27zM81.76 470.69v-3a2.09 2.09 0 0 1 4.18 0v3a2.09 2.09 0 0 1-4.18 0zm3.45 0v-3a1.365 1.365 0 1 0-2.73 0v3a1.37 1.37 0 0 0 2.74 0h-.01z"/>
        </g>
        <path d="M114.49 441.26h90v45h-90z"/>
        <g fill="#FFF" fill-rule="nonzero" opacity=".72">
            <path d="M200.816 449.33h-78.275v4.613h-4.606v24.167h78.275v-4.612h4.606z" opacity=".16"/>
            <path d="M122.541 453.943h-4.606l4.606-4.613zM196.21 473.498h4.613l-4.613 4.612zM198.343 449.33h2.48v2.48h-2.48zM119.162 478.11v-1.24h-1.252v1.24z"/>
            <path d="M127.16 478.11l.36-.62-.36-.62h-7.998v1.24z"/>
        </g>
        <g fill="#FFF" fill-rule="nonzero" opacity=".9">
            <path d="M130.68 459.47a.23.23 0 1 1 .45 0 .89.89 0 0 0 .87.91.68.68 0 0 0 .74-.62.58.58 0 0 0-.2-.47l-1.24-1a1.16 1.16 0 0 1 .7-2 1.36 1.36 0 0 1 1 .46.92.92 0 0 1 .22.42.24.24 0 0 1-.22.24.27.27 0 0 1-.21-.14.86.86 0 0 0-.78-.51.67.67 0 0 0-.65.69.64.64 0 0 0 .24.51l1.24 1c.245.213.378.526.36.85a1.13 1.13 0 0 1-1.19 1.08 1.36 1.36 0 0 1-1.33-1.42zM134.78 459.49v-3a.23.23 0 0 1 .22-.24.23.23 0 0 1 .22.24v3a.86.86 0 0 0 1.72 0v-3a.23.23 0 0 1 .22-.24.23.23 0 0 1 .22.24v3a1.31 1.31 0 1 1-2.6 0zM139 460.62v-4.12a.24.24 0 0 1 .22-.24h1a1.41 1.41 0 1 1 0 2.82h-.76v1.54a.23.23 0 1 1-.46 0zm1.22-2a.94.94 0 1 0 0-1.88h-.76v1.88h.76zM143.15 460.62v-4.12a.24.24 0 0 1 .22-.24h1a1.41 1.41 0 1 1 0 2.82h-.77v1.54a.23.23 0 0 1-.23.24.23.23 0 0 1-.22-.24zm1.22-2a.94.94 0 1 0 0-1.88h-.77v1.88h.77zM147.21 459.52v-1.9a1.31 1.31 0 1 1 2.61 0v1.9a1.31 1.31 0 1 1-2.61 0zm2.16 0v-1.9a.85.85 0 0 0-1.7 0v1.9a.85.85 0 1 0 1.69 0h.01zM151.4 460.62v-4.12a.24.24 0 0 1 .22-.24h1a1.39 1.39 0 0 1 1.36 1.41 1.42 1.42 0 0 1-.91 1.33l1 1.49a.22.22 0 0 1 0 .13.23.23 0 0 1-.22.24.21.21 0 0 1-.19-.1l-1.16-1.67h-.72v1.54a.23.23 0 0 1-.23.24.23.23 0 0 1-.15-.25zm1.22-2a.94.94 0 1 0 0-1.88h-.77v1.88h.77zM156.57 460.62v-3.88h-1.27a.24.24 0 0 1 0-.47h3a.24.24 0 0 1 0 .47H157v3.88a.23.23 0 1 1-.43 0zM163.81 459.47a.23.23 0 1 1 .45 0 .89.89 0 0 0 .87.91.68.68 0 0 0 .74-.62.58.58 0 0 0-.2-.47l-1.24-1a1.16 1.16 0 0 1 .7-2 1.36 1.36 0 0 1 1 .46.92.92 0 0 1 .22.42.24.24 0 0 1-.22.24.27.27 0 0 1-.21-.14.86.86 0 0 0-.78-.51.67.67 0 0 0-.65.69.64.64 0 0 0 .24.51l1.24 1c.245.213.378.526.36.85a1.13 1.13 0 0 1-1.19 1.08 1.36 1.36 0 0 1-1.33-1.42zM168 460.62v-4.12a.23.23 0 0 1 .22-.24h2.27a.23.23 0 0 1 .22.24.22.22 0 0 1-.22.23h-2.09v1.59h1.6a.235.235 0 0 1 0 .47h-1.6v1.6h2.05a.235.235 0 0 1 0 .47h-2.27a.23.23 0 0 1-.18-.24zM172.11 460.62v-4.12a.24.24 0 0 1 .22-.24h1a1.39 1.39 0 0 1 1.36 1.41 1.42 1.42 0 0 1-.91 1.33l1 1.49a.22.22 0 0 1 0 .13.23.23 0 0 1-.22.24.21.21 0 0 1-.19-.1l-1.16-1.67h-.72v1.54a.23.23 0 0 1-.23.24.23.23 0 0 1-.15-.25zm1.22-2a.94.94 0 1 0 0-1.88h-.77v1.88h.77zM177.29 460.7l-1.21-4.08a.41.41 0 0 1 0-.12.22.22 0 0 1 .22-.24.23.23 0 0 1 .22.17l1 3.39 1-3.39a.23.23 0 0 1 .22-.17.21.21 0 0 1 .23.22.6.6 0 0 1 0 .14l-1.21 4.08a.235.235 0 1 1-.47 0zM180.38 460.62v-4.12a.23.23 0 0 1 .22-.24h2.27a.23.23 0 0 1 .22.24.22.22 0 0 1-.22.23h-2.05v1.59h1.59a.235.235 0 0 1 0 .47h-1.59v1.6h2.05a.235.235 0 0 1 0 .47h-2.27a.22.22 0 0 1-.22-.24zM184.54 460.62v-4.12a.24.24 0 0 1 .22-.24h1a1.39 1.39 0 0 1 1.36 1.41 1.42 1.42 0 0 1-.91 1.33l1 1.49a.22.22 0 0 1 0 .13.23.23 0 0 1-.22.24.21.21 0 0 1-.19-.1l-1.16-1.67H185v1.54a.23.23 0 1 1-.46-.01zm1.22-2a.94.94 0 1 0 0-1.88H185v1.88h.77-.01zM134.23 472.45v-6.6a.38.38 0 0 1 .36-.38h1.6a2.23 2.23 0 0 1 2.18 2.26 2.27 2.27 0 0 1-1.45 2.13l1.64 2.38a.35.35 0 0 1 .07.21.37.37 0 0 1-.36.38.33.33 0 0 1-.3-.16l-1.86-2.67H135v2.46a.37.37 0 0 1-.37.38.37.37 0 0 1-.4-.39zm2-3.21a1.5 1.5 0 0 0 0-3H135v3h1.23zM141.63 472.45v-6.6a.37.37 0 0 1 .35-.38h3.64a.37.37 0 0 1 .35.39.36.36 0 0 1-.35.37h-3.28v2.55h2.55a.375.375 0 1 1 0 .75h-2.55v2.56h3.28a.375.375 0 1 1 0 .75H142a.36.36 0 0 1-.37-.39zM149 470.62a.365.365 0 0 1 .73 0 1.42 1.42 0 0 0 1.39 1.45 1.09 1.09 0 0 0 1.18-1 .93.93 0 0 0-.32-.75l-2-1.6a1.86 1.86 0 0 1 1.11-3.26 2.19 2.19 0 0 1 1.59.74c.174.192.295.427.35.68a.39.39 0 0 1-.36.39.43.43 0 0 1-.33-.23 1.38 1.38 0 0 0-1.25-.82 1.08 1.08 0 0 0-1 1.11 1 1 0 0 0 .39.82l2 1.6c.39.337.604.835.58 1.35a1.81 1.81 0 0 1-1.9 1.72 2.17 2.17 0 0 1-2.16-2.2zM158.13 472.45v-6.22h-2a.38.38 0 0 1 0-.76h4.82a.38.38 0 0 1 0 .76h-2v6.22a.41.41 0 0 1-.82 0zM164 472.45a.36.36 0 0 1 .36-.37h1.2v-5.86h-1.2a.37.37 0 0 1-.36-.38.36.36 0 0 1 .36-.37h3.13a.375.375 0 1 1 0 .75h-1.2v5.86h1.2a.375.375 0 1 1 0 .75h-3.13a.37.37 0 0 1-.36-.38zM171.62 472.45v-6.6a.37.37 0 0 1 .35-.38h3.44a.38.38 0 0 1 .36.38.37.37 0 0 1-.36.38h-3.09v2.55h2.35a.375.375 0 1 1 0 .75h-2.35v2.93a.37.37 0 0 1-.36.38.36.36 0 0 1-.34-.39zM180.4 472.45v-3.21l-1.62-3.24a.49.49 0 0 1 0-.18.38.38 0 0 1 .36-.38.33.33 0 0 1 .32.21l1.35 2.67 1.35-2.67a.33.33 0 0 1 .32-.21.38.38 0 0 1 .36.38.49.49 0 0 1 0 .18l-1.62 3.21v3.21a.41.41 0 1 1-.82.03z"/>
        </g>
        <path d="M25 401.26h90v45H25z"/>
        <g fill-rule="nonzero" opacity=".72">
            <path fill="#3EC7F4" d="M111.58 409.33H33.07v4.62h-4.62v24.24h78.51v-4.62h4.62v-24.24z" opacity=".32"/>
            <path fill="#FFF" d="M33.07 414h-4.62l4.62-4.62zM106.96 433.57h4.62l-4.62 4.62zM111.58 409.33h-2.49v2.48h2.49v-2.48zM29.68 438.19v-1.24h-1.26v1.24zM37.7 438.19l.36-.62-.36-.62h-8.02v1.24z"/>
        </g>
        <g fill="#FFF" fill-rule="nonzero" opacity=".9">
            <path d="M37.05 419.47a.23.23 0 1 1 .45 0 .89.89 0 0 0 .87.91.68.68 0 0 0 .74-.62.58.58 0 0 0-.2-.47l-1.24-1a1.16 1.16 0 0 1 .7-2 1.36 1.36 0 0 1 1 .46.92.92 0 0 1 .22.42.24.24 0 0 1-.22.24.27.27 0 0 1-.21-.14.86.86 0 0 0-.78-.51.67.67 0 0 0-.65.69.64.64 0 0 0 .24.51l1.24 1c.245.213.378.526.36.85a1.13 1.13 0 0 1-1.19 1.08 1.36 1.36 0 0 1-1.33-1.42zM41.15 419.49v-3a.23.23 0 0 1 .22-.24.23.23 0 0 1 .22.24v3a.86.86 0 0 0 1.72 0v-3a.23.23 0 0 1 .22-.24.23.23 0 0 1 .22.24v3a1.31 1.31 0 1 1-2.6 0zM45.38 420.62v-4.12a.24.24 0 0 1 .22-.24h1a1.41 1.41 0 1 1 0 2.82h-.77v1.54a.23.23 0 0 1-.23.24.23.23 0 0 1-.22-.24zm1.22-2a.94.94 0 1 0 0-1.88h-.77v1.88h.77zM49.52 420.62v-4.12a.24.24 0 0 1 .22-.24h1a1.41 1.41 0 1 1 0 2.82H50v1.54a.23.23 0 0 1-.23.24.23.23 0 0 1-.25-.24zm1.22-2a.94.94 0 1 0 0-1.88H50v1.88h.76-.02zM53.58 419.52v-1.9a1.31 1.31 0 1 1 2.61 0v1.9a1.31 1.31 0 1 1-2.61 0zm2.16 0v-1.9a.85.85 0 0 0-1.7 0v1.9a.85.85 0 1 0 1.69 0h.01zM57.78 420.62v-4.12a.24.24 0 0 1 .22-.24h1a1.39 1.39 0 0 1 1.36 1.41 1.42 1.42 0 0 1-.91 1.33l1 1.49a.22.22 0 0 1 0 .13.23.23 0 0 1-.22.24.21.21 0 0 1-.19-.1L59 419.08h-.77v1.54a.23.23 0 0 1-.23.24.23.23 0 0 1-.22-.24zm1.22-2a.94.94 0 1 0 0-1.88h-.77v1.88H59zM62.94 420.62v-3.88h-1.28a.24.24 0 0 1 0-.47h3a.24.24 0 0 1 0 .47H63.4v3.88a.23.23 0 1 1-.46 0zM70.23 420.62v-4.12a.24.24 0 0 1 .22-.24h1a1.41 1.41 0 1 1 0 2.82h-.77v1.54a.23.23 0 0 1-.23.24.23.23 0 0 1-.22-.24zm1.22-2a.94.94 0 1 0 0-1.88h-.77v1.88h.77zM74.49 420.78a.23.23 0 0 1-.07-.17v-4.13a.23.23 0 0 1 .07-.16.22.22 0 0 1 .16-.07.23.23 0 0 1 .16.07.23.23 0 0 1 .07.16v3.9h2a.23.23 0 0 1 .22.23.23.23 0 0 1-.07.17.22.22 0 0 1-.16.07h-2.22a.22.22 0 0 1-.16-.07zM78 420.62l1.54-4.21a.21.21 0 0 1 .21-.14.21.21 0 0 1 .21.14l1.54 4.21a.23.23 0 0 1-.44.09l-.39-1h-1.86l-.39 1a.22.22 0 0 1-.21.15.23.23 0 0 1-.21-.24zm2.51-1.42l-.75-2-.75 2h1.5zM83.64 420.62v-3.88h-1.27a.24.24 0 0 1 0-.47h3a.24.24 0 0 1 0 .47H84.1v3.88a.23.23 0 1 1-.46 0zM86.94 420.62v-4.12a.23.23 0 0 1 .22-.24h2.15a.24.24 0 0 1 .22.24.23.23 0 0 1-.22.24h-1.93v1.59h1.47a.235.235 0 0 1 0 .47h-1.47v1.83a.23.23 0 0 1-.22.24.22.22 0 0 1-.22-.25zM90.85 419.52v-1.9a1.31 1.31 0 1 1 2.61 0v1.9a1.31 1.31 0 1 1-2.61 0zm2.16 0v-1.9a.85.85 0 0 0-1.7 0v1.9a.85.85 0 1 0 1.69 0h.01zM95 420.62v-4.12a.24.24 0 0 1 .22-.24h1a1.39 1.39 0 0 1 1.36 1.41 1.42 1.42 0 0 1-.91 1.33l1 1.49a.22.22 0 0 1 0 .13.23.23 0 0 1-.22.24.21.21 0 0 1-.19-.1l-1.16-1.67h-.6v1.54a.23.23 0 0 1-.23.24.23.23 0 0 1-.27-.25zm1.22-2a.94.94 0 1 0 0-1.88h-.72v1.88h.77-.05zM98.94 420.62v-4.13a.23.23 0 0 1 .22-.23.22.22 0 0 1 .21.13l1.07 2.26 1.07-2.26a.21.21 0 0 1 .2-.13.23.23 0 0 1 .22.23v4.13a.23.23 0 0 1-.22.24.23.23 0 0 1-.23-.24v-3.11l-.84 1.78a.23.23 0 0 1-.41 0l-.84-1.78v3.11a.23.23 0 1 1-.45 0zM52.13 430.62a.365.365 0 0 1 .73 0 1.42 1.42 0 0 0 1.39 1.45 1.09 1.09 0 0 0 1.18-1 .93.93 0 0 0-.32-.75l-2-1.6a1.86 1.86 0 0 1 1.11-3.26 2.19 2.19 0 0 1 1.59.74c.174.192.295.427.35.68a.39.39 0 0 1-.36.39.43.43 0 0 1-.33-.23 1.38 1.38 0 0 0-1.25-.82 1.08 1.08 0 0 0-1 1.11 1 1 0 0 0 .39.82l2 1.6c.39.337.604.835.58 1.35a1.81 1.81 0 0 1-1.9 1.72 2.17 2.17 0 0 1-2.16-2.2zM59.82 432.72a.37.37 0 0 1-.11-.27v-6.61a.37.37 0 0 1 .11-.26.35.35 0 0 1 .51 0 .36.36 0 0 1 .11.26v6.24h3.26c.2.005.36.17.36.37a.37.37 0 0 1-.11.27.35.35 0 0 1-.25.11h-3.63a.35.35 0 0 1-.25-.11zM66.2 432.45l2.47-6.75a.34.34 0 0 1 .34-.23.34.34 0 0 1 .34.23l2.47 6.75a.362.362 0 1 1-.71.14l-.62-1.66h-3l-.62 1.66a.36.36 0 0 1-.34.24.36.36 0 0 1-.33-.38zm4-2.27l-1.2-3.27-1.2 3.26h2.41l-.01.01zM74.45 430.66v-3a2.08 2.08 0 1 1 4.16 0 .36.36 0 0 1-.36.38.37.37 0 0 1-.36-.38 1.365 1.365 0 1 0-2.73 0v3a1.365 1.365 0 1 0 2.73 0 .36.36 0 0 1 .72 0 2.08 2.08 0 1 1-4.16 0zM81.92 432.45v-6.61c0-.2.16-.365.36-.37a.37.37 0 0 1 .37.37v3.6l2.35-3.8a.35.35 0 0 1 .31-.17.37.37 0 0 1 .3.57l-1.5 2.44 2.23 3.78a.54.54 0 0 1 0 .21.36.36 0 0 1-.36.36.33.33 0 0 1-.31-.18l-2.05-3.46-1 1.65v1.61a.36.36 0 1 1-.7 0z"/>
        </g>
        <path d="M205 401.26h90v45h-90z"/>
        <g fill-rule="nonzero" opacity=".72">
            <path fill="#3EC7F4" d="M291.58 409.33h-78.51v4.62h-4.63v24.24h78.51v-4.62h4.63v-24.24z" opacity=".32"/>
            <path fill="#FFF" d="M213.07 414h-4.62l4.62-4.62zM286.95 433.57h4.63l-4.63 4.62zM291.58 409.33h-2.49v2.48h2.49v-2.48zM209.68 438.19v-1.24h-1.26v1.24z"/>
            <path fill="#FFF" d="M217.7 438.19l.36-.62-.36-.62h-8.02v1.24z"/>
        </g>
        <g fill="#FFF" fill-rule="nonzero" opacity=".9">
            <path d="M217 419.47a.23.23 0 1 1 .45 0 .89.89 0 0 0 .87.91.68.68 0 0 0 .74-.62.58.58 0 0 0-.2-.47l-1.24-1a1.16 1.16 0 0 1 .7-2 1.36 1.36 0 0 1 1 .46.92.92 0 0 1 .22.42.24.24 0 0 1-.22.24.27.27 0 0 1-.21-.14.86.86 0 0 0-.78-.51.67.67 0 0 0-.65.69.64.64 0 0 0 .24.51l1.24 1c.245.213.378.526.36.85a1.13 1.13 0 0 1-1.19 1.08 1.36 1.36 0 0 1-1.33-1.42zM221.15 419.49v-3a.23.23 0 0 1 .22-.24.23.23 0 0 1 .22.24v3a.86.86 0 0 0 1.72 0v-3a.23.23 0 0 1 .22-.24.23.23 0 0 1 .22.24v3a1.31 1.31 0 1 1-2.6 0zM225.37 420.62v-4.12a.24.24 0 0 1 .22-.24h1a1.41 1.41 0 1 1 0 2.82h-.76v1.54a.23.23 0 1 1-.46 0zm1.22-2a.94.94 0 1 0 0-1.88h-.76v1.88h.76zM229.51 420.62v-4.12a.24.24 0 0 1 .22-.24h1a1.41 1.41 0 1 1 0 2.82H230v1.54a.23.23 0 0 1-.23.24.23.23 0 0 1-.26-.24zm1.22-2a.94.94 0 1 0 0-1.88H230v1.88h.76-.03zM233.57 419.52v-1.9a1.31 1.31 0 1 1 2.61 0v1.9a1.31 1.31 0 1 1-2.61 0zm2.16 0v-1.9a.85.85 0 0 0-1.7 0v1.9a.85.85 0 0 0 1.7 0zM237.77 420.62v-4.12a.24.24 0 0 1 .22-.24h1a1.39 1.39 0 0 1 1.36 1.41 1.42 1.42 0 0 1-.91 1.33l1 1.49a.22.22 0 0 1 0 .13.23.23 0 0 1-.22.24.21.21 0 0 1-.19-.1l-1.16-1.67h-.72v1.54a.23.23 0 0 1-.23.24.23.23 0 0 1-.15-.25zm1.22-2a.94.94 0 1 0 0-1.88h-.77v1.88h.78-.01zM242.93 420.62v-3.88h-1.27a.24.24 0 0 1 0-.47h3a.24.24 0 0 1 0 .47h-1.27v3.88a.23.23 0 1 1-.46 0zM250.22 420.62v-4.12a.24.24 0 0 1 .22-.24h1a1.41 1.41 0 1 1 0 2.82h-.76v1.54a.23.23 0 1 1-.46 0zm1.22-2a.94.94 0 1 0 0-1.88h-.76v1.88h.76zM254.49 420.78a.23.23 0 0 1-.07-.17v-4.13a.23.23 0 0 1 .07-.16.22.22 0 0 1 .16-.07.23.23 0 0 1 .16.07.23.23 0 0 1 .07.16v3.9h2a.23.23 0 0 1 .22.23.23.23 0 0 1-.07.17.22.22 0 0 1-.16.07h-2.26a.22.22 0 0 1-.12-.07zM258 420.62l1.54-4.21a.21.21 0 0 1 .21-.14.21.21 0 0 1 .21.14l1.54 4.21a.23.23 0 0 1-.44.09l-.39-1h-1.87l-.39 1a.22.22 0 0 1-.21.15.23.23 0 0 1-.2-.24zm2.51-1.42l-.75-2-.75 2h1.5zM263.64 420.62v-3.88h-1.27a.24.24 0 0 1 0-.47h3a.24.24 0 0 1 0 .47h-1.27v3.88a.23.23 0 1 1-.46 0zM266.94 420.62v-4.12a.23.23 0 0 1 .22-.24h2.15a.24.24 0 0 1 .22.24.23.23 0 0 1-.22.24h-1.93v1.59h1.47a.235.235 0 0 1 0 .47h-1.47v1.83a.23.23 0 0 1-.22.24.22.22 0 0 1-.22-.25zM270.85 419.52v-1.9a1.31 1.31 0 1 1 2.61 0v1.9a1.31 1.31 0 1 1-2.61 0zm2.16 0v-1.9a.85.85 0 0 0-1.7 0v1.9a.85.85 0 1 0 1.69 0h.01zM275 420.62v-4.12a.24.24 0 0 1 .22-.24h1a1.39 1.39 0 0 1 1.36 1.41 1.42 1.42 0 0 1-.91 1.33l1 1.49a.22.22 0 0 1 0 .13.23.23 0 0 1-.22.24.21.21 0 0 1-.19-.1l-1.16-1.67h-.6v1.54a.23.23 0 0 1-.23.24.23.23 0 0 1-.27-.25zm1.22-2a.94.94 0 1 0 0-1.88h-.72v1.88h.77-.05zM278.94 420.62v-4.13a.23.23 0 0 1 .22-.23.22.22 0 0 1 .21.13l1.07 2.26 1.07-2.26a.21.21 0 0 1 .2-.13.23.23 0 0 1 .22.23v4.13a.23.23 0 0 1-.22.24.23.23 0 0 1-.23-.24v-3.11l-.84 1.78a.23.23 0 0 1-.41 0l-.84-1.78v3.11a.23.23 0 1 1-.45 0zM222.66 432.45v-6.22h-2a.38.38 0 0 1 0-.76h4.82a.38.38 0 0 1 0 .76h-2v6.22a.41.41 0 1 1-.82 0zM228.43 432.45v-6.6a.37.37 0 0 1 .35-.38h3.64a.37.37 0 0 1 .35.39.36.36 0 0 1-.35.37h-3.28v2.55h2.55a.375.375 0 1 1 0 .75h-2.55v2.56h3.28a.375.375 0 1 1 0 .75h-3.64a.36.36 0 0 1-.35-.39zM236.11 432.72a.37.37 0 0 1-.11-.27v-6.61a.37.37 0 0 1 .11-.26.35.35 0 0 1 .51 0 .36.36 0 0 1 .11.26v6.24H240c.2.005.36.17.36.37a.37.37 0 0 1-.11.27.35.35 0 0 1-.25.11h-3.62a.35.35 0 0 1-.27-.11zM243.27 432.45v-6.6a.37.37 0 0 1 .35-.38h3.64a.37.37 0 0 1 .35.39.36.36 0 0 1-.35.37H244v2.55h2.55a.375.375 0 1 1 0 .75H244v2.56h3.28a.375.375 0 1 1 0 .75h-3.64a.36.36 0 0 1-.37-.39zM250.64 430.66v-3a2.13 2.13 0 0 1 2.08-2.17 2 2 0 0 1 2.08 2.07.36.36 0 0 1-.36.38.37.37 0 0 1-.36-.38 1.32 1.32 0 0 0-1.36-1.31 1.4 1.4 0 0 0-1.36 1.41v3a1.365 1.365 0 1 0 2.73 0v-.74h-1.16a.37.37 0 0 1-.36-.37.37.37 0 0 1 .36-.38h1.52a.37.37 0 0 1 .36.38v1.11a2.085 2.085 0 0 1-4.17 0zM258.14 432.45v-6.6a.38.38 0 0 1 .36-.38h1.6a2.23 2.23 0 0 1 2.18 2.26 2.27 2.27 0 0 1-1.45 2.13l1.64 2.38a.35.35 0 0 1 .07.21.37.37 0 0 1-.36.38.33.33 0 0 1-.3-.16L260 430h-1.15v2.46a.37.37 0 0 1-.37.38.37.37 0 0 1-.34-.39zm2-3.21a1.5 1.5 0 0 0 0-3h-1.23v3h1.23zM264.75 432.45l2.47-6.75a.34.34 0 0 1 .34-.23.34.34 0 0 1 .34.23l2.47 6.75a.362.362 0 0 1-.71.14l-.66-1.66h-3l-.62 1.66a.36.36 0 0 1-.34.24.36.36 0 0 1-.29-.38zm4-2.27l-1.2-3.26-1.2 3.26h2.41-.01zM272.58 432.45v-6.61c0-.2.16-.365.36-.37a.35.35 0 0 1 .33.21l1.73 3.62 1.71-3.62a.35.35 0 0 1 .33-.21c.2.005.36.17.36.37v6.61a.36.36 0 0 1-.36.38.37.37 0 0 1-.37-.38v-5l-1.34 2.85a.36.36 0 0 1-.66 0l-1.34-2.85v5a.375.375 0 1 1-.75 0z"/>
        </g>
        <g fill="#FFF" fill-rule="nonzero" opacity=".6">
            <path d="M218.86 145a124.24 124.24 0 0 0-117.69 0l-.24-.45a124.76 124.76 0 0 1 118.18 0l-.25.45zM160 378.79A123.21 123.21 0 0 1 102.9 365l.24-.46a124.26 124.26 0 0 0 113.76 0l.24.46A123.21 123.21 0 0 1 160 378.79zM269.49 313.95a.77.77 0 0 1-.68-1.14 123.74 123.74 0 0 0 14.76-58.6 122.19 122.19 0 0 0-13.73-56.65.772.772 0 0 1 1.37-.71 123.72 123.72 0 0 1 13.9 57.35 125.3 125.3 0 0 1-14.94 59.34.77.77 0 0 1-.68.41zM50.54 313.95a.77.77 0 0 1-.68-.41 125.3 125.3 0 0 1-14.94-59.34 123.72 123.72 0 0 1 13.9-57.35.772.772 0 1 1 1.37.71 122.19 122.19 0 0 0-13.73 56.65 123.75 123.75 0 0 0 14.76 58.6.77.77 0 0 1-.68 1.14z"/>
            <path d="M219 145a.26.26 0 0 1-.12 0 124.24 124.24 0 0 0-117.69 0 .26.26 0 0 1-.24-.45 124.76 124.76 0 0 1 118.18 0 .26.26 0 0 1-.13.45zM160 378.79A123.21 123.21 0 0 1 102.9 365a.26.26 0 0 1 .24-.46 124.26 124.26 0 0 0 113.76 0 .26.26 0 1 1 .24.46A123.21 123.21 0 0 1 160 378.79zM269.81 314.22l-1.36-.73.37-.68a123.74 123.74 0 0 0 14.76-58.6 122.19 122.19 0 0 0-13.73-56.65l-.35-.69 1.37-.71.36.69a123.72 123.72 0 0 1 13.9 57.35 125.3 125.3 0 0 1-14.94 59.34l-.38.68zM50.22 314.22l-.37-.68a125.3 125.3 0 0 1-14.94-59.34 123.72 123.72 0 0 1 13.9-57.35l.35-.69 1.37.71-.35.69a122.19 122.19 0 0 0-13.73 56.65 123.75 123.75 0 0 0 14.76 58.6l.37.68-1.36.73z"/>
            <path d="M160 373.72c-61.012-.074-112.05-46.348-118.084-107.061-6.033-60.714 34.9-116.128 94.705-128.207 59.804-12.08 119.037 23.103 137.042 81.398 18.004 58.295-11.073 120.751-67.273 144.5a118.43 118.43 0 0 1-46.39 9.37zm0-238.11c-60.876.036-111.83 46.173-117.892 106.746-6.06 60.573 34.741 115.892 94.403 127.99 59.662 12.097 118.789-22.96 136.8-81.11 18.012-58.15-10.947-120.491-67.001-144.236a118.19 118.19 0 0 0-46.31-9.39z"/>
        </g>
        <path fill="#FFF" fill-rule="nonzero" d="M160.02 123.76l-2.14-3.69h4.27zM160.02 384.24l2.13 3.69h-4.27z"/>
        <path fill="#FFF" fill-rule="nonzero" d="M160.02 123.76l-2.1-3.69h4.19zM160.02 384.24l2.09 3.69h-4.19zM288.24 254l3.63-2.13v4.26zM31.76 254l-3.63 2.13v-4.26z"/>
        <path d="M25 17.5h90v45H25z"/>
        <g fill="#FFF" fill-rule="nonzero" opacity=".72">
            <path d="M111.326 25.57H33.051v4.613h-4.606V54.35h78.275v-4.612h4.606z" opacity=".16"/>
            <path d="M33.051 30.183h-4.606l4.606-4.613zM106.72 49.738h4.613l-4.613 4.612zM108.853 25.57h2.48v2.48h-2.48zM29.672 54.35v-1.24H28.42v1.24zM37.67 54.35l.36-.62-.36-.62h-7.998v1.24z"/>
        </g>
        <g fill="#FFF" fill-rule="nonzero" opacity=".9">
            <path d="M39.12 35.71a.23.23 0 1 1 .45 0 .89.89 0 0 0 .87.91.68.68 0 0 0 .74-.62.58.58 0 0 0-.2-.47l-1.24-1a1.16 1.16 0 0 1 .7-2 1.36 1.36 0 0 1 1 .46.92.92 0 0 1 .22.42.24.24 0 0 1-.22.24.27.27 0 0 1-.21-.14.86.86 0 0 0-.79-.51.67.67 0 0 0-.65.69.64.64 0 0 0 .24.51l1.24 1c.245.213.378.526.36.85a1.13 1.13 0 0 1-1.19 1.08 1.36 1.36 0 0 1-1.32-1.42zM43.22 35.73v-3a.23.23 0 0 1 .22-.24.23.23 0 0 1 .22.24v3a.86.86 0 0 0 1.72 0v-3a.23.23 0 0 1 .22-.24.23.23 0 0 1 .22.24v3a1.31 1.31 0 1 1-2.6 0zM47.45 36.86v-4.13a.24.24 0 0 1 .22-.24h1a1.41 1.41 0 1 1 0 2.82h-.77v1.54a.23.23 0 0 1-.23.24.23.23 0 0 1-.22-.23zm1.22-2a.94.94 0 1 0 0-1.88h-.77v1.88h.77zM51.59 36.86v-4.13a.24.24 0 0 1 .22-.24h1a1.41 1.41 0 1 1 0 2.82H52v1.54a.23.23 0 0 1-.23.24.23.23 0 0 1-.18-.23zm1.22-2a.94.94 0 1 0 0-1.88H52v1.88h.81zM55.65 35.75v-1.9a1.31 1.31 0 1 1 2.61 0v1.9a1.31 1.31 0 1 1-2.61 0zm2.16 0v-1.9a.85.85 0 0 0-1.7 0v1.9a.85.85 0 0 0 1.7 0zM59.85 36.86v-4.13a.24.24 0 0 1 .22-.24h1a1.39 1.39 0 0 1 1.36 1.41 1.42 1.42 0 0 1-.91 1.33l1 1.49a.22.22 0 0 1 0 .13.23.23 0 0 1-.22.24.21.21 0 0 1-.19-.1L61 35.32h-.7v1.54a.23.23 0 0 1-.23.24.23.23 0 0 1-.22-.24zm1.22-2a.94.94 0 1 0 0-1.88h-.77v1.88h.77zM65 36.86V33h-1.27a.24.24 0 0 1 0-.47h3a.24.24 0 0 1 0 .47h-1.26v3.88a.235.235 0 1 1-.47-.02zM72.25 35.71a.23.23 0 1 1 .45 0 .89.89 0 0 0 .87.91.68.68 0 0 0 .75-.62.58.58 0 0 0-.2-.47l-1.24-1a1.16 1.16 0 0 1 .7-2 1.36 1.36 0 0 1 1 .46.92.92 0 0 1 .22.42.24.24 0 0 1-.22.24.27.27 0 0 1-.21-.14.86.86 0 0 0-.79-.51.67.67 0 0 0-.65.69.64.64 0 0 0 .24.51l1.24 1c.245.213.378.526.36.85a1.13 1.13 0 0 1-1.19 1.08 1.36 1.36 0 0 1-1.33-1.42zM76.4 36.86v-4.13a.23.23 0 0 1 .22-.24h2.27a.23.23 0 0 1 .22.24.22.22 0 0 1-.22.23h-2.05v1.59h1.59a.235.235 0 0 1 0 .47h-1.59v1.6h2.05a.235.235 0 0 1 0 .47h-2.27a.22.22 0 0 1-.22-.23zM80.54 35.71a.23.23 0 1 1 .45 0 .89.89 0 0 0 .87.91.68.68 0 0 0 .74-.62.58.58 0 0 0-.2-.47l-1.24-1a1.16 1.16 0 0 1 .7-2 1.36 1.36 0 0 1 1 .46.92.92 0 0 1 .22.42.24.24 0 0 1-.22.24.27.27 0 0 1-.21-.14.86.86 0 0 0-.79-.51.67.67 0 0 0-.65.69.64.64 0 0 0 .24.51l1.24 1c.213.21.325.501.31.8a1.13 1.13 0 0 1-1.19 1.08 1.36 1.36 0 0 1-1.27-1.37zM84.68 35.71a.23.23 0 1 1 .45 0 .89.89 0 0 0 .87.91.68.68 0 0 0 .74-.62.58.58 0 0 0-.2-.47l-1.24-1a1.16 1.16 0 0 1 .7-2 1.36 1.36 0 0 1 1 .47.92.92 0 0 1 .22.42.24.24 0 0 1-.22.24.27.27 0 0 1-.21-.14A.86.86 0 0 0 86 33a.67.67 0 0 0-.65.69.64.64 0 0 0 .24.51l1.24 1c.245.213.378.526.36.85A1.13 1.13 0 0 1 86 37.09a1.36 1.36 0 0 1-1.32-1.38zM88.89 36.86a.22.22 0 0 1 .22-.23h.75V33h-.75a.23.23 0 0 1-.22-.24.22.22 0 0 1 .22-.23h2a.235.235 0 0 1 0 .47h-.8v3.66h.75a.235.235 0 0 1 0 .47h-2a.23.23 0 0 1-.17-.27zM92.92 35.75v-1.9a1.31 1.31 0 1 1 2.61 0v1.9a1.31 1.31 0 1 1-2.61 0zm2.16 0v-1.9a.85.85 0 0 0-1.7 0v1.9a.85.85 0 0 0 1.7 0zM97 36.86v-4.13a.23.23 0 0 1 .22-.23.2.2 0 0 1 .19.12L99.28 36v-3.27a.23.23 0 0 1 .22-.23.23.23 0 0 1 .22.23v4.13a.23.23 0 0 1-.22.24.19.19 0 0 1-.19-.1l-1.85-3.36v3.24a.23.23 0 1 1-.46-.02zM39.57 48.69v-6.61c0-.2.16-.365.36-.37a.34.34 0 0 1 .33.21L42 45.54l1.71-3.62a.34.34 0 0 1 .29-.21c.2.005.36.17.36.37v6.61a.36.36 0 0 1-.36.38.37.37 0 0 1-.37-.38v-5l-1.34 2.85a.36.36 0 0 1-.66 0l-1.34-2.85v5a.36.36 0 1 1-.72 0zM47.37 48.69v-6.6a.37.37 0 0 1 .35-.38h3.64a.37.37 0 0 1 .35.39.36.36 0 0 1-.35.37h-3.29V45h2.55a.375.375 0 1 1 0 .75h-2.55v2.56h3.28a.375.375 0 1 1 0 .75h-3.63a.36.36 0 0 1-.35-.37zM54.41 48.69v-6.61c0-.2.16-.365.36-.37a.34.34 0 0 1 .33.21l1.71 3.62 1.71-3.62a.34.34 0 0 1 .33-.21c.2.005.36.17.36.37v6.61a.36.36 0 0 1-.36.38.37.37 0 0 1-.37-.38v-5l-1.34 2.85a.36.36 0 0 1-.66 0l-1.34-2.85v5a.365.365 0 0 1-.73 0zM62.14 46.93v-3a2.09 2.09 0 1 1 4.18 0v3a2.09 2.09 0 1 1-4.18 0zm3.45 0v-3a1.365 1.365 0 1 0-2.73 0v3a1.37 1.37 0 0 0 2.74 0h-.01zM69.65 48.69v-6.6a.38.38 0 0 1 .35-.38h1.6A2.23 2.23 0 0 1 73.79 44a2.27 2.27 0 0 1-1.45 2.13L74 48.48a.35.35 0 0 1 .07.21.37.37 0 0 1-.36.38.33.33 0 0 1-.3-.16l-1.86-2.68h-1.17v2.46a.37.37 0 0 1-.37.38.37.37 0 0 1-.36-.38zm2-3.21a1.5 1.5 0 0 0 0-3h-1.27v3h1.27zM78.72 48.69v-3.2l-1.62-3.22a.49.49 0 0 1 0-.18.38.38 0 0 1 .36-.38.33.33 0 0 1 .32.21l1.35 2.67 1.35-2.67a.33.33 0 0 1 .32-.21.38.38 0 0 1 .36.38.49.49 0 0 1 0 .18l-1.62 3.22v3.2a.41.41 0 0 1-.82 0zM87.54 45.69a.21.21 0 0 1-.06-.16v-3.85c0-.056.02-.11.06-.15a.21.21 0 0 1 .15-.06.22.22 0 0 1 .21.21v3.64h1.9a.21.21 0 0 1 .14.06c.04.04.06.094.06.15a.21.21 0 0 1-.06.16.21.21 0 0 1-.14.06h-2.11a.21.21 0 0 1-.15-.06zM91.73 45.53v-3.84a.22.22 0 0 1 .21-.22h.93a1.3 1.3 0 0 1 1.27 1.32A1.32 1.32 0 0 1 93.3 44l1 1.39a.21.21 0 0 1 0 .12.22.22 0 0 1-.21.22.19.19 0 0 1-.17-.09l-1.09-1.54h-.68v1.43a.22.22 0 0 1-.21.22.22.22 0 0 1-.21-.22zm1.14-1.87a.88.88 0 0 0 0-1.75h-.72v1.75h.72zM96 44.48v-2.79a.21.21 0 0 1 .21-.22.22.22 0 0 1 .21.22v2.79a.8.8 0 1 0 1.6 0v-2.79a.21.21 0 0 1 .21-.22.22.22 0 0 1 .21.22v2.79a1.22 1.22 0 1 1-2.44 0z"/>
        </g>
        <path d="M115 17.5h90v45h-90z"/>
        <g fill="#FFF" fill-rule="nonzero" opacity=".72">
            <path d="M201.326 25.57h-78.275v4.613h-4.606V54.35h78.275v-4.612h4.606z" opacity=".16"/>
            <path d="M123.051 30.183h-4.606l4.606-4.613zM196.72 49.738h4.613l-4.613 4.612zM198.853 25.57h2.48v2.48h-2.48zM119.672 54.35v-1.24h-1.252v1.24zM127.67 54.35l.36-.62-.36-.62h-7.998v1.24z"/>
        </g>
        <g fill="#FFF" fill-rule="nonzero" opacity=".9">
            <path d="M129.12 35.71a.23.23 0 1 1 .45 0 .89.89 0 0 0 .87.91.68.68 0 0 0 .74-.62.58.58 0 0 0-.2-.47l-1.24-1a1.16 1.16 0 0 1 .7-2 1.36 1.36 0 0 1 1 .46.92.92 0 0 1 .22.42.24.24 0 0 1-.22.24.27.27 0 0 1-.21-.14.86.86 0 0 0-.78-.51.67.67 0 0 0-.65.69.64.64 0 0 0 .24.51l1.24 1c.245.213.378.526.36.85a1.13 1.13 0 0 1-1.19 1.08 1.36 1.36 0 0 1-1.33-1.42zM133.22 35.73v-3a.23.23 0 0 1 .22-.24.23.23 0 0 1 .22.24v3a.86.86 0 1 0 1.72 0v-3a.23.23 0 0 1 .22-.24.23.23 0 0 1 .22.24v3a1.31 1.31 0 1 1-2.6 0zM137.45 36.86v-4.13a.24.24 0 0 1 .22-.24h1a1.41 1.41 0 1 1 0 2.82h-.77v1.54a.23.23 0 0 1-.23.24.23.23 0 0 1-.22-.23zm1.22-2a.94.94 0 1 0 0-1.88h-.77v1.88h.77zM141.59 36.86v-4.13a.24.24 0 0 1 .22-.24h1a1.41 1.41 0 1 1 0 2.82H142v1.54a.23.23 0 0 1-.23.24.23.23 0 0 1-.18-.23zm1.22-2a.94.94 0 1 0 0-1.88H142v1.88h.81zM145.65 35.75v-1.9a1.31 1.31 0 1 1 2.61 0v1.9a1.31 1.31 0 1 1-2.61 0zm2.16 0v-1.9a.85.85 0 0 0-1.7 0v1.9a.85.85 0 1 0 1.69 0h.01zM149.84 36.86v-4.13a.24.24 0 0 1 .22-.24h1a1.39 1.39 0 0 1 1.36 1.41 1.42 1.42 0 0 1-.91 1.33l1 1.49a.22.22 0 0 1 0 .13.23.23 0 0 1-.22.24.21.21 0 0 1-.19-.1l-1.1-1.67h-.7v1.54a.23.23 0 1 1-.46 0zm1.22-2a.94.94 0 1 0 0-1.88h-.76v1.88h.77-.01zM155 36.86V33h-1.27a.24.24 0 0 1 0-.47h3a.24.24 0 0 1 0 .47h-1.27v3.88a.23.23 0 1 1-.46-.02zM162.25 35.71a.23.23 0 1 1 .45 0 .89.89 0 0 0 .87.91.68.68 0 0 0 .74-.62.58.58 0 0 0-.2-.47l-1.24-1a1.16 1.16 0 0 1 .7-2 1.36 1.36 0 0 1 1 .46.92.92 0 0 1 .22.42.24.24 0 0 1-.22.24.27.27 0 0 1-.21-.14.86.86 0 0 0-.78-.51.67.67 0 0 0-.65.69.64.64 0 0 0 .24.51l1.24 1c.245.213.378.526.36.85a1.13 1.13 0 0 1-1.19 1.08 1.36 1.36 0 0 1-1.33-1.42zM166.4 36.86v-4.13a.23.23 0 0 1 .22-.24h2.27a.23.23 0 0 1 .22.24.22.22 0 0 1-.22.23h-2.05v1.59h1.59a.235.235 0 0 1 0 .47h-1.59v1.6h2.05a.235.235 0 0 1 0 .47h-2.27a.22.22 0 0 1-.22-.23zM170.53 35.71a.23.23 0 1 1 .45 0 .89.89 0 0 0 .87.91.68.68 0 0 0 .75-.62.58.58 0 0 0-.2-.47l-1.24-1a1.16 1.16 0 0 1 .7-2 1.36 1.36 0 0 1 1 .46.92.92 0 0 1 .22.42.24.24 0 0 1-.22.24.27.27 0 0 1-.21-.14.86.86 0 0 0-.78-.51.67.67 0 0 0-.65.69.64.64 0 0 0 .24.51l1.24 1c.209.212.318.503.3.8a1.13 1.13 0 0 1-1.19 1.08 1.36 1.36 0 0 1-1.28-1.37zM174.68 35.71a.23.23 0 1 1 .45 0 .89.89 0 0 0 .87.91.68.68 0 0 0 .74-.62.58.58 0 0 0-.2-.47l-1.24-1a1.16 1.16 0 0 1 .7-2 1.36 1.36 0 0 1 1 .46.92.92 0 0 1 .22.42.24.24 0 0 1-.22.24.27.27 0 0 1-.21-.14.86.86 0 0 0-.79-.51.67.67 0 0 0-.65.69.64.64 0 0 0 .24.51l1.24 1c.245.213.378.526.36.85a1.13 1.13 0 0 1-1.19 1.04 1.36 1.36 0 0 1-1.32-1.38zM178.89 36.86a.22.22 0 0 1 .22-.23h.75V33h-.75a.23.23 0 0 1-.22-.24.22.22 0 0 1 .22-.23h2a.235.235 0 0 1 0 .47h-.75v3.66h.75a.235.235 0 0 1 0 .47h-2a.23.23 0 0 1-.22-.27zM182.92 35.75v-1.9a1.31 1.31 0 1 1 2.61 0v1.9a1.31 1.31 0 1 1-2.61 0zm2.16 0v-1.9a.85.85 0 1 0-1.7 0v1.9a.85.85 0 0 0 1.7 0zM187 36.86v-4.13a.23.23 0 0 1 .22-.23.2.2 0 0 1 .19.12l1.87 3.38v-3.27a.23.23 0 0 1 .22-.23.23.23 0 0 1 .22.23v4.13a.23.23 0 0 1-.22.24.19.19 0 0 1-.19-.12l-1.85-3.36v3.24a.23.23 0 0 1-.46 0zM146.15 48.69v-6.6a.37.37 0 0 1 .35-.38h3.44a.38.38 0 0 1 .36.38.37.37 0 0 1-.36.38h-3.09V45h2.35a.375.375 0 1 1 0 .75h-2.35v2.93a.37.37 0 0 1-.36.38.36.36 0 0 1-.34-.37zM153.37 48.69a.36.36 0 0 1 .36-.37h1.2v-5.86h-1.2a.37.37 0 0 1-.36-.38.36.36 0 0 1 .36-.37h3.13a.375.375 0 1 1 0 .75h-1.2v5.86h1.2a.375.375 0 1 1 0 .75h-3.13a.37.37 0 0 1-.36-.38zM161 49a.37.37 0 0 1-.11-.27v-6.65a.36.36 0 0 1 .11-.26.35.35 0 0 1 .51 0 .36.36 0 0 1 .11.26v6.24h3.25c.2.005.36.17.36.37a.37.37 0 0 1-.11.27.36.36 0 0 1-.25.11h-3.62A.36.36 0 0 1 161 49zM168.12 48.69v-6.6a.37.37 0 0 1 .35-.38h3.64a.37.37 0 0 1 .35.39.36.36 0 0 1-.35.37h-3.28V45h2.55a.375.375 0 1 1 0 .75h-2.55v2.56h3.28a.375.375 0 1 1 0 .75h-3.64a.36.36 0 0 1-.35-.37z"/>
        </g>
        <path d="M205 17.5h90v45h-90z"/>
        <g fill="#FFF" fill-rule="nonzero" opacity=".72">
            <path d="M291.326 25.57h-78.275v4.613h-4.606V54.35h78.275v-4.612h4.606z" opacity=".16"/>
            <path d="M213.051 30.183h-4.606l4.606-4.613zM286.72 49.738h4.613l-4.613 4.612zM288.853 25.57h2.48v2.48h-2.48zM209.672 54.35v-1.24h-1.252v1.24zM217.67 54.35l.36-.62-.36-.62h-7.998v1.24z"/>
        </g>
        <g fill="#FFF" fill-rule="nonzero" opacity=".9">
            <path d="M219.12 35.71a.23.23 0 1 1 .45 0 .89.89 0 0 0 .87.91.68.68 0 0 0 .74-.62.58.58 0 0 0-.2-.47l-1.24-1a1.16 1.16 0 0 1 .7-2 1.36 1.36 0 0 1 1 .46.93.93 0 0 1 .22.42.24.24 0 0 1-.22.24.27.27 0 0 1-.21-.14.86.86 0 0 0-.78-.51.67.67 0 0 0-.65.69.64.64 0 0 0 .24.51l1.24 1c.245.213.378.526.36.85a1.13 1.13 0 0 1-1.19 1.07 1.36 1.36 0 0 1-1.33-1.41zM223.22 35.73v-3a.23.23 0 0 1 .22-.24.23.23 0 0 1 .22.24v3a.86.86 0 0 0 1.72 0v-3a.23.23 0 0 1 .22-.24.23.23 0 0 1 .22.24v3a1.31 1.31 0 1 1-2.6 0zM227.44 36.86v-4.13a.24.24 0 0 1 .22-.24h1a1.41 1.41 0 1 1 0 2.82h-.76v1.54a.23.23 0 1 1-.46.01zm1.22-2a.94.94 0 1 0 0-1.88h-.76v1.88h.76zM231.58 36.86v-4.13a.24.24 0 0 1 .22-.24h1a1.41 1.41 0 1 1 0 2.82h-.8v1.54a.23.23 0 0 1-.23.24.23.23 0 0 1-.19-.23zm1.22-2a.94.94 0 1 0 0-1.88h-.8v1.88h.8zM235.65 35.76v-1.9a1.31 1.31 0 1 1 2.61 0v1.9a1.31 1.31 0 1 1-2.61 0zm2.16 0v-1.9a.85.85 0 0 0-1.7 0v1.9a.85.85 0 1 0 1.69 0h.01zM239.84 36.86v-4.13a.24.24 0 0 1 .22-.24h1a1.39 1.39 0 0 1 1.36 1.41 1.42 1.42 0 0 1-.91 1.33l1 1.49a.22.22 0 0 1 0 .13.23.23 0 0 1-.22.24.21.21 0 0 1-.19-.1l-1.1-1.67h-.7v1.54a.23.23 0 1 1-.46 0zm1.22-2a.94.94 0 1 0 0-1.88h-.76v1.88h.77-.01zM245 36.86V33h-1.27a.24.24 0 0 1 0-.47h3a.24.24 0 0 1 0 .47h-1.27v3.88a.23.23 0 1 1-.46-.02zM252.25 35.71a.23.23 0 1 1 .45 0 .89.89 0 0 0 .87.91.68.68 0 0 0 .74-.62.58.58 0 0 0-.2-.47l-1.24-1a1.16 1.16 0 0 1 .7-2 1.36 1.36 0 0 1 1 .46.93.93 0 0 1 .22.42.24.24 0 0 1-.22.24.27.27 0 0 1-.21-.14.86.86 0 0 0-.78-.51.67.67 0 0 0-.65.69.64.64 0 0 0 .24.51l1.24 1c.245.213.378.526.36.85a1.13 1.13 0 0 1-1.19 1.07 1.36 1.36 0 0 1-1.33-1.41zM256.4 36.86v-4.13a.23.23 0 0 1 .22-.24h2.27a.23.23 0 0 1 .22.24.22.22 0 0 1-.22.23h-2.05v1.59h1.59a.235.235 0 0 1 0 .47h-1.59v1.6h2.05a.235.235 0 0 1 0 .47h-2.27a.22.22 0 0 1-.22-.23zM260.53 35.71a.23.23 0 1 1 .45 0 .89.89 0 0 0 .87.91.68.68 0 0 0 .75-.62.58.58 0 0 0-.2-.47l-1.24-1a1.16 1.16 0 0 1 .7-2 1.36 1.36 0 0 1 1 .46.93.93 0 0 1 .22.42.24.24 0 0 1-.22.24.27.27 0 0 1-.21-.14.86.86 0 0 0-.78-.51.67.67 0 0 0-.65.69.64.64 0 0 0 .24.51l1.24 1c.209.212.318.503.3.8a1.13 1.13 0 0 1-1.19 1.07 1.36 1.36 0 0 1-1.28-1.36zM264.67 35.71a.23.23 0 1 1 .45 0 .89.89 0 0 0 .87.91.68.68 0 0 0 .74-.62.58.58 0 0 0-.2-.47l-1.24-1a1.16 1.16 0 0 1 .7-2 1.36 1.36 0 0 1 1 .46.93.93 0 0 1 .22.42.24.24 0 0 1-.22.24.27.27 0 0 1-.21-.14.86.86 0 0 0-.78-.51.67.67 0 0 0-.65.69.64.64 0 0 0 .24.51l1.24 1c.245.213.378.526.36.85a1.13 1.13 0 0 1-1.19 1.04 1.36 1.36 0 0 1-1.33-1.38zM268.88 36.86a.22.22 0 0 1 .22-.23h.75V33h-.75a.23.23 0 0 1-.22-.24.22.22 0 0 1 .22-.23h2a.235.235 0 0 1 0 .47h-.75v3.66h.75a.235.235 0 0 1 0 .47h-2a.23.23 0 0 1-.22-.27zM272.92 35.76v-1.9a1.31 1.31 0 1 1 2.61 0v1.9a1.31 1.31 0 1 1-2.61 0zm2.16 0v-1.9a.85.85 0 0 0-1.7 0v1.9a.85.85 0 1 0 1.7 0zM277 36.86v-4.13a.23.23 0 0 1 .22-.23.2.2 0 0 1 .19.12l1.86 3.38v-3.27a.23.23 0 0 1 .22-.23.23.23 0 0 1 .22.23v4.13a.23.23 0 0 1-.22.24.19.19 0 0 1-.19-.1l-1.85-3.36v3.24a.225.225 0 1 1-.45-.02zM232.16 48.69v-6.6a.38.38 0 0 1 .36-.38h1.6A2.23 2.23 0 0 1 236.3 44a2.27 2.27 0 0 1-1.45 2.13l1.64 2.38a.35.35 0 0 1 .07.21.37.37 0 0 1-.36.38.33.33 0 0 1-.3-.16l-1.9-2.71h-1.15v2.46a.37.37 0 0 1-.37.38.37.37 0 0 1-.32-.38zm2-3.21a1.5 1.5 0 0 0 0-3h-1.23v3h1.23zM239.56 48.69v-6.6a.37.37 0 0 1 .35-.38h3.64a.37.37 0 0 1 .35.39.36.36 0 0 1-.35.37h-3.28V45h2.55a.375.375 0 1 1 0 .75h-2.55v2.56h3.28a.375.375 0 1 1 0 .75h-3.64a.36.36 0 0 1-.35-.37zM247 48.69v-6.6a.36.36 0 0 1 .36-.38h1.72a2.13 2.13 0 0 1 2.08 2.17v3a2.14 2.14 0 0 1-2.08 2.17h-1.68a.37.37 0 0 1-.4-.36zm2.08-.37a1.42 1.42 0 0 0 1.36-1.42v-3c0-.761-.6-1.388-1.36-1.42h-1.36v5.86h1.36v-.02zM254.51 48.69a.36.36 0 0 1 .36-.37h1.2v-5.86h-1.2a.37.37 0 0 1-.36-.38.36.36 0 0 1 .36-.37H258a.375.375 0 1 1 0 .75h-1.2v5.86h1.2a.375.375 0 1 1 0 .75h-3.13a.37.37 0 0 1-.36-.38zM261.82 46.86a.365.365 0 0 1 .73 0 1.42 1.42 0 0 0 1.39 1.45 1.09 1.09 0 0 0 1.18-1 .93.93 0 0 0-.32-.75l-2-1.6a1.86 1.86 0 0 1 1.11-3.26 2.18 2.18 0 0 1 1.59.74c.174.192.295.427.35.68a.39.39 0 0 1-.36.39.43.43 0 0 1-.33-.23 1.38 1.38 0 0 0-1.25-.82 1.08 1.08 0 0 0-1 1.11 1 1 0 0 0 .39.82l2 1.6c.39.337.604.835.58 1.35a1.81 1.81 0 0 1-1.9 1.72 2.17 2.17 0 0 1-2.16-2.2z"/>
        </g>
        <path d="M115 62.37h90v45h-90z"/>
        <g fill="#FFF" fill-rule="nonzero" opacity=".72">
            <path d="M201.326 70.44h-78.275v4.613h-4.606V99.22h78.275v-4.612h4.606z" opacity=".16"/>
            <path d="M123.051 75.053h-4.606l4.606-4.613zM196.72 94.608h4.613l-4.613 4.612zM198.853 70.44h2.48v2.48h-2.48zM119.672 99.22v-1.24h-1.252v1.24zM127.67 99.22l.36-.62-.36-.62h-7.998v1.24z"/>
        </g>
        <g fill="#FFF" fill-rule="nonzero" opacity=".9">
            <path d="M129.12 80.58a.23.23 0 1 1 .45 0 .89.89 0 0 0 .87.91.68.68 0 0 0 .74-.62.58.58 0 0 0-.2-.47l-1.24-1a1.16 1.16 0 0 1 .7-2 1.36 1.36 0 0 1 1 .46.93.93 0 0 1 .22.42.24.24 0 0 1-.22.24.27.27 0 0 1-.21-.14.86.86 0 0 0-.78-.51.67.67 0 0 0-.65.69.64.64 0 0 0 .2.44l1.24 1c.245.213.378.526.36.85a1.13 1.13 0 0 1-1.16 1.15 1.36 1.36 0 0 1-1.32-1.42zM133.22 80.6v-3a.23.23 0 0 1 .22-.24.23.23 0 0 1 .22.24v3a.86.86 0 1 0 1.72 0v-3a.23.23 0 0 1 .22-.24.23.23 0 0 1 .22.24v3a1.31 1.31 0 1 1-2.6 0zM137.45 81.72V77.6a.24.24 0 0 1 .22-.24h1a1.41 1.41 0 1 1 0 2.82h-.77v1.54a.23.23 0 0 1-.23.24.23.23 0 0 1-.22-.24zm1.22-2a.94.94 0 1 0 0-1.88h-.77v1.88h.77zM141.59 81.72V77.6a.24.24 0 0 1 .22-.24h1a1.41 1.41 0 1 1 0 2.82H142v1.54a.23.23 0 0 1-.23.24.23.23 0 0 1-.18-.24zm1.22-2a.94.94 0 1 0 0-1.88H142v1.88h.81zM145.65 80.62v-1.9a1.31 1.31 0 1 1 2.61 0v1.9a1.31 1.31 0 1 1-2.61 0zm2.16 0v-1.9a.85.85 0 0 0-1.7 0v1.9a.85.85 0 1 0 1.69 0h.01zM149.84 81.72V77.6a.24.24 0 0 1 .22-.24h1a1.39 1.39 0 0 1 1.36 1.41 1.42 1.42 0 0 1-.91 1.33l1 1.49a.22.22 0 0 1 0 .13.23.23 0 0 1-.22.24.21.21 0 0 1-.19-.1l-1.1-1.67h-.7v1.54a.23.23 0 1 1-.46-.01zm1.22-2a.94.94 0 1 0 0-1.88h-.76v1.88h.77-.01zM155 81.72v-3.88h-1.27a.24.24 0 0 1 0-.47h3a.24.24 0 0 1 0 .47h-1.27v3.88a.23.23 0 1 1-.46 0zM162.25 80.58a.23.23 0 1 1 .45 0 .89.89 0 0 0 .87.91.68.68 0 0 0 .74-.62.58.58 0 0 0-.2-.47l-1.24-1a1.16 1.16 0 0 1 .7-2 1.36 1.36 0 0 1 1 .46.93.93 0 0 1 .22.42.24.24 0 0 1-.22.24.27.27 0 0 1-.21-.14.86.86 0 0 0-.78-.51.67.67 0 0 0-.65.69.64.64 0 0 0 .24.51l1.24 1c.245.213.378.526.36.85a1.13 1.13 0 0 1-1.2 1.08 1.36 1.36 0 0 1-1.32-1.42zM166.4 81.72V77.6a.23.23 0 0 1 .22-.24h2.27a.23.23 0 0 1 .22.24.22.22 0 0 1-.22.23h-2.05v1.59h1.59a.235.235 0 0 1 0 .47h-1.59v1.6h2.05a.235.235 0 0 1 0 .47h-2.27a.22.22 0 0 1-.22-.24zM170.53 80.58a.23.23 0 1 1 .45 0 .89.89 0 0 0 .87.91.68.68 0 0 0 .74-.62.58.58 0 0 0-.2-.47l-1.24-1a1.16 1.16 0 0 1 .7-2 1.36 1.36 0 0 1 1 .46.93.93 0 0 1 .22.42.24.24 0 0 1-.22.24.27.27 0 0 1-.21-.14.86.86 0 0 0-.78-.51.67.67 0 0 0-.65.69.64.64 0 0 0 .24.51l1.24 1c.245.213.378.526.36.85a1.13 1.13 0 0 1-1.19 1.08 1.36 1.36 0 0 1-1.33-1.42zM174.68 80.58a.23.23 0 1 1 .45 0 .89.89 0 0 0 .87.91.68.68 0 0 0 .74-.62.58.58 0 0 0-.2-.47l-1.24-1a1.16 1.16 0 0 1 .7-2 1.36 1.36 0 0 1 1 .46.93.93 0 0 1 .22.42.24.24 0 0 1-.22.24.27.27 0 0 1-.21-.14.86.86 0 0 0-.78-.51.67.67 0 0 0-.65.69.64.64 0 0 0 .24.51l1.24 1c.245.213.378.526.36.85A1.13 1.13 0 0 1 176 82a1.36 1.36 0 0 1-1.32-1.42zM178.89 81.72a.22.22 0 0 1 .22-.23h.75v-3.66h-.75a.23.23 0 0 1-.22-.24.22.22 0 0 1 .22-.23h2a.235.235 0 0 1 0 .47h-.75v3.66h.75a.235.235 0 0 1 0 .47h-2a.23.23 0 0 1-.22-.24zM182.92 80.62v-1.9a1.31 1.31 0 1 1 2.61 0v1.9a1.31 1.31 0 1 1-2.61 0zm2.16 0v-1.9a.85.85 0 1 0-1.7 0v1.9a.85.85 0 0 0 1.7 0zM187 81.72V77.6a.23.23 0 0 1 .22-.23.2.2 0 0 1 .19.12l1.85 3.36V77.6a.23.23 0 0 1 .22-.23.23.23 0 0 1 .22.23v4.13a.23.23 0 0 1-.22.24.19.19 0 0 1-.19-.12l-1.85-3.36v3.24a.22.22 0 0 1-.44-.01zM141.76 93.56v-6.61c0-.2.16-.365.36-.37a.35.35 0 0 1 .33.21l1.71 3.62 1.71-3.62a.35.35 0 0 1 .33-.21c.2.005.36.17.36.37v6.61a.36.36 0 0 1-.36.38.37.37 0 0 1-.37-.38v-5l-1.34 2.85a.36.36 0 0 1-.66 0l-1.34-2.85v5a.365.365 0 0 1-.73 0zM149.49 91.79v-3a2.09 2.09 0 0 1 4.18 0v3a2.09 2.09 0 0 1-4.18 0zm3.45 0v-3a1.365 1.365 0 1 0-2.73 0v3a1.37 1.37 0 0 0 2.74 0h-.01zM156.84 93.56v-6.61c0-.2.16-.365.36-.37a.33.33 0 0 1 .31.19l3 5.38v-5.2a.36.36 0 0 1 .36-.37c.2.005.36.17.36.37v6.61a.37.37 0 0 1-.36.38.31.31 0 0 1-.31-.19l-3-5.38v5.19a.36.36 0 0 1-.72 0zM164.35 91.76v-3a2.13 2.13 0 0 1 2.08-2.17 2 2 0 0 1 2.08 2.07.36.36 0 0 1-.36.38.37.37 0 0 1-.36-.38 1.32 1.32 0 0 0-1.36-1.31 1.4 1.4 0 0 0-1.36 1.41v3a1.365 1.365 0 1 0 2.73 0V91h-1.16a.37.37 0 0 1-.36-.37.37.37 0 0 1 .36-.38h1.52a.37.37 0 0 1 .36.38v1.1a2.085 2.085 0 1 1-4.17.03zM171.76 91.79v-3a2.09 2.09 0 0 1 4.18 0v3a2.09 2.09 0 0 1-4.18 0zm3.45 0v-3a1.365 1.365 0 1 0-2.73 0v3a1.365 1.365 0 1 0 2.73 0z"/>
        </g>
        <path d="M25 62.37h90v45H25z"/>
        <g fill-rule="nonzero" opacity=".72">
            <path fill="#3EC7F4" d="M111.58 70.44H33.07v4.62h-4.62V99.3h78.51v-4.62h4.62V70.44z" opacity=".32"/>
            <path fill="#FFF" d="M33.07 75.06h-4.62l4.62-4.62zM106.96 94.68h4.62l-4.62 4.62zM111.58 70.44h-2.49v2.48h2.49v-2.48zM29.68 99.3v-1.24h-1.26v1.24zM37.7 99.3l.36-.62-.36-.62h-8.02v1.24z"/>
        </g>
        <g fill="#FFF" fill-rule="nonzero" opacity=".9">
            <path d="M37.05 80.58a.23.23 0 1 1 .45 0 .89.89 0 0 0 .87.91.68.68 0 0 0 .74-.62.58.58 0 0 0-.2-.47l-1.24-1a1.16 1.16 0 0 1 .7-2 1.36 1.36 0 0 1 1 .46.93.93 0 0 1 .22.42.24.24 0 0 1-.22.24.27.27 0 0 1-.21-.14.86.86 0 0 0-.78-.51.67.67 0 0 0-.65.69.64.64 0 0 0 .27.44l1.24 1c.245.213.378.526.36.85A1.13 1.13 0 0 1 38.37 82a1.36 1.36 0 0 1-1.32-1.42zM41.15 80.6v-3a.23.23 0 0 1 .22-.24.23.23 0 0 1 .22.24v3a.86.86 0 0 0 1.72 0v-3a.23.23 0 0 1 .22-.24.23.23 0 0 1 .22.24v3a1.31 1.31 0 1 1-2.6 0zM45.38 81.72V77.6a.24.24 0 0 1 .22-.24h1a1.41 1.41 0 1 1 0 2.82h-.77v1.54a.23.23 0 0 1-.23.24.23.23 0 0 1-.22-.24zm1.22-2a.94.94 0 1 0 0-1.88h-.77v1.88h.77zM49.52 81.72V77.6a.24.24 0 0 1 .22-.24h1a1.41 1.41 0 1 1 0 2.82H50v1.54a.23.23 0 0 1-.23.24.23.23 0 0 1-.25-.24zm1.22-2a.94.94 0 1 0 0-1.88H50v1.88h.76-.02zM53.58 80.62v-1.9a1.31 1.31 0 1 1 2.61 0v1.9a1.31 1.31 0 1 1-2.61 0zm2.16 0v-1.9a.85.85 0 0 0-1.7 0v1.9a.85.85 0 1 0 1.69 0h.01zM57.78 81.72V77.6a.24.24 0 0 1 .22-.23h1a1.39 1.39 0 0 1 1.36 1.41 1.42 1.42 0 0 1-.91 1.33l1 1.49a.22.22 0 0 1 0 .13.23.23 0 0 1-.22.24.21.21 0 0 1-.19-.1L59 80.19h-.77v1.54a.23.23 0 1 1-.45-.01zm1.22-2a.94.94 0 1 0 0-1.88h-.77v1.88H59zM62.94 81.72v-3.88h-1.28a.24.24 0 0 1 0-.47h3a.24.24 0 0 1 0 .47H63.4v3.88a.23.23 0 0 1-.46 0zM70.23 81.72V77.6a.24.24 0 0 1 .22-.24h1a1.41 1.41 0 1 1 0 2.82h-.77v1.54a.23.23 0 0 1-.23.24.23.23 0 0 1-.22-.24zm1.22-2a.94.94 0 1 0 0-1.88h-.77v1.88h.77zM74.49 81.89a.23.23 0 0 1-.07-.17V77.6a.23.23 0 0 1 .45 0v3.9h2a.23.23 0 0 1 .22.23.23.23 0 0 1-.07.17.22.22 0 0 1-.16.07h-2.21a.22.22 0 0 1-.16-.08zM78 81.72l1.54-4.21a.22.22 0 0 1 .21-.14.21.21 0 0 1 .21.14l1.54 4.21a.23.23 0 0 1-.44.09l-.39-1h-1.86l-.39 1a.22.22 0 0 1-.21.15.23.23 0 0 1-.21-.24zm2.51-1.42l-.75-2-.75 2h1.5zM83.64 81.72v-3.88h-1.27a.24.24 0 0 1 0-.47h3a.24.24 0 0 1 0 .47H84.1v3.88a.23.23 0 0 1-.46 0zM86.94 81.72V77.6a.23.23 0 0 1 .22-.24h2.15a.24.24 0 0 1 .22.24.23.23 0 0 1-.22.24h-1.93v1.59h1.47a.23.23 0 0 1 .22.24.23.23 0 0 1-.22.23h-1.47v1.83a.23.23 0 0 1-.22.24.22.22 0 0 1-.22-.25zM90.85 80.62v-1.9a1.31 1.31 0 1 1 2.61 0v1.9a1.31 1.31 0 1 1-2.61 0zm2.16 0v-1.9a.85.85 0 0 0-1.7 0v1.9a.85.85 0 1 0 1.69 0h.01zM95 81.72V77.6a.24.24 0 0 1 .22-.24h1a1.39 1.39 0 0 1 1.36 1.41 1.42 1.42 0 0 1-.91 1.33l1 1.49a.22.22 0 0 1 0 .13.23.23 0 0 1-.22.24.21.21 0 0 1-.19-.1l-1.16-1.67h-.6v1.54a.23.23 0 0 1-.23.24.23.23 0 0 1-.27-.25zm1.22-2a.94.94 0 1 0 0-1.88h-.72v1.88h.77-.05zM98.94 81.72V77.6a.23.23 0 0 1 .22-.23.22.22 0 0 1 .21.13l1.07 2.26 1.07-2.26a.22.22 0 0 1 .2-.13.23.23 0 0 1 .22.23v4.13a.23.23 0 0 1-.22.24.23.23 0 0 1-.23-.24v-3.11l-.84 1.78a.23.23 0 0 1-.41 0l-.83-1.78v3.11a.23.23 0 1 1-.46-.01zM36.92 93.56v-6.61c0-.2.16-.365.36-.37a.35.35 0 0 1 .33.21l1.71 3.62L41 86.79a.35.35 0 0 1 .33-.21c.2.005.36.17.36.37v6.61a.36.36 0 0 1-.36.38.37.37 0 0 1-.33-.38v-5l-1.34 2.85a.36.36 0 0 1-.66 0l-1.34-2.85v5a.37.37 0 1 1-.74 0zM44.72 93.56V87a.37.37 0 0 1 .35-.38h3.64a.37.37 0 0 1 .35.39.36.36 0 0 1-.35.37h-3.28v2.55H48a.375.375 0 1 1 0 .75h-2.57v2.56h3.28a.375.375 0 1 1 0 .75h-3.64a.36.36 0 0 1-.35-.43zM52.13 91.72a.365.365 0 0 1 .73 0 1.42 1.42 0 0 0 1.39 1.45 1.09 1.09 0 0 0 1.18-1 .93.93 0 0 0-.32-.75l-2-1.6a1.86 1.86 0 0 1 1.11-3.26 2.18 2.18 0 0 1 1.59.74c.174.192.295.427.35.68a.39.39 0 0 1-.36.39.43.43 0 0 1-.33-.23 1.38 1.38 0 0 0-1.25-.82 1.08 1.08 0 0 0-1 1.11 1 1 0 0 0 .39.82l2 1.6c.39.337.604.835.58 1.35a1.81 1.81 0 0 1-1.9 1.72 2.17 2.17 0 0 1-2.16-2.2zM59.56 91.72a.365.365 0 0 1 .73 0 1.42 1.42 0 0 0 1.39 1.45 1.09 1.09 0 0 0 1.18-1 .93.93 0 0 0-.32-.75l-2-1.6a1.86 1.86 0 0 1 1.11-3.26 2.18 2.18 0 0 1 1.59.74c.174.192.295.427.35.68a.39.39 0 0 1-.36.39.43.43 0 0 1-.33-.23 1.38 1.38 0 0 0-1.25-.82 1.08 1.08 0 0 0-1 1.11 1 1 0 0 0 .39.82l2 1.6c.39.337.604.835.58 1.35a1.81 1.81 0 0 1-1.9 1.72 2.17 2.17 0 0 1-2.16-2.2zM67 93.56V87a.37.37 0 0 1 .35-.38H71a.37.37 0 0 1 .35.39.36.36 0 0 1-.35.37h-3.31v2.55h2.55a.375.375 0 1 1 0 .75h-2.55v2.56H71a.375.375 0 1 1 0 .75h-3.66a.36.36 0 0 1-.34-.43zM74.26 93.56v-6.61c0-.2.16-.365.36-.37a.33.33 0 0 1 .31.19l3 5.38v-5.2a.36.36 0 0 1 .36-.37c.2.005.36.17.36.37v6.61a.37.37 0 0 1-.36.38.31.31 0 0 1-.31-.19l-3-5.38v5.19a.36.36 0 0 1-.72 0zM81.77 91.76v-3a2.13 2.13 0 0 1 2.08-2.17 2 2 0 0 1 2.08 2.07.36.36 0 0 1-.36.38.37.37 0 0 1-.36-.38 1.32 1.32 0 0 0-1.36-1.31 1.4 1.4 0 0 0-1.36 1.41v3a1.365 1.365 0 1 0 2.73 0V91h-1.17a.37.37 0 0 1-.36-.37.37.37 0 0 1 .36-.38h1.52a.37.37 0 0 1 .36.38v1.1a2.08 2.08 0 0 1-4.16.03zM89.26 93.56V87a.37.37 0 0 1 .35-.38h3.64a.37.37 0 0 1 .35.39.36.36 0 0 1-.35.37H90v2.55h2.55a.375.375 0 1 1 0 .75H90v2.56h3.28a.375.375 0 1 1 0 .75H89.6a.36.36 0 0 1-.34-.43zM96.7 93.56V87a.38.38 0 0 1 .36-.38h1.6a2.23 2.23 0 0 1 2.18 2.26A2.27 2.27 0 0 1 99.39 91l1.61 2.35a.35.35 0 0 1 .07.21.37.37 0 0 1-.36.38.33.33 0 0 1-.3-.16l-1.83-2.68h-1.16v2.46a.37.37 0 0 1-.37.38.37.37 0 0 1-.35-.38zm2-3.21a1.5 1.5 0 0 0 0-3h-1.28v3h1.28z"/>
        </g>
        <path d="M205 62.37h90v45h-90z"/>
        <g fill-rule="nonzero" opacity=".72">
            <path fill="#3EC7F4" d="M291.58 70.44h-78.51v4.62h-4.63V99.3h78.51v-4.62h4.63V70.44z" opacity=".32"/>
            <path fill="#FFF" d="M213.07 75.06h-4.62l4.62-4.62zM286.95 94.68h4.63l-4.63 4.62zM291.58 70.44h-2.49v2.48h2.49v-2.48zM209.68 99.3v-1.24h-1.26v1.24z"/>
            <path fill="#FFF" d="M217.7 99.3l.36-.62-.36-.62h-8.02v1.24z"/>
        </g>
        <g fill="#FFF" fill-rule="nonzero" opacity=".9">
            <path d="M217 80.58a.23.23 0 1 1 .45 0 .89.89 0 0 0 .87.91.68.68 0 0 0 .74-.62.58.58 0 0 0-.2-.47l-1.24-1a1.16 1.16 0 0 1 .7-2 1.36 1.36 0 0 1 1 .46.93.93 0 0 1 .22.42.24.24 0 0 1-.22.24.27.27 0 0 1-.21-.14.86.86 0 0 0-.78-.51.67.67 0 0 0-.65.69.64.64 0 0 0 .32.44l1.24 1c.245.213.378.526.36.85a1.13 1.13 0 0 1-1.23 1.15 1.36 1.36 0 0 1-1.37-1.42zM221.15 80.6v-3a.23.23 0 0 1 .22-.24.23.23 0 0 1 .22.24v3a.86.86 0 0 0 1.72 0v-3a.23.23 0 0 1 .22-.24.23.23 0 0 1 .22.24v3a1.31 1.31 0 1 1-2.6 0zM225.37 81.72V77.6a.24.24 0 0 1 .22-.24h1a1.41 1.41 0 1 1 0 2.82h-.76v1.54a.23.23 0 1 1-.46 0zm1.22-2a.94.94 0 1 0 0-1.88h-.76v1.88h.76zM229.51 81.72V77.6a.24.24 0 0 1 .22-.24h1a1.41 1.41 0 1 1 0 2.82H230v1.54a.23.23 0 0 1-.23.24.23.23 0 0 1-.26-.24zm1.22-2a.94.94 0 1 0 0-1.88H230v1.88h.76-.03zM233.57 80.62v-1.9a1.31 1.31 0 1 1 2.61 0v1.9a1.31 1.31 0 1 1-2.61 0zm2.16 0v-1.9a.85.85 0 0 0-1.7 0v1.9a.85.85 0 0 0 1.7 0zM237.77 81.72V77.6a.24.24 0 0 1 .22-.24h1a1.39 1.39 0 0 1 1.36 1.41 1.42 1.42 0 0 1-.91 1.33l1 1.49a.22.22 0 0 1 0 .13.23.23 0 0 1-.22.24.21.21 0 0 1-.19-.1l-1.16-1.67h-.72v1.54a.23.23 0 0 1-.15.27.23.23 0 0 1-.23-.28zm1.22-2a.94.94 0 1 0 0-1.88h-.77v1.88h.78-.01zM242.93 81.72v-3.88h-1.27a.24.24 0 0 1 0-.47h3a.24.24 0 0 1 0 .47h-1.27v3.88a.23.23 0 0 1-.46 0zM250.22 81.72V77.6a.24.24 0 0 1 .22-.24h1a1.41 1.41 0 0 1 0 2.82h-.76v1.54a.23.23 0 1 1-.46 0zm1.22-2a.94.94 0 1 0 0-1.88h-.76v1.88h.76zM254.49 81.89a.23.23 0 0 1-.07-.17V77.6a.23.23 0 0 1 .45 0v3.9h2a.23.23 0 0 1 .22.23.23.23 0 0 1-.07.17.22.22 0 0 1-.16.07h-2.26a.22.22 0 0 1-.11-.08zM258 81.72l1.54-4.21a.22.22 0 0 1 .21-.14.21.21 0 0 1 .21.14l1.54 4.21a.23.23 0 0 1-.44.09l-.39-1h-1.87l-.39 1a.22.22 0 0 1-.21.15.23.23 0 0 1-.2-.24zm2.51-1.42l-.75-2-.75 2h1.5zM263.64 81.72v-3.88h-1.27a.24.24 0 0 1 0-.47h3a.24.24 0 0 1 0 .47h-1.27v3.88a.23.23 0 0 1-.46 0zM266.94 81.72V77.6a.23.23 0 0 1 .22-.24h2.15a.24.24 0 0 1 .22.24.23.23 0 0 1-.22.24h-1.93v1.59h1.47a.23.23 0 0 1 .22.24.23.23 0 0 1-.22.23h-1.47v1.83a.23.23 0 0 1-.22.24.22.22 0 0 1-.22-.25zM270.85 80.62v-1.9a1.31 1.31 0 1 1 2.61 0v1.9a1.31 1.31 0 1 1-2.61 0zm2.16 0v-1.9a.85.85 0 0 0-1.7 0v1.9a.85.85 0 1 0 1.69 0h.01zM275 81.72V77.6a.24.24 0 0 1 .22-.24h1a1.39 1.39 0 0 1 1.36 1.41 1.42 1.42 0 0 1-.91 1.33l1 1.49a.22.22 0 0 1 0 .13.23.23 0 0 1-.22.24.21.21 0 0 1-.19-.1l-1.16-1.67h-.6v1.54a.23.23 0 0 1-.23.24.23.23 0 0 1-.27-.25zm1.22-2a.94.94 0 1 0 0-1.88h-.72v1.88h.77-.05zM278.94 81.72V77.6a.23.23 0 0 1 .22-.23.22.22 0 0 1 .21.13l1.07 2.26 1.07-2.26a.22.22 0 0 1 .2-.13.23.23 0 0 1 .22.23v4.13a.23.23 0 0 1-.22.24.23.23 0 0 1-.23-.24v-3.11l-.84 1.78a.23.23 0 0 1-.41 0l-.84-1.78v3.11a.23.23 0 1 1-.45-.01zM236.11 93.82a.37.37 0 0 1-.11-.27v-6.6a.36.36 0 0 1 .11-.26.35.35 0 0 1 .51 0 .36.36 0 0 1 .11.26v6.24H240c.2.005.36.17.36.37a.37.37 0 0 1-.11.27.36.36 0 0 1-.25.11h-3.62a.36.36 0 0 1-.27-.12zM243.37 93.56a.36.36 0 0 1 .36-.37h1.2v-5.87h-1.2a.37.37 0 0 1-.36-.38.36.36 0 0 1 .36-.37h3.13a.375.375 0 1 1 0 .75h-1.2v5.86h1.2a.375.375 0 1 1 0 .75h-3.13a.37.37 0 0 1-.36-.37zM250.55 93.56v-6.61c0-.2.16-.365.36-.37a.33.33 0 0 1 .31.19l3 5.38v-5.2a.36.36 0 0 1 .36-.37c.2.005.36.17.36.37v6.61a.37.37 0 0 1-.36.38.31.31 0 0 1-.31-.19l-3-5.38v5.19a.36.36 0 0 1-.72 0zM258.12 93.56V87a.37.37 0 0 1 .35-.38h3.64a.37.37 0 0 1 .35.39.36.36 0 0 1-.35.37h-3.28v2.55h2.55a.375.375 0 1 1 0 .75h-2.55v2.56h3.28a.375.375 0 1 1 0 .75h-3.64a.36.36 0 0 1-.35-.43z"/>
        </g>
    </g>
</svg>
