<svg xmlns="http://www.w3.org/2000/svg" xmlns:xlink="http://www.w3.org/1999/xlink" width="64" height="70" viewBox="0 0 64 70">
    <defs>
        <path id="a" d="M58.183 59H0V.79h58.183z"/>
        <path id="c" d="M62.2.751v30.87H.615V.75z"/>
    </defs>
    <g fill="none" fill-rule="evenodd">
        <g transform="translate(0 11)">
            <mask id="b" fill="#fff">
                <use xlink:href="#a"/>
            </mask>
            <path fill="#FFF" d="M57.354 23.13a81.882 81.882 0 0 1-2.58-.177 26.67 26.67 0 0 1 .918 6.941c0 14.692-11.941 26.642-26.62 26.642a26.529 26.529 0 0 1-14.056-4.012l-.76-.472-.691.571a15.94 15.94 0 0 1-3.489 2.236 7.773 7.773 0 0 0 1.005-3.81 7.936 7.936 0 0 0-.106-1.27l-.066-.402-.292-.287C1.169 39.997-.25 25.369 7.275 14.627c-.916-.248-1.75-.492-2.488-.711-7.607 11.565-6.01 26.894 3.815 36.64.013.165.168.328.168.492-.004 2.941-2.183 5.326-5.176 5.33v2.458c3.99-.002 7.807-1.327 11.017-3.772 4.434 2.582 9.403 3.94 14.533 3.937 16.032 0 29.039-13.057 29.039-29.103.002-2.28-.3-4.55-.83-6.769M29.074 3.251a26.653 26.653 0 0 1 24.232 15.622c1.083.271 2.08.537 2.985.789C52.145 8.647 41.51.789 29.072.789A29.013 29.013 0 0 0 6.97 11.01c.93.066 1.966.163 3.082.267a26.516 26.516 0 0 1 19.021-8.026" mask="url(#b)"/>
        </g>
        <g transform="translate(1)">
            <mask id="d" fill="#fff">
                <use xlink:href="#c"/>
            </mask>
            <path fill="#FFF" d="M56.688 26.958c-.743-3.573-4.852-21.76-11.469-22.88-7.332-1.243-10.263 1.704-10.263 1.704S33.25 2.052 25.913.808c-6.609-1.12-16.948 14.618-18.92 17.73-3.674-.266-5.879-.202-5.964.258 0 0-.383 1.94-.412 2.105-.213 1.165 13.224 4.415 30.013 7.26 16.79 2.845 30.943 4.206 31.157 3.044l.411-2.042c.088-.46-1.962-1.245-5.51-2.205" mask="url(#d)"/>
        </g>
        <path fill="#FFF" d="M27 33a2 2 0 1 1 0 4 2 2 0 0 1 0-4M48 33a2 2 0 1 1 0 4 2 2 0 0 1 0-4"/>
    </g>
</svg>
