<svg xmlns="http://www.w3.org/2000/svg" width="20" height="20" viewBox="0 0 20 20">
    <path fill="#A8A8A8" fill-rule="evenodd" d="M13.846 8.462c0-1.483-.527-2.75-1.58-3.805-1.054-1.053-2.322-1.58-3.804-1.58-1.483 0-2.75.527-3.805 1.58-1.053 1.054-1.58 2.322-1.58 3.805 0 1.482.527 2.75 1.58 3.804 1.054 1.053 2.322 1.58 3.805 1.58 1.482 0 2.75-.527 3.804-1.58 1.053-1.054 1.58-2.322 1.58-3.804zm6.154 10c0 .416-.152.777-.457 1.081a1.478 1.478 0 0 1-1.081.457c-.433 0-.794-.152-1.082-.457l-4.123-4.11c-1.434.993-3.033 1.49-4.795 1.49a8.314 8.314 0 0 1-3.288-.667 8.46 8.46 0 0 1-2.704-1.803A8.46 8.46 0 0 1 .667 11.75 8.314 8.314 0 0 1 0 8.462C0 7.316.222 6.22.667 5.174A8.46 8.46 0 0 1 2.47 2.47 8.46 8.46 0 0 1 5.174.667 8.314 8.314 0 0 1 8.462 0c1.145 0 2.241.222 3.287.667a8.46 8.46 0 0 1 2.704 1.803 8.46 8.46 0 0 1 1.803 2.704 8.314 8.314 0 0 1 .667 3.288c0 1.762-.497 3.36-1.49 4.795l4.122 4.123c.297.296.445.657.445 1.082z"/>
</svg>
